<svg width="1920" height="1080" viewBox="0 0 1920 1080" fill="none" xmlns="http://www.w3.org/2000/svg">
<path d="M78.7154 150.653C79.7726 150.653 80.806 150.967 81.685 151.554C82.5639 152.141 83.249 152.976 83.6536 153.953C84.0581 154.929 84.164 156.004 83.9577 157.041C83.7515 158.078 83.2424 159.03 82.4949 159.778C81.7474 160.525 80.795 161.034 79.7582 161.24C78.7213 161.447 77.6466 161.341 76.6699 160.936C75.6933 160.532 74.8585 159.847 74.2712 158.968C73.6838 158.089 73.3704 157.055 73.3704 155.998C73.3704 154.581 73.9335 153.221 74.9359 152.219C75.9383 151.216 77.2978 150.653 78.7154 150.653Z" fill="#EBEBEB"/>
<path d="M101.46 6.86128e-06C102.519 6.81495e-06 103.555 0.31429 104.437 0.903124C105.318 1.49196 106.005 2.32891 106.41 3.3081C106.816 4.2873 106.922 5.36476 106.715 6.40427C106.509 7.44378 105.998 8.39865 105.249 9.1481C104.499 9.89754 103.544 10.4079 102.505 10.6147C101.465 10.8215 100.388 10.7153 99.4088 10.3097C98.4296 9.90413 97.5927 9.21729 97.0038 8.33604C96.415 7.45479 96.1007 6.41872 96.1007 5.35885C96.1007 3.9376 96.6653 2.57457 97.6703 1.56959C98.6752 0.564622 100.038 6.92341e-06 101.46 6.86128e-06Z" fill="#EBEBEB"/>
<path d="M5.35882 571.451C6.41869 571.451 7.45477 571.766 8.33602 572.354C9.21727 572.943 9.90413 573.78 10.3097 574.759C10.7153 575.739 10.8214 576.816 10.6147 577.856C10.4079 578.895 9.89752 579.85 9.14808 580.599C8.39863 581.349 7.44378 581.859 6.40427 582.066C5.36476 582.273 4.28728 582.167 3.30809 581.761C2.32889 581.355 1.49196 580.669 0.903123 579.787C0.314288 578.906 -1.87913e-07 577.87 -2.34242e-07 576.81C-2.96366e-07 575.389 0.564588 574.026 1.56956 573.021C2.57453 572.016 3.93757 571.451 5.35882 571.451Z" fill="#EBEBEB"/>
<path d="M586.577 197.739C587.638 197.736 588.675 198.048 589.558 198.636C590.441 199.223 591.13 200.059 591.538 201.038C591.946 202.017 592.054 203.095 591.848 204.135C591.643 205.175 591.134 206.131 590.385 206.882C589.636 207.633 588.681 208.145 587.641 208.353C586.602 208.561 585.523 208.455 584.543 208.05C583.563 207.645 582.726 206.958 582.136 206.077C581.547 205.195 581.232 204.158 581.232 203.098C581.232 201.679 581.795 200.318 582.797 199.314C583.799 198.309 585.158 197.743 586.577 197.739Z" fill="#EBEBEB"/>
<path d="M597.267 6.44724C598.328 6.45272 599.363 6.77268 600.241 7.36667C601.12 7.96065 601.802 8.80194 602.202 9.784C602.602 10.7661 602.702 11.8448 602.489 12.8836C602.276 13.9224 601.759 14.8745 601.004 15.6195C600.25 16.3646 599.291 16.8689 598.25 17.0688C597.208 17.2686 596.131 17.155 595.154 16.7422C594.177 16.3295 593.345 15.6362 592.762 14.7502C592.179 13.8641 591.873 12.8251 591.881 11.7647C591.892 10.3459 592.465 8.98924 593.475 7.9924C594.484 6.99556 595.848 6.4399 597.267 6.44724Z" fill="#EBEBEB"/>
<path d="M340.443 376.619C341.503 376.619 342.539 376.933 343.421 377.522C344.302 378.111 344.989 378.948 345.394 379.927C345.8 380.906 345.906 381.984 345.699 383.023C345.493 384.063 344.982 385.018 344.233 385.767C343.483 386.517 342.528 387.027 341.489 387.234C340.449 387.44 339.372 387.334 338.393 386.929C337.413 386.523 336.577 385.836 335.988 384.955C335.399 384.074 335.085 383.038 335.085 381.978C335.085 380.557 335.649 379.194 336.654 378.189C337.659 377.184 339.022 376.619 340.443 376.619Z" fill="#EBEBEB"/>
<path d="M604.568 545.484C605.626 545.484 606.659 545.797 607.538 546.385C608.417 546.972 609.102 547.807 609.507 548.783C609.911 549.76 610.017 550.835 609.811 551.872C609.605 552.908 609.095 553.861 608.348 554.608C607.6 555.356 606.648 555.865 605.611 556.071C604.574 556.277 603.5 556.172 602.523 555.767C601.546 555.362 600.712 554.677 600.124 553.798C599.537 552.919 599.223 551.886 599.223 550.829C599.223 549.411 599.787 548.052 600.789 547.049C601.791 546.047 603.151 545.484 604.568 545.484Z" fill="#EBEBEB"/>
<path d="M533.237 604.651C533.237 601.699 530.844 599.306 527.892 599.306C524.94 599.306 522.547 601.699 522.547 604.651C522.547 607.603 524.94 609.996 527.892 609.996C530.844 609.996 533.237 607.603 533.237 604.651Z" fill="#EBEBEB"/>
<path d="M547.109 69.0172C548.17 69.0145 549.207 69.3264 550.09 69.9136C550.973 70.5008 551.662 71.3367 552.07 72.3157C552.478 73.2947 552.586 74.3726 552.381 75.413C552.175 76.4534 551.666 77.4095 550.917 78.1604C550.168 78.9112 549.213 79.4229 548.174 79.6308C547.134 79.8387 546.055 79.7334 545.075 79.3282C544.095 78.923 543.258 78.2362 542.668 77.3547C542.079 76.4731 541.764 75.4365 541.764 74.376C541.764 72.9572 542.327 71.5962 543.329 70.5916C544.331 69.587 545.69 69.0208 547.109 69.0172Z" fill="#EBEBEB"/>
<path d="M23.9288 284.1C24.9859 284.1 26.0193 284.414 26.8983 285.001C27.7773 285.588 28.4624 286.423 28.867 287.4C29.2715 288.376 29.3774 289.451 29.1711 290.488C28.9649 291.525 28.4558 292.477 27.7083 293.225C26.9608 293.972 26.0084 294.481 24.9716 294.688C23.9347 294.894 22.86 294.788 21.8833 294.383C20.9066 293.979 20.0719 293.294 19.4845 292.415C18.8972 291.536 18.5837 290.502 18.5837 289.445C18.5837 288.028 19.1469 286.668 20.1493 285.666C21.1517 284.663 22.5112 284.1 23.9288 284.1Z" fill="#EBEBEB"/>
<path d="M110.965 319.807C112.022 319.807 113.055 320.121 113.934 320.708C114.813 321.295 115.498 322.13 115.903 323.107C116.307 324.083 116.413 325.158 116.207 326.195C116.001 327.232 115.492 328.184 114.744 328.932C113.997 329.679 113.044 330.188 112.007 330.395C110.971 330.601 109.896 330.495 108.919 330.09C107.943 329.686 107.108 329.001 106.52 328.122C105.933 327.243 105.62 326.209 105.62 325.152C105.62 323.735 106.183 322.375 107.185 321.373C108.188 320.37 109.547 319.807 110.965 319.807Z" fill="#EBEBEB"/>
<path d="M247.222 591.922C248.28 591.925 249.313 592.242 250.191 592.832C251.068 593.422 251.751 594.259 252.153 595.238C252.555 596.216 252.657 597.292 252.447 598.329C252.237 599.365 251.724 600.316 250.973 601.061C250.222 601.806 249.267 602.312 248.229 602.514C247.191 602.716 246.116 602.605 245.14 602.196C244.165 601.787 243.333 601.098 242.75 600.215C242.166 599.333 241.858 598.297 241.863 597.24C241.871 595.825 242.439 594.47 243.443 593.473C244.448 592.476 245.807 591.919 247.222 591.922Z" fill="#EBEBEB"/>
<path d="M18.9556 463.159C20.0155 463.159 21.0516 463.473 21.9328 464.062C22.8141 464.651 23.5009 465.488 23.9065 466.467C24.3121 467.446 24.4182 468.524 24.2115 469.563C24.0047 470.603 23.4943 471.558 22.7449 472.307C21.9954 473.057 21.0406 473.567 20.0011 473.774C18.9616 473.981 17.8841 473.874 16.9049 473.469C15.9257 473.063 15.0888 472.376 14.4999 471.495C13.9111 470.614 13.5968 469.578 13.5968 468.518C13.5968 467.097 14.1614 465.734 15.1664 464.729C16.1713 463.724 17.5344 463.159 18.9556 463.159Z" fill="#EBEBEB"/>
<path d="M282.902 13.5279C283.962 13.5251 284.999 13.8371 285.883 14.4243C286.766 15.0115 287.455 15.8474 287.862 16.8264C288.27 17.8053 288.378 18.8833 288.173 19.9237C287.968 20.9641 287.458 21.9202 286.709 22.671C285.961 23.4219 285.006 23.9336 283.966 24.1415C282.926 24.3494 281.848 24.2441 280.868 23.8389C279.888 23.4337 279.05 22.7469 278.461 21.8653C277.871 20.9838 277.557 19.9472 277.557 18.8867C277.557 17.4678 278.119 16.1069 279.121 15.1023C280.123 14.0977 281.483 13.5315 282.902 13.5279Z" fill="#EBEBEB"/>
<path d="M60.5587 219.615C60.5587 222.395 59.7343 225.112 58.1897 227.423C56.6451 229.734 54.4498 231.535 51.8814 232.598C49.313 233.661 46.4871 233.939 43.761 233.395C41.0349 232.852 38.5312 231.513 36.5666 229.546C34.6021 227.58 33.2649 225.075 32.7243 222.348C32.1836 219.621 32.4639 216.796 33.5295 214.228C34.5951 211.661 36.3983 209.467 38.7108 207.925C41.0234 206.383 43.7414 205.561 46.5211 205.564C50.2443 205.571 53.8127 207.054 56.444 209.688C59.0754 212.322 60.5551 215.892 60.5587 219.615ZM34.7014 219.615C34.7014 221.953 35.3946 224.238 36.6934 226.182C37.9922 228.126 39.8381 229.64 41.9979 230.535C44.1577 231.43 46.5342 231.664 48.827 231.208C51.1198 230.752 53.2259 229.626 54.8789 227.973C56.5319 226.32 57.6577 224.214 58.1137 221.921C58.5698 219.628 58.3357 217.252 57.4411 215.092C56.5465 212.932 55.0315 211.086 53.0878 209.787C51.1441 208.489 48.8588 207.795 46.5211 207.795C43.3875 207.799 40.3832 209.045 38.1673 211.261C35.9515 213.477 34.7051 216.481 34.7014 219.615Z" fill="#EBEBEB"/>
<path d="M527.892 158.271C527.892 161.051 527.067 163.768 525.523 166.079C523.978 168.39 521.783 170.191 519.214 171.254C516.646 172.317 513.82 172.595 511.094 172.052C508.368 171.508 505.864 170.169 503.9 168.202C501.935 166.236 500.598 163.731 500.057 161.004C499.517 158.277 499.797 155.452 500.863 152.884C501.928 150.317 503.731 148.124 506.044 146.581C508.356 145.039 511.074 144.217 513.854 144.22C517.578 144.223 521.149 145.706 523.781 148.34C526.413 150.975 527.892 154.547 527.892 158.271ZM502.034 158.271C502.037 160.608 502.733 162.892 504.033 164.834C505.334 166.776 507.18 168.289 509.34 169.181C511.501 170.074 513.877 170.306 516.169 169.848C518.46 169.391 520.565 168.264 522.217 166.61C523.868 164.957 524.993 162.851 525.448 160.558C525.903 158.266 525.668 155.89 524.773 153.731C523.878 151.572 522.363 149.727 520.419 148.429C518.476 147.131 516.191 146.438 513.854 146.438C510.718 146.441 507.712 147.69 505.496 149.909C503.279 152.127 502.034 155.135 502.034 158.271Z" fill="#EBEBEB"/>
<path d="M522.864 491.854C522.866 494.634 522.045 497.352 520.502 499.665C518.96 501.977 516.766 503.78 514.199 504.846C511.632 505.911 508.806 506.192 506.079 505.651C503.353 505.11 500.848 503.773 498.881 501.809C496.915 499.844 495.575 497.34 495.032 494.614C494.489 491.888 494.766 489.062 495.829 486.494C496.892 483.926 498.693 481.73 501.004 480.186C503.315 478.641 506.033 477.817 508.812 477.817C512.535 477.82 516.105 479.3 518.739 481.931C521.373 484.563 522.856 488.131 522.864 491.854ZM496.993 491.854C496.993 494.192 497.686 496.477 498.985 498.421C500.283 500.365 502.129 501.88 504.289 502.774C506.449 503.669 508.825 503.903 511.118 503.447C513.411 502.991 515.517 501.865 517.17 500.212C518.823 498.559 519.949 496.453 520.405 494.16C520.861 491.867 520.627 489.491 519.732 487.331C518.838 485.171 517.323 483.325 515.379 482.026C513.435 480.728 511.15 480.035 508.812 480.035C505.679 480.038 502.674 481.285 500.459 483.5C498.243 485.716 496.996 488.721 496.993 491.854Z" fill="#EBEBEB"/>
<path d="M344.149 218.21C344.149 220.989 343.325 223.706 341.781 226.017C340.237 228.327 338.043 230.128 335.475 231.192C332.907 232.256 330.082 232.534 327.356 231.992C324.631 231.449 322.127 230.111 320.162 228.146C318.197 226.181 316.859 223.677 316.316 220.951C315.774 218.226 316.052 215.401 317.116 212.833C318.179 210.265 319.98 208.071 322.291 206.527C324.602 204.983 327.319 204.159 330.098 204.159C333.823 204.162 337.395 205.644 340.03 208.278C342.664 210.913 344.146 214.485 344.149 218.21ZM318.278 218.21C318.275 220.552 318.967 222.842 320.267 224.79C321.566 226.738 323.414 228.257 325.577 229.154C327.74 230.051 330.12 230.287 332.417 229.831C334.714 229.375 336.823 228.247 338.479 226.591C340.135 224.936 341.262 222.826 341.718 220.529C342.174 218.232 341.939 215.852 341.042 213.689C340.144 211.526 338.625 209.678 336.677 208.379C334.729 207.08 332.439 206.388 330.098 206.39C326.964 206.394 323.96 207.641 321.744 209.856C319.528 212.072 318.282 215.077 318.278 218.21Z" fill="#EBEBEB"/>
<path d="M418.002 595.959C418.002 598.738 417.177 601.456 415.633 603.767C414.088 606.078 411.893 607.879 409.324 608.942C406.756 610.005 403.93 610.282 401.204 609.739C398.478 609.196 395.974 607.856 394.01 605.89C392.045 603.923 390.708 601.418 390.167 598.691C389.627 595.965 389.907 593.139 390.972 590.572C392.038 588.004 393.841 585.811 396.154 584.269C398.466 582.726 401.184 581.904 403.964 581.907C407.687 581.914 411.256 583.398 413.887 586.032C416.518 588.666 417.998 592.235 418.002 595.959ZM392.144 595.959C392.144 598.296 392.838 600.582 394.136 602.525C395.435 604.469 397.281 605.984 399.441 606.879C401.601 607.773 403.977 608.007 406.27 607.551C408.563 607.095 410.669 605.969 412.322 604.316C413.975 602.663 415.101 600.557 415.557 598.264C416.013 595.972 415.779 593.595 414.884 591.435C413.989 589.276 412.474 587.43 410.531 586.131C408.587 584.832 406.302 584.139 403.964 584.139C400.828 584.139 397.82 585.384 395.601 587.6C393.383 589.816 392.134 592.823 392.131 595.959L392.144 595.959Z" fill="#EBEBEB"/>
<path d="M496.083 25.8436C496.078 28.6216 495.249 31.3355 493.702 33.6426C492.154 35.9498 489.958 37.7465 487.39 38.8058C484.822 39.8651 481.998 40.1394 479.274 39.5941C476.55 39.0488 474.049 37.7084 472.086 35.7422C470.124 33.776 468.788 31.2722 468.248 28.5473C467.709 25.8223 467.988 22.9984 469.053 20.4325C470.117 17.8665 471.918 15.6736 474.228 14.1309C476.538 12.5881 479.254 11.7647 482.032 11.7647C485.761 11.772 489.335 13.2585 491.969 15.898C494.604 18.5376 496.083 22.1144 496.083 25.8436ZM470.212 25.8436C470.212 28.1814 470.905 30.4666 472.204 32.4103C473.503 34.354 475.349 35.869 477.509 36.7636C479.668 37.6582 482.045 37.8923 484.338 37.4362C486.631 36.9802 488.737 35.8545 490.39 34.2014C492.043 32.5484 493.168 30.4423 493.624 28.1495C494.081 25.8567 493.846 23.4802 492.952 21.3204C492.057 19.1607 490.542 17.3147 488.599 16.0159C486.655 14.7171 484.37 14.0239 482.032 14.0239C478.898 14.0276 475.894 15.274 473.678 17.4899C471.462 19.7057 470.216 22.71 470.212 25.8436Z" fill="#EBEBEB"/>
<path d="M80.9469 599.595C80.9496 602.375 80.1279 605.093 78.5855 607.406C77.0432 609.718 74.8496 611.521 72.2823 612.587C69.715 613.653 66.8893 613.933 64.1627 613.392C61.4361 612.852 58.9311 611.515 56.9646 609.55C54.9981 607.585 53.6584 605.082 53.1151 602.356C52.5718 599.63 52.8493 596.804 53.9124 594.235C54.9755 591.667 56.7765 589.471 59.0875 587.927C61.3986 586.382 64.1158 585.558 66.8955 585.558C70.6187 585.561 74.1885 587.041 76.8225 589.673C79.4564 592.304 80.9396 595.872 80.9469 599.595ZM55.0758 599.595C55.0758 601.933 55.769 604.218 57.0678 606.162C58.3666 608.106 60.2125 609.621 62.3723 610.515C64.5321 611.41 66.9086 611.644 69.2014 611.188C71.4942 610.732 73.6003 609.606 75.2533 607.953C76.9063 606.3 78.032 604.194 78.4881 601.901C78.9442 599.609 78.7101 597.232 77.8155 595.072C76.9209 592.912 75.4059 591.066 73.4622 589.768C71.5185 588.469 69.2332 587.776 66.8955 587.776C63.763 587.783 60.7608 589.031 58.5458 591.246C56.3307 593.461 55.0831 596.463 55.0758 599.595Z" fill="#EBEBEB"/>
<path d="M33.6821 68.5627C33.6739 71.34 32.8429 74.0526 31.2939 76.3579C29.745 78.6632 27.5476 80.4578 24.9794 81.5149C22.4111 82.5721 19.5871 82.8445 16.8642 82.2977C14.1412 81.7509 11.6413 80.4093 9.68033 78.4426C7.71934 76.4758 6.38517 73.9721 5.84634 71.2475C5.3075 68.5229 5.58817 65.6998 6.65289 63.1346C7.71761 60.5695 9.51863 58.3774 11.8285 56.8352C14.1383 55.293 16.8533 54.47 19.6307 54.4699C23.3623 54.4772 26.9383 55.9657 29.5731 58.6082C32.2078 61.2507 33.6858 64.8311 33.6821 68.5627ZM7.81098 68.5627C7.81098 70.9004 8.5042 73.1856 9.80297 75.1294C11.1017 77.0731 12.9477 78.5881 15.1075 79.4827C17.2673 80.3773 19.6438 80.6113 21.9366 80.1553C24.2294 79.6992 26.3355 78.5735 27.9885 76.9205C29.6415 75.2674 30.7672 73.1614 31.2233 70.8686C31.6794 68.5758 31.4453 66.1992 30.5507 64.0394C29.6561 61.8797 28.1411 60.0337 26.1974 58.7349C24.2536 57.4362 21.9684 56.743 19.6307 56.743C18.0767 56.7411 16.5376 57.0454 15.1012 57.6385C13.6648 58.2315 12.3592 59.1016 11.2591 60.1992C10.159 61.2967 9.28583 62.6002 8.68947 64.0352C8.09311 65.4703 7.78524 67.0087 7.78343 68.5627L7.81098 68.5627Z" fill="#EBEBEB"/>
<path d="M82.4762 429.959C82.4762 432.737 81.6528 435.453 80.11 437.763C78.5673 440.073 76.3744 441.874 73.8084 442.938C71.2425 444.003 68.4186 444.283 65.6936 443.743C62.9687 443.203 60.4649 441.867 58.4987 439.905C56.5325 437.942 55.1921 435.441 54.6468 432.717C54.1015 429.993 54.3758 427.169 55.4351 424.601C56.4944 422.033 58.2911 419.837 60.5983 418.289C62.9054 416.742 65.6193 415.913 68.3973 415.908C70.2448 415.904 72.075 416.265 73.783 416.97C75.491 417.674 77.0432 418.708 78.3509 420.014C79.6586 421.319 80.6961 422.869 81.404 424.576C82.1119 426.282 82.4762 428.112 82.4762 429.959ZM56.6189 429.959C56.6162 432.299 57.3081 434.588 58.6071 436.534C59.906 438.48 61.7535 439.997 63.9154 440.893C66.0774 441.788 68.4565 442.022 70.7513 441.564C73.0461 441.106 75.1534 439.978 76.8061 438.321C78.4589 436.664 79.5827 434.554 80.0352 432.259C80.4877 429.963 80.2485 427.584 79.348 425.424C78.4475 423.264 76.9261 421.421 74.9766 420.126C73.0271 418.832 70.7373 418.145 68.3973 418.153C65.272 418.164 62.2783 419.412 60.071 421.625C57.8637 423.837 56.6225 426.834 56.6189 429.959Z" fill="#EBEBEB"/>
<path d="M586.577 403.11C586.58 405.893 585.756 408.613 584.211 410.927C582.666 413.241 580.468 415.045 577.897 416.108C575.325 417.172 572.496 417.448 569.768 416.902C567.039 416.355 564.534 415.011 562.571 413.04C560.607 411.068 559.273 408.558 558.737 405.828C558.202 403.097 558.489 400.269 559.563 397.702C560.636 395.135 562.448 392.944 564.768 391.408C567.088 389.872 569.812 389.059 572.595 389.072C576.307 389.091 579.861 390.577 582.481 393.207C585.101 395.838 586.574 399.398 586.577 403.11ZM560.706 403.11C560.706 405.445 561.398 407.727 562.693 409.669C563.989 411.612 565.831 413.127 567.987 414.023C570.143 414.92 572.516 415.158 574.807 414.707C577.097 414.257 579.204 413.138 580.859 411.492C582.515 409.846 583.646 407.746 584.11 405.458C584.574 403.17 584.35 400.795 583.465 398.634C582.581 396.473 581.077 394.623 579.143 393.316C577.208 392.009 574.929 391.304 572.595 391.29C571.037 391.283 569.494 391.583 568.053 392.174C566.611 392.764 565.301 393.634 564.196 394.732C563.092 395.83 562.215 397.135 561.616 398.573C561.017 400.011 560.708 401.553 560.706 403.11Z" fill="#EBEBEB"/>
<path d="M715.161 150.653C716.218 150.653 717.252 150.967 718.131 151.554C719.01 152.141 719.695 152.976 720.099 153.953C720.504 154.929 720.61 156.004 720.404 157.041C720.197 158.078 719.688 159.03 718.941 159.778C718.193 160.525 717.241 161.034 716.204 161.24C715.167 161.447 714.092 161.341 713.116 160.936C712.139 160.532 711.304 159.847 710.717 158.968C710.13 158.089 709.816 157.055 709.816 155.998C709.816 154.581 710.379 153.221 711.382 152.219C712.384 151.216 713.744 150.653 715.161 150.653Z" fill="#EBEBEB"/>
<path d="M737.905 6.86128e-06C738.965 6.81495e-06 740.001 0.31429 740.882 0.903124C741.764 1.49196 742.451 2.32891 742.856 3.3081C743.262 4.2873 743.368 5.36476 743.161 6.40427C742.954 7.44378 742.444 8.39865 741.695 9.1481C740.945 9.89754 739.99 10.4079 738.951 10.6147C737.911 10.8215 736.834 10.7153 735.855 10.3097C734.875 9.90413 734.038 9.21729 733.45 8.33604C732.861 7.45479 732.546 6.41872 732.546 5.35885C732.546 3.9376 733.111 2.57457 734.116 1.56959C735.121 0.564622 736.484 6.92341e-06 737.905 6.86128e-06Z" fill="#EBEBEB"/>
<path d="M641.805 571.451C642.865 571.451 643.901 571.766 644.782 572.354C645.663 572.943 646.35 573.78 646.756 574.759C647.161 575.739 647.267 576.816 647.061 577.856C646.854 578.895 646.343 579.85 645.594 580.599C644.844 581.349 643.89 581.859 642.85 582.066C641.811 582.273 640.733 582.167 639.754 581.761C638.775 581.355 637.938 580.669 637.349 579.787C636.76 578.906 636.446 577.87 636.446 576.81C636.446 575.389 637.01 574.026 638.015 573.021C639.02 572.016 640.383 571.451 641.805 571.451Z" fill="#EBEBEB"/>
<path d="M1223.02 197.739C1224.08 197.736 1225.12 198.048 1226 198.636C1226.89 199.223 1227.58 200.059 1227.98 201.038C1228.39 202.017 1228.5 203.095 1228.29 204.135C1228.09 205.175 1227.58 206.131 1226.83 206.882C1226.08 207.633 1225.13 208.145 1224.09 208.353C1223.05 208.561 1221.97 208.455 1220.99 208.05C1220.01 207.645 1219.17 206.958 1218.58 206.077C1217.99 205.195 1217.68 204.158 1217.68 203.098C1217.68 201.679 1218.24 200.318 1219.24 199.314C1220.24 198.309 1221.6 197.743 1223.02 197.739Z" fill="#EBEBEB"/>
<path d="M1233.71 6.44718C1234.77 6.45266 1235.81 6.77262 1236.69 7.36661C1237.57 7.96059 1238.25 8.80188 1238.65 9.78394C1239.05 10.766 1239.15 11.8447 1238.93 12.8835C1238.72 13.9223 1238.2 14.8745 1237.45 15.6195C1236.7 16.3645 1235.74 16.8688 1234.7 17.0687C1233.65 17.2686 1232.58 17.1549 1231.6 16.7422C1230.62 16.3294 1229.79 15.6362 1229.21 14.7501C1228.63 13.8641 1228.32 12.8251 1228.33 11.7646C1228.34 10.3458 1228.91 8.98918 1229.92 7.99234C1230.93 6.9955 1232.29 6.43984 1233.71 6.44718Z" fill="#EBEBEB"/>
<path d="M976.889 376.619C977.949 376.619 978.985 376.933 979.867 377.522C980.748 378.111 981.435 378.948 981.84 379.927C982.246 380.906 982.352 381.984 982.145 383.023C981.938 384.063 981.428 385.018 980.679 385.767C979.929 386.516 978.974 387.027 977.935 387.234C976.895 387.44 975.818 387.334 974.839 386.929C973.859 386.523 973.022 385.836 972.434 384.955C971.845 384.074 971.531 383.038 971.531 381.978C971.531 380.557 972.095 379.193 973.1 378.189C974.105 377.184 975.468 376.619 976.889 376.619Z" fill="#EBEBEB"/>
<path d="M1241.01 545.484C1242.07 545.484 1243.1 545.797 1243.98 546.385C1244.86 546.972 1245.55 547.807 1245.95 548.783C1246.36 549.76 1246.46 550.835 1246.26 551.872C1246.05 552.908 1245.54 553.861 1244.79 554.608C1244.05 555.356 1243.09 555.865 1242.06 556.071C1241.02 556.277 1239.95 556.172 1238.97 555.767C1237.99 555.362 1237.16 554.677 1236.57 553.798C1235.98 552.919 1235.67 551.886 1235.67 550.829C1235.67 549.411 1236.23 548.052 1237.23 547.049C1238.24 546.047 1239.6 545.484 1241.01 545.484Z" fill="#EBEBEB"/>
<path d="M1169.68 604.651C1169.68 601.699 1167.29 599.306 1164.34 599.306C1161.39 599.306 1158.99 601.699 1158.99 604.651C1158.99 607.603 1161.39 609.996 1164.34 609.996C1167.29 609.996 1169.68 607.603 1169.68 604.651Z" fill="#EBEBEB"/>
<path d="M1183.56 69.0171C1184.62 69.0144 1185.65 69.3264 1186.54 69.9136C1187.42 70.5007 1188.11 71.3367 1188.52 72.3156C1188.92 73.2946 1189.03 74.3725 1188.83 75.4129C1188.62 76.4534 1188.11 77.4095 1187.36 78.1603C1186.61 78.9111 1185.66 79.4229 1184.62 79.6308C1183.58 79.8386 1182.5 79.7333 1181.52 79.3281C1180.54 78.923 1179.7 78.2361 1179.11 77.3546C1178.52 76.473 1178.21 75.4364 1178.21 74.376C1178.21 72.9571 1178.77 71.5961 1179.77 70.5916C1180.78 69.587 1182.14 69.0208 1183.56 69.0171Z" fill="#EBEBEB"/>
<path d="M660.375 284.1C661.432 284.1 662.465 284.414 663.344 285.001C664.223 285.588 664.908 286.423 665.313 287.4C665.717 288.376 665.823 289.451 665.617 290.488C665.411 291.525 664.902 292.477 664.154 293.225C663.407 293.972 662.454 294.481 661.417 294.688C660.38 294.894 659.306 294.788 658.329 294.383C657.352 293.979 656.518 293.294 655.93 292.415C655.343 291.536 655.03 290.502 655.03 289.445C655.03 288.028 655.593 286.668 656.595 285.666C657.597 284.663 658.957 284.1 660.375 284.1Z" fill="#EBEBEB"/>
<path d="M747.411 319.807C748.468 319.807 749.501 320.121 750.38 320.708C751.259 321.295 751.944 322.13 752.349 323.107C752.753 324.083 752.859 325.158 752.653 326.195C752.447 327.232 751.938 328.184 751.19 328.932C750.443 329.679 749.49 330.188 748.453 330.395C747.417 330.601 746.342 330.495 745.365 330.09C744.388 329.686 743.554 329.001 742.966 328.122C742.379 327.243 742.066 326.209 742.066 325.152C742.066 323.735 742.629 322.375 743.631 321.373C744.633 320.37 745.993 319.807 747.411 319.807Z" fill="#EBEBEB"/>
<path d="M883.668 591.922C884.726 591.925 885.759 592.241 886.637 592.832C887.514 593.422 888.197 594.259 888.599 595.238C889 596.216 889.103 597.292 888.893 598.329C888.683 599.365 888.17 600.316 887.419 601.061C886.668 601.806 885.713 602.312 884.675 602.514C883.637 602.716 882.562 602.605 881.586 602.196C880.611 601.787 879.779 601.098 879.196 600.215C878.612 599.333 878.304 598.297 878.309 597.24C878.316 595.824 878.885 594.47 879.889 593.473C880.894 592.476 882.253 591.919 883.668 591.922Z" fill="#EBEBEB"/>
<path d="M655.401 463.159C656.461 463.159 657.497 463.473 658.379 464.062C659.26 464.651 659.947 465.488 660.352 466.467C660.758 467.446 660.864 468.524 660.657 469.563C660.451 470.603 659.94 471.558 659.191 472.307C658.441 473.056 657.486 473.567 656.447 473.774C655.407 473.98 654.33 473.874 653.351 473.469C652.372 473.063 651.535 472.376 650.946 471.495C650.357 470.614 650.043 469.578 650.043 468.518C650.043 467.097 650.607 465.734 651.612 464.729C652.617 463.724 653.98 463.159 655.401 463.159Z" fill="#EBEBEB"/>
<path d="M919.347 13.5279C920.408 13.5251 921.445 13.8371 922.328 14.4243C923.211 15.0115 923.9 15.8474 924.308 16.8264C924.716 17.8053 924.824 18.8833 924.619 19.9237C924.414 20.9641 923.904 21.9202 923.155 22.671C922.406 23.4219 921.452 23.9336 920.412 24.1415C919.372 24.3494 918.294 24.2441 917.314 23.8389C916.334 23.4337 915.496 22.7469 914.906 21.8653C914.317 20.9838 914.002 19.9472 914.002 18.8867C914.002 17.4678 914.565 16.1069 915.567 15.1023C916.569 14.0977 917.929 13.5315 919.347 13.5279Z" fill="#EBEBEB"/>
<path d="M697.005 219.615C697.005 222.395 696.18 225.112 694.636 227.423C693.091 229.734 690.896 231.535 688.327 232.598C685.759 233.661 682.933 233.939 680.207 233.395C677.481 232.852 674.977 231.513 673.013 229.546C671.048 227.58 669.711 225.075 669.17 222.348C668.63 219.621 668.91 216.796 669.975 214.228C671.041 211.661 672.844 209.467 675.157 207.925C677.469 206.383 680.187 205.561 682.967 205.564C686.69 205.571 690.259 207.054 692.89 209.688C695.521 212.322 697.001 215.892 697.005 219.615ZM671.147 219.615C671.147 221.953 671.841 224.238 673.139 226.182C674.438 228.126 676.284 229.64 678.444 230.535C680.604 231.43 682.98 231.664 685.273 231.208C687.566 230.752 689.672 229.626 691.325 227.973C692.978 226.32 694.104 224.214 694.56 221.921C695.016 219.628 694.782 217.252 693.887 215.092C692.992 212.932 691.477 211.086 689.534 209.787C687.59 208.489 685.305 207.795 682.967 207.795C679.833 207.799 676.829 209.045 674.613 211.261C672.397 213.477 671.151 216.481 671.147 219.615Z" fill="#EBEBEB"/>
<path d="M1164.34 158.271C1164.34 161.051 1163.51 163.768 1161.97 166.079C1160.42 168.39 1158.23 170.191 1155.66 171.254C1153.09 172.317 1150.27 172.595 1147.54 172.052C1144.81 171.508 1142.31 170.169 1140.35 168.202C1138.38 166.236 1137.04 163.731 1136.5 161.004C1135.96 158.277 1136.24 155.452 1137.31 152.884C1138.37 150.317 1140.18 148.123 1142.49 146.581C1144.8 145.039 1147.52 144.217 1150.3 144.22C1154.02 144.223 1157.59 145.705 1160.23 148.34C1162.86 150.975 1164.34 154.547 1164.34 158.271ZM1138.48 158.271C1138.48 160.608 1139.18 162.892 1140.48 164.834C1141.78 166.776 1143.63 168.289 1145.79 169.181C1147.95 170.074 1150.32 170.306 1152.61 169.848C1154.91 169.391 1157.01 168.264 1158.66 166.61C1160.31 164.957 1161.44 162.851 1161.89 160.558C1162.35 158.266 1162.11 155.89 1161.22 153.731C1160.32 151.572 1158.81 149.727 1156.87 148.429C1154.92 147.131 1152.64 146.438 1150.3 146.438C1147.16 146.441 1144.16 147.69 1141.94 149.908C1139.73 152.127 1138.48 155.135 1138.48 158.271Z" fill="#EBEBEB"/>
<path d="M1159.31 491.854C1159.31 494.634 1158.49 497.352 1156.95 499.664C1155.41 501.977 1153.21 503.78 1150.64 504.846C1148.08 505.911 1145.25 506.192 1142.53 505.651C1139.8 505.11 1137.29 503.773 1135.33 501.809C1133.36 499.844 1132.02 497.34 1131.48 494.614C1130.93 491.888 1131.21 489.062 1132.28 486.494C1133.34 483.926 1135.14 481.73 1137.45 480.186C1139.76 478.641 1142.48 477.817 1145.26 477.817C1148.98 477.82 1152.55 479.3 1155.19 481.931C1157.82 484.563 1159.3 488.131 1159.31 491.854ZM1133.44 491.854C1133.44 494.192 1134.13 496.477 1135.43 498.421C1136.73 500.365 1138.58 501.88 1140.73 502.774C1142.89 503.669 1145.27 503.903 1147.56 503.447C1149.86 502.991 1151.96 501.865 1153.62 500.212C1155.27 498.559 1156.39 496.453 1156.85 494.16C1157.31 491.867 1157.07 489.491 1156.18 487.331C1155.28 485.171 1153.77 483.325 1151.82 482.026C1149.88 480.728 1147.6 480.034 1145.26 480.034C1142.12 480.038 1139.12 481.285 1136.9 483.5C1134.69 485.716 1133.44 488.72 1133.44 491.854Z" fill="#EBEBEB"/>
<path d="M980.595 218.21C980.595 220.989 979.771 223.706 978.227 226.017C976.683 228.327 974.488 230.128 971.921 231.192C969.353 232.255 966.528 232.534 963.802 231.991C961.077 231.449 958.573 230.111 956.608 228.146C954.643 226.181 953.304 223.677 952.762 220.951C952.22 218.226 952.498 215.4 953.562 212.833C954.625 210.265 956.426 208.071 958.737 206.527C961.048 204.983 963.765 204.159 966.544 204.159C970.269 204.162 973.841 205.644 976.475 208.278C979.11 210.913 980.591 214.484 980.595 218.21ZM954.724 218.21C954.721 220.552 955.413 222.841 956.712 224.79C958.012 226.738 959.86 228.257 962.023 229.154C964.185 230.051 966.566 230.287 968.863 229.831C971.159 229.374 973.269 228.247 974.925 226.591C976.581 224.936 977.708 222.826 978.164 220.529C978.62 218.232 978.385 215.852 977.487 213.689C976.59 211.526 975.071 209.678 973.123 208.379C971.175 207.08 968.885 206.388 966.544 206.39C963.41 206.394 960.406 207.64 958.19 209.856C955.974 212.072 954.728 215.076 954.724 218.21Z" fill="#EBEBEB"/>
<path d="M1054.45 595.959C1054.45 598.738 1053.62 601.456 1052.08 603.767C1050.53 606.078 1048.34 607.879 1045.77 608.942C1043.2 610.005 1040.38 610.282 1037.65 609.739C1034.92 609.196 1032.42 607.856 1030.46 605.89C1028.49 603.923 1027.15 601.418 1026.61 598.691C1026.07 595.965 1026.35 593.139 1027.42 590.572C1028.48 588.004 1030.29 585.811 1032.6 584.269C1034.91 582.726 1037.63 581.904 1040.41 581.907C1044.13 581.914 1047.7 583.398 1050.33 586.032C1052.96 588.666 1054.44 592.235 1054.45 595.959ZM1028.59 595.959C1028.59 598.296 1029.28 600.582 1030.58 602.525C1031.88 604.469 1033.73 605.984 1035.89 606.879C1038.05 607.773 1040.42 608.007 1042.72 607.551C1045.01 607.095 1047.11 605.969 1048.77 604.316C1050.42 602.663 1051.55 600.557 1052 598.264C1052.46 595.972 1052.22 593.595 1051.33 591.435C1050.44 589.276 1048.92 587.43 1046.98 586.131C1045.03 584.832 1042.75 584.139 1040.41 584.139C1037.27 584.139 1034.27 585.384 1032.05 587.6C1029.83 589.816 1028.58 592.823 1028.58 595.959L1028.59 595.959Z" fill="#EBEBEB"/>
<path d="M1132.53 25.8436C1132.52 28.6216 1131.69 31.3355 1130.15 33.6426C1128.6 35.9498 1126.4 37.7465 1123.84 38.8058C1121.27 39.8651 1118.44 40.1394 1115.72 39.5941C1113 39.0488 1110.49 37.7084 1108.53 35.7422C1106.57 33.776 1105.23 31.2722 1104.69 28.5473C1104.15 25.8223 1104.43 22.9984 1105.5 20.4325C1106.56 17.8665 1108.36 15.6736 1110.67 14.1309C1112.98 12.5881 1115.7 11.7647 1118.48 11.7647C1122.21 11.772 1125.78 13.2585 1128.42 15.898C1131.05 18.5376 1132.53 22.1144 1132.53 25.8436ZM1106.66 25.8436C1106.66 28.1814 1107.35 30.4666 1108.65 32.4103C1109.95 34.354 1111.79 35.869 1113.95 36.7636C1116.11 37.6582 1118.49 37.8923 1120.78 37.4362C1123.08 36.9802 1125.18 35.8545 1126.84 34.2014C1128.49 32.5484 1129.61 30.4423 1130.07 28.1495C1130.53 25.8567 1130.29 23.4802 1129.4 21.3204C1128.5 19.1607 1126.99 17.3147 1125.04 16.0159C1123.1 14.7171 1120.82 14.0239 1118.48 14.0239C1115.34 14.0276 1112.34 15.274 1110.12 17.4899C1107.91 19.7057 1106.66 22.71 1106.66 25.8436Z" fill="#EBEBEB"/>
<path d="M717.393 599.595C717.396 602.375 716.574 605.093 715.032 607.406C713.489 609.718 711.296 611.521 708.728 612.587C706.161 613.653 703.335 613.933 700.609 613.392C697.882 612.852 695.377 611.514 693.411 609.55C691.444 607.585 690.104 605.082 689.561 602.356C689.018 599.629 689.295 596.804 690.358 594.235C691.421 591.667 693.222 589.471 695.534 587.927C697.845 586.382 700.562 585.558 703.342 585.558C707.065 585.561 710.634 587.041 713.268 589.672C715.902 592.304 717.386 595.872 717.393 599.595ZM691.522 599.595C691.522 601.933 692.215 604.218 693.514 606.162C694.813 608.106 696.659 609.621 698.818 610.515C700.978 611.41 703.355 611.644 705.647 611.188C707.94 610.732 710.046 609.606 711.699 607.953C713.352 606.3 714.478 604.194 714.934 601.901C715.39 599.609 715.156 597.232 714.261 595.072C713.367 592.912 711.852 591.066 709.908 589.768C707.964 588.469 705.679 587.776 703.342 587.776C700.209 587.783 697.207 589.031 694.992 591.246C692.777 593.461 691.529 596.463 691.522 599.595Z" fill="#EBEBEB"/>
<path d="M670.128 68.5626C670.12 71.3399 669.289 74.0525 667.74 76.3578C666.191 78.6631 663.993 80.4576 661.425 81.5148C658.857 82.572 656.033 82.8444 653.31 82.2976C650.587 81.7507 648.087 80.4092 646.126 78.4425C644.165 76.4757 642.831 73.9719 642.292 71.2474C641.753 68.5228 642.034 65.6996 643.099 63.1345C644.163 60.5693 645.964 58.3772 648.274 56.8351C650.584 55.2929 653.299 54.4698 656.076 54.4698C659.808 54.4771 663.384 55.9655 666.019 58.608C668.654 61.2506 670.132 64.831 670.128 68.5626ZM644.257 68.5626C644.257 70.9003 644.95 73.1855 646.249 75.1292C647.548 77.073 649.394 78.5879 651.553 79.4825C653.713 80.3771 656.09 80.6112 658.382 80.1551C660.675 79.6991 662.781 78.5733 664.434 76.9203C666.087 75.2673 667.213 73.1612 667.669 70.8684C668.125 68.5756 667.891 66.1991 666.996 64.0393C666.102 61.8796 664.587 60.0336 662.643 58.7348C660.699 57.436 658.414 56.7428 656.076 56.7428C654.522 56.741 652.983 57.0453 651.547 57.6383C650.111 58.2314 648.805 59.1015 647.705 60.199C646.605 61.2966 645.732 62.6001 645.135 64.0351C644.539 65.4701 644.231 67.0086 644.229 68.5626L644.257 68.5626Z" fill="#EBEBEB"/>
<path d="M718.922 429.959C718.922 432.737 718.099 435.453 716.556 437.763C715.013 440.073 712.82 441.874 710.254 442.938C707.688 444.003 704.864 444.283 702.14 443.743C699.415 443.203 696.911 441.867 694.945 439.905C692.978 437.942 691.638 435.441 691.093 432.717C690.547 429.993 690.822 427.169 691.881 424.601C692.94 422.033 694.737 419.837 697.044 418.289C699.351 416.742 702.065 415.913 704.843 415.908C706.691 415.904 708.521 416.265 710.229 416.969C711.937 417.674 713.489 418.708 714.797 420.014C716.105 421.319 717.142 422.869 717.85 424.576C718.558 426.282 718.922 428.112 718.922 429.959ZM693.065 429.959C693.062 432.299 693.754 434.587 695.053 436.534C696.352 438.48 698.199 439.997 700.361 440.893C702.523 441.788 704.902 442.022 707.197 441.564C709.492 441.106 711.599 439.978 713.252 438.321C714.905 436.664 716.029 434.554 716.481 432.258C716.934 429.963 716.694 427.584 715.794 425.424C714.893 423.264 713.372 421.42 711.422 420.126C709.473 418.832 707.183 418.145 704.843 418.153C701.718 418.164 698.724 419.412 696.517 421.625C694.31 423.837 693.068 426.834 693.065 429.959Z" fill="#EBEBEB"/>
<path d="M1223.02 403.11C1223.03 405.893 1222.2 408.613 1220.66 410.927C1219.11 413.241 1216.91 415.044 1214.34 416.108C1211.77 417.172 1208.94 417.448 1206.21 416.902C1203.48 416.355 1200.98 415.011 1199.02 413.04C1197.05 411.068 1195.72 408.558 1195.18 405.828C1194.65 403.097 1194.93 400.269 1196.01 397.702C1197.08 395.135 1198.89 392.944 1201.21 391.408C1203.53 389.871 1206.26 389.059 1209.04 389.072C1212.75 389.09 1216.31 390.577 1218.93 393.207C1221.55 395.837 1223.02 399.398 1223.02 403.11ZM1197.15 403.11C1197.15 405.445 1197.84 407.727 1199.14 409.669C1200.43 411.612 1202.28 413.127 1204.43 414.023C1206.59 414.92 1208.96 415.158 1211.25 414.707C1213.54 414.257 1215.65 413.138 1217.31 411.492C1218.96 409.846 1220.09 407.746 1220.56 405.458C1221.02 403.17 1220.8 400.795 1219.91 398.634C1219.03 396.473 1217.52 394.623 1215.59 393.316C1213.65 392.009 1211.38 391.304 1209.04 391.29C1207.48 391.283 1205.94 391.583 1204.5 392.174C1203.06 392.764 1201.75 393.634 1200.64 394.732C1199.54 395.83 1198.66 397.135 1198.06 398.573C1197.46 400.011 1197.15 401.552 1197.15 403.11Z" fill="#EBEBEB"/>
<path d="M1388.8 150.653C1389.86 150.653 1390.89 150.967 1391.77 151.554C1392.65 152.141 1393.34 152.976 1393.74 153.953C1394.14 154.929 1394.25 156.004 1394.04 157.041C1393.84 158.078 1393.33 159.03 1392.58 159.778C1391.83 160.525 1390.88 161.034 1389.84 161.24C1388.81 161.447 1387.73 161.341 1386.76 160.936C1385.78 160.532 1384.95 159.847 1384.36 158.968C1383.77 158.089 1383.46 157.055 1383.46 155.998C1383.46 154.581 1384.02 153.221 1385.02 152.219C1386.02 151.216 1387.38 150.653 1388.8 150.653Z" fill="#EBEBEB"/>
<path d="M1411.55 -5.41739e-05C1412.61 -5.42202e-05 1413.64 0.314229 1414.52 0.903063C1415.4 1.4919 1416.09 2.32884 1416.5 3.30804C1416.9 4.28724 1417.01 5.3647 1416.8 6.40421C1416.6 7.44372 1416.08 8.39859 1415.34 9.14803C1414.59 9.89748 1413.63 10.4079 1412.59 10.6146C1411.55 10.8214 1410.47 10.7153 1409.5 10.3097C1408.52 9.90406 1407.68 9.21723 1407.09 8.33598C1406.5 7.45472 1406.19 6.41866 1406.19 5.35878C1406.19 3.93754 1406.75 2.57451 1407.76 1.56953C1408.76 0.564561 1410.12 -5.41118e-05 1411.55 -5.41739e-05Z" fill="#EBEBEB"/>
<path d="M1315.45 571.451C1316.51 571.451 1317.54 571.766 1318.42 572.354C1319.3 572.943 1319.99 573.78 1320.4 574.759C1320.8 575.739 1320.91 576.816 1320.7 577.856C1320.49 578.895 1319.98 579.85 1319.23 580.599C1318.49 581.349 1317.53 581.859 1316.49 582.066C1315.45 582.273 1314.37 582.167 1313.39 581.761C1312.42 581.355 1311.58 580.669 1310.99 579.787C1310.4 578.906 1310.09 577.87 1310.09 576.81C1310.09 575.389 1310.65 574.026 1311.66 573.021C1312.66 572.016 1314.02 571.451 1315.45 571.451Z" fill="#EBEBEB"/>
<path d="M1896.66 197.739C1897.72 197.736 1898.76 198.048 1899.64 198.635C1900.53 199.223 1901.22 200.059 1901.62 201.038C1902.03 202.016 1902.14 203.094 1901.94 204.135C1901.73 205.175 1901.22 206.131 1900.47 206.882C1899.72 207.633 1898.77 208.145 1897.73 208.353C1896.69 208.561 1895.61 208.455 1894.63 208.05C1893.65 207.645 1892.81 206.958 1892.22 206.076C1891.63 205.195 1891.32 204.158 1891.32 203.098C1891.32 201.679 1891.88 200.318 1892.88 199.313C1893.89 198.309 1895.24 197.743 1896.66 197.739Z" fill="#EBEBEB"/>
<path d="M1907.35 6.44718C1908.41 6.45266 1909.45 6.77262 1910.33 7.36661C1911.21 7.96059 1911.89 8.80188 1912.29 9.78394C1912.69 10.766 1912.79 11.8447 1912.58 12.8835C1912.36 13.9223 1911.85 14.8745 1911.09 15.6195C1910.34 16.3645 1909.38 16.8688 1908.34 17.0687C1907.29 17.2686 1906.22 17.1549 1905.24 16.7422C1904.26 16.3294 1903.43 15.6362 1902.85 14.7501C1902.27 13.8641 1901.96 12.8251 1901.97 11.7646C1901.98 10.3458 1902.55 8.98918 1903.56 7.99234C1904.57 6.9955 1905.93 6.43984 1907.35 6.44718Z" fill="#EBEBEB"/>
<path d="M1650.53 376.619C1651.59 376.619 1652.63 376.933 1653.51 377.522C1654.39 378.111 1655.08 378.948 1655.48 379.927C1655.89 380.906 1655.99 381.984 1655.79 383.023C1655.58 384.063 1655.07 385.018 1654.32 385.767C1653.57 386.516 1652.61 387.027 1651.58 387.234C1650.54 387.44 1649.46 387.334 1648.48 386.929C1647.5 386.523 1646.66 385.836 1646.07 384.955C1645.49 384.074 1645.17 383.038 1645.17 381.978C1645.17 380.557 1645.74 379.193 1646.74 378.189C1647.75 377.184 1649.11 376.619 1650.53 376.619Z" fill="#EBEBEB"/>
<path d="M1914.65 545.484C1915.71 545.484 1916.75 545.797 1917.62 546.385C1918.5 546.972 1919.19 547.807 1919.59 548.783C1920 549.76 1920.1 550.835 1919.9 551.872C1919.69 552.908 1919.18 553.861 1918.43 554.608C1917.69 555.356 1916.73 555.865 1915.7 556.071C1914.66 556.277 1913.59 556.171 1912.61 555.767C1911.63 555.362 1910.8 554.677 1910.21 553.798C1909.62 552.919 1909.31 551.886 1909.31 550.829C1909.31 549.411 1909.87 548.052 1910.88 547.049C1911.88 546.047 1913.24 545.484 1914.65 545.484Z" fill="#EBEBEB"/>
<path d="M1843.32 604.651C1843.32 601.699 1840.93 599.306 1837.98 599.306C1835.03 599.306 1832.63 601.699 1832.63 604.651C1832.63 607.603 1835.03 609.996 1837.98 609.996C1840.93 609.996 1843.32 607.603 1843.32 604.651Z" fill="#EBEBEB"/>
<path d="M1857.2 69.0171C1858.26 69.0143 1859.29 69.3263 1860.18 69.9135C1861.06 70.5007 1861.75 71.3366 1862.16 72.3156C1862.56 73.2945 1862.67 74.3725 1862.47 75.4129C1862.26 76.4533 1861.75 77.4094 1861 78.1602C1860.25 78.9111 1859.3 79.4228 1858.26 79.6307C1857.22 79.8386 1856.14 79.7333 1855.16 79.3281C1854.18 78.9229 1853.34 78.2361 1852.75 77.3545C1852.17 76.473 1851.85 75.4364 1851.85 74.3759C1851.85 72.957 1852.41 71.5961 1853.42 70.5915C1854.42 69.5869 1855.78 69.0207 1857.2 69.0171Z" fill="#EBEBEB"/>
<path d="M1334.02 284.1C1335.07 284.1 1336.11 284.414 1336.98 285.001C1337.86 285.588 1338.55 286.423 1338.95 287.4C1339.36 288.376 1339.46 289.451 1339.26 290.488C1339.05 291.525 1338.54 292.477 1337.79 293.225C1337.05 293.972 1336.09 294.481 1335.06 294.688C1334.02 294.894 1332.95 294.788 1331.97 294.383C1330.99 293.979 1330.16 293.294 1329.57 292.415C1328.98 291.536 1328.67 290.502 1328.67 289.445C1328.67 288.028 1329.23 286.668 1330.24 285.666C1331.24 284.663 1332.6 284.1 1334.02 284.1Z" fill="#EBEBEB"/>
<path d="M1421.05 319.807C1422.11 319.807 1423.14 320.121 1424.02 320.708C1424.9 321.295 1425.58 322.13 1425.99 323.107C1426.39 324.083 1426.5 325.158 1426.29 326.195C1426.09 327.232 1425.58 328.184 1424.83 328.932C1424.08 329.679 1423.13 330.188 1422.09 330.395C1421.06 330.601 1419.98 330.495 1419.01 330.09C1418.03 329.686 1417.19 329.001 1416.61 328.122C1416.02 327.243 1415.71 326.209 1415.71 325.152C1415.71 323.735 1416.27 322.375 1417.27 321.373C1418.27 320.37 1419.63 319.807 1421.05 319.807Z" fill="#EBEBEB"/>
<path d="M1557.31 591.922C1558.37 591.925 1559.4 592.241 1560.28 592.832C1561.15 593.422 1561.84 594.259 1562.24 595.238C1562.64 596.216 1562.74 597.292 1562.53 598.329C1562.32 599.365 1561.81 600.316 1561.06 601.061C1560.31 601.806 1559.35 602.312 1558.32 602.514C1557.28 602.716 1556.2 602.605 1555.23 602.196C1554.25 601.787 1553.42 601.098 1552.84 600.215C1552.25 599.333 1551.94 598.297 1551.95 597.24C1551.96 595.824 1552.53 594.47 1553.53 593.473C1554.53 592.476 1555.89 591.919 1557.31 591.922Z" fill="#EBEBEB"/>
<path d="M1329.04 463.159C1330.1 463.159 1331.14 463.473 1332.02 464.062C1332.9 464.651 1333.59 465.488 1333.99 466.467C1334.4 467.446 1334.5 468.524 1334.3 469.563C1334.09 470.603 1333.58 471.558 1332.83 472.307C1332.08 473.056 1331.13 473.567 1330.09 473.774C1329.05 473.98 1327.97 473.874 1326.99 473.469C1326.01 473.063 1325.18 472.376 1324.59 471.495C1324 470.614 1323.68 469.578 1323.68 468.518C1323.68 467.097 1324.25 465.734 1325.25 464.729C1326.26 463.724 1327.62 463.159 1329.04 463.159Z" fill="#EBEBEB"/>
<path d="M1592.99 13.5279C1594.05 13.5251 1595.09 13.8371 1595.97 14.4243C1596.85 15.0115 1597.54 15.8474 1597.95 16.8264C1598.36 17.8053 1598.46 18.8833 1598.26 19.9237C1598.05 20.9641 1597.54 21.9202 1596.8 22.671C1596.05 23.4219 1595.09 23.9336 1594.05 24.1415C1593.01 24.3494 1591.93 24.2441 1590.95 23.8389C1589.97 23.4337 1589.14 22.7469 1588.55 21.8653C1587.96 20.9838 1587.64 19.9472 1587.64 18.8867C1587.64 17.4678 1588.21 16.1069 1589.21 15.1023C1590.21 14.0977 1591.57 13.5315 1592.99 13.5279Z" fill="#EBEBEB"/>
<path d="M1370.65 219.615C1370.65 222.395 1369.82 225.112 1368.28 227.423C1366.73 229.734 1364.54 231.535 1361.97 232.598C1359.4 233.661 1356.57 233.939 1353.85 233.395C1351.12 232.852 1348.62 231.513 1346.65 229.546C1344.69 227.58 1343.35 225.074 1342.81 222.348C1342.27 219.621 1342.55 216.796 1343.62 214.228C1344.68 211.661 1346.48 209.467 1348.8 207.925C1351.11 206.383 1353.83 205.561 1356.61 205.564C1360.33 205.571 1363.9 207.054 1366.53 209.688C1369.16 212.322 1370.64 215.892 1370.65 219.615ZM1344.79 219.615C1344.79 221.953 1345.48 224.238 1346.78 226.182C1348.08 228.125 1349.92 229.64 1352.08 230.535C1354.24 231.43 1356.62 231.664 1358.91 231.208C1361.21 230.752 1363.31 229.626 1364.97 227.973C1366.62 226.32 1367.74 224.214 1368.2 221.921C1368.66 219.628 1368.42 217.252 1367.53 215.092C1366.63 212.932 1365.12 211.086 1363.17 209.787C1361.23 208.489 1358.95 207.795 1356.61 207.795C1353.47 207.799 1350.47 209.045 1348.25 211.261C1346.04 213.477 1344.79 216.481 1344.79 219.615Z" fill="#EBEBEB"/>
<path d="M1837.98 158.271C1837.98 161.051 1837.15 163.768 1835.61 166.079C1834.06 168.39 1831.87 170.191 1829.3 171.254C1826.73 172.317 1823.91 172.595 1821.18 172.051C1818.45 171.508 1815.95 170.169 1813.99 168.202C1812.02 166.236 1810.68 163.731 1810.14 161.004C1809.6 158.277 1809.88 155.452 1810.95 152.884C1812.01 150.317 1813.82 148.123 1816.13 146.581C1818.44 145.039 1821.16 144.217 1823.94 144.22C1827.67 144.223 1831.24 145.705 1833.87 148.34C1836.5 150.975 1837.98 154.547 1837.98 158.271ZM1812.12 158.271C1812.12 160.608 1812.82 162.892 1814.12 164.834C1815.42 166.776 1817.27 168.289 1819.43 169.181C1821.59 170.074 1823.96 170.306 1826.26 169.848C1828.55 169.391 1830.65 168.264 1832.3 166.61C1833.96 164.957 1835.08 162.851 1835.53 160.558C1835.99 158.266 1835.75 155.89 1834.86 153.731C1833.96 151.572 1832.45 149.727 1830.51 148.429C1828.56 147.13 1826.28 146.438 1823.94 146.438C1820.8 146.441 1817.8 147.69 1815.58 149.908C1813.37 152.127 1812.12 155.135 1812.12 158.271Z" fill="#EBEBEB"/>
<path d="M1832.95 491.854C1832.95 494.634 1832.13 497.352 1830.59 499.664C1829.05 501.977 1826.85 503.78 1824.29 504.846C1821.72 505.911 1818.89 506.192 1816.17 505.651C1813.44 505.11 1810.93 503.773 1808.97 501.809C1807 499.844 1805.66 497.34 1805.12 494.614C1804.58 491.888 1804.85 489.062 1805.92 486.494C1806.98 483.926 1808.78 481.73 1811.09 480.186C1813.4 478.641 1816.12 477.817 1818.9 477.817C1822.62 477.82 1826.19 479.3 1828.83 481.931C1831.46 484.563 1832.94 488.131 1832.95 491.854ZM1807.08 491.854C1807.08 494.192 1807.77 496.477 1809.07 498.421C1810.37 500.365 1812.22 501.88 1814.38 502.774C1816.54 503.669 1818.91 503.903 1821.2 503.447C1823.5 502.991 1825.6 501.865 1827.26 500.212C1828.91 498.559 1830.04 496.453 1830.49 494.16C1830.95 491.867 1830.71 489.491 1829.82 487.331C1828.92 485.171 1827.41 483.325 1825.47 482.026C1823.52 480.728 1821.24 480.034 1818.9 480.034C1815.77 480.038 1812.76 481.285 1810.55 483.5C1808.33 485.716 1807.08 488.72 1807.08 491.854Z" fill="#EBEBEB"/>
<path d="M1654.24 218.21C1654.24 220.989 1653.41 223.706 1651.87 226.017C1650.32 228.327 1648.13 230.128 1645.56 231.192C1642.99 232.255 1640.17 232.534 1637.44 231.992C1634.72 231.449 1632.21 230.111 1630.25 228.146C1628.28 226.181 1626.95 223.677 1626.4 220.951C1625.86 218.226 1626.14 215.4 1627.2 212.833C1628.27 210.265 1630.07 208.071 1632.38 206.527C1634.69 204.983 1637.41 204.159 1640.18 204.159C1643.91 204.162 1647.48 205.644 1650.12 208.278C1652.75 210.913 1654.23 214.485 1654.24 218.21ZM1628.36 218.21C1628.36 220.552 1629.05 222.842 1630.35 224.79C1631.65 226.738 1633.5 228.257 1635.66 229.154C1637.83 230.051 1640.21 230.287 1642.5 229.831C1644.8 229.375 1646.91 228.247 1648.57 226.591C1650.22 224.936 1651.35 222.826 1651.8 220.529C1652.26 218.232 1652.03 215.852 1651.13 213.689C1650.23 211.526 1648.71 209.678 1646.76 208.379C1644.82 207.08 1642.53 206.388 1640.18 206.39C1637.05 206.394 1634.05 207.641 1631.83 209.856C1629.61 212.072 1628.37 215.076 1628.36 218.21Z" fill="#EBEBEB"/>
<path d="M1728.09 595.959C1728.09 598.738 1727.26 601.455 1725.72 603.766C1724.17 606.078 1721.98 607.879 1719.41 608.942C1716.84 610.005 1714.02 610.282 1711.29 609.739C1708.56 609.196 1706.06 607.856 1704.1 605.889C1702.13 603.923 1700.79 601.418 1700.25 598.691C1699.71 595.965 1699.99 593.139 1701.06 590.572C1702.12 588.004 1703.93 585.811 1706.24 584.269C1708.55 582.726 1711.27 581.904 1714.05 581.907C1717.77 581.914 1721.34 583.398 1723.97 586.032C1726.6 588.666 1728.08 592.235 1728.09 595.959ZM1702.23 595.959C1702.23 598.296 1702.92 600.581 1704.22 602.525C1705.52 604.469 1707.37 605.984 1709.53 606.879C1711.69 607.773 1714.06 608.007 1716.36 607.551C1718.65 607.095 1720.76 605.969 1722.41 604.316C1724.06 602.663 1725.19 600.557 1725.64 598.264C1726.1 595.972 1725.87 593.595 1724.97 591.435C1724.08 589.276 1722.56 587.43 1720.62 586.131C1718.67 584.832 1716.39 584.139 1714.05 584.139C1710.91 584.139 1707.91 585.384 1705.69 587.6C1703.47 589.816 1702.22 592.822 1702.22 595.959L1702.23 595.959Z" fill="#EBEBEB"/>
<path d="M1806.17 25.8436C1806.16 28.6215 1805.34 31.3355 1803.79 33.6426C1802.24 35.9497 1800.04 37.7464 1797.48 38.8057C1794.91 39.865 1792.08 40.1393 1789.36 39.5941C1786.64 39.0488 1784.14 37.7083 1782.17 35.7421C1780.21 33.7759 1778.88 31.2722 1778.34 28.5472C1777.8 25.8223 1778.08 22.9984 1779.14 20.4324C1780.2 17.8665 1782 15.6736 1784.31 14.1308C1786.63 12.588 1789.34 11.7646 1792.12 11.7646C1795.85 11.7719 1799.42 13.2584 1802.06 15.898C1804.69 18.5375 1806.17 22.1144 1806.17 25.8436ZM1780.3 25.8436C1780.3 28.1813 1780.99 30.4665 1782.29 32.4102C1783.59 34.354 1785.44 35.8689 1787.6 36.7635C1789.76 37.6582 1792.13 37.8922 1794.42 37.4362C1796.72 36.9801 1798.82 35.8544 1800.48 34.2014C1802.13 32.5484 1803.26 30.4423 1803.71 28.1495C1804.17 25.8567 1803.93 23.4801 1803.04 21.3204C1802.14 19.1606 1800.63 17.3146 1798.69 16.0159C1796.74 14.7171 1794.46 14.0239 1792.12 14.0239C1788.98 14.0275 1785.98 15.274 1783.76 17.4898C1781.55 19.7056 1780.3 22.7099 1780.3 25.8436Z" fill="#EBEBEB"/>
<path d="M1391.03 599.595C1391.04 602.375 1390.21 605.093 1388.67 607.406C1387.13 609.718 1384.94 611.521 1382.37 612.587C1379.8 613.653 1376.98 613.933 1374.25 613.392C1371.52 612.852 1369.02 611.514 1367.05 609.55C1365.08 607.585 1363.75 605.082 1363.2 602.356C1362.66 599.629 1362.94 596.803 1364 594.235C1365.06 591.667 1366.86 589.471 1369.17 587.927C1371.49 586.382 1374.2 585.558 1376.98 585.558C1380.71 585.561 1384.28 587.041 1386.91 589.672C1389.54 592.304 1391.03 595.872 1391.03 599.595ZM1365.16 599.595C1365.16 601.933 1365.86 604.218 1367.15 606.162C1368.45 608.106 1370.3 609.621 1372.46 610.515C1374.62 611.41 1377 611.644 1379.29 611.188C1381.58 610.732 1383.69 609.606 1385.34 607.953C1386.99 606.3 1388.12 604.194 1388.57 601.901C1389.03 599.608 1388.8 597.232 1387.9 595.072C1387.01 592.912 1385.49 591.066 1383.55 589.768C1381.61 588.469 1379.32 587.776 1376.98 587.776C1373.85 587.783 1370.85 589.031 1368.63 591.246C1366.42 593.461 1365.17 596.463 1365.16 599.595Z" fill="#EBEBEB"/>
<path d="M1343.77 68.5626C1343.76 71.34 1342.93 74.0525 1341.38 76.3578C1339.83 78.6631 1337.63 80.4577 1335.07 81.5149C1332.5 82.5721 1329.67 82.8445 1326.95 82.2976C1324.23 81.7508 1321.73 80.4093 1319.77 78.4425C1317.81 76.4758 1316.47 73.972 1315.93 71.2474C1315.39 68.5229 1315.67 65.6997 1316.74 63.1345C1317.8 60.5694 1319.61 58.3773 1321.91 56.8351C1324.22 55.293 1326.94 54.4699 1329.72 54.4699C1333.45 54.4772 1337.02 55.9656 1339.66 58.6081C1342.29 61.2506 1343.77 64.831 1343.77 68.5626ZM1317.9 68.5626C1317.9 70.9003 1318.59 73.1855 1319.89 75.1293C1321.19 77.073 1323.03 78.588 1325.19 79.4826C1327.35 80.3772 1329.73 80.6113 1332.02 80.1552C1334.32 79.6991 1336.42 78.5734 1338.07 76.9204C1339.73 75.2674 1340.85 73.1613 1341.31 70.8685C1341.77 68.5757 1341.53 66.1992 1340.64 64.0394C1339.74 61.8796 1338.23 60.0336 1336.28 58.7349C1334.34 57.4361 1332.05 56.7429 1329.72 56.7429C1328.16 56.7411 1326.62 57.0454 1325.19 57.6384C1323.75 58.2314 1322.45 59.1015 1321.35 60.1991C1320.25 61.2967 1319.37 62.6002 1318.78 64.0352C1318.18 65.4702 1317.87 67.0086 1317.87 68.5626L1317.9 68.5626Z" fill="#EBEBEB"/>
<path d="M1392.56 429.959C1392.56 432.737 1391.74 435.453 1390.2 437.763C1388.65 440.073 1386.46 441.874 1383.89 442.938C1381.33 444.003 1378.51 444.282 1375.78 443.743C1373.06 443.203 1370.55 441.867 1368.59 439.905C1366.62 437.942 1365.28 435.441 1364.73 432.717C1364.19 429.993 1364.46 427.169 1365.52 424.601C1366.58 422.033 1368.38 419.837 1370.68 418.289C1372.99 416.742 1375.71 415.913 1378.48 415.908C1380.33 415.904 1382.16 416.265 1383.87 416.969C1385.58 417.674 1387.13 418.708 1388.44 420.014C1389.75 421.319 1390.78 422.869 1391.49 424.576C1392.2 426.282 1392.56 428.112 1392.56 429.959ZM1366.71 429.959C1366.7 432.299 1367.39 434.587 1368.69 436.534C1369.99 438.48 1371.84 439.997 1374 440.893C1376.16 441.788 1378.54 442.022 1380.84 441.564C1383.13 441.106 1385.24 439.977 1386.89 438.321C1388.55 436.664 1389.67 434.554 1390.12 432.258C1390.57 429.963 1390.34 427.584 1389.43 425.424C1388.53 423.264 1387.01 421.42 1385.06 420.126C1383.11 418.832 1380.82 418.145 1378.48 418.153C1375.36 418.164 1372.36 419.412 1370.16 421.625C1367.95 423.837 1366.71 426.834 1366.71 429.959Z" fill="#EBEBEB"/>
<path d="M1896.66 403.11C1896.67 405.893 1895.84 408.613 1894.3 410.927C1892.75 413.241 1890.55 415.044 1887.98 416.108C1885.41 417.172 1882.58 417.448 1879.85 416.902C1877.13 416.355 1874.62 415.011 1872.66 413.04C1870.69 411.068 1869.36 408.558 1868.82 405.828C1868.29 403.097 1868.58 400.269 1869.65 397.702C1870.72 395.135 1872.53 392.944 1874.85 391.408C1877.17 389.871 1879.9 389.059 1882.68 389.072C1886.39 389.09 1889.95 390.577 1892.57 393.207C1895.19 395.837 1896.66 399.398 1896.66 403.11ZM1870.79 403.11C1870.79 405.445 1871.48 407.727 1872.78 409.669C1874.08 411.612 1875.92 413.127 1878.07 414.023C1880.23 414.92 1882.6 415.158 1884.89 414.707C1887.18 414.257 1889.29 413.138 1890.95 411.492C1892.6 409.846 1893.73 407.746 1894.2 405.458C1894.66 403.17 1894.44 400.795 1893.55 398.634C1892.67 396.473 1891.16 394.623 1889.23 393.316C1887.29 392.009 1885.02 391.304 1882.68 391.29C1881.12 391.283 1879.58 391.583 1878.14 392.174C1876.7 392.764 1875.39 393.634 1874.28 394.732C1873.18 395.83 1872.3 397.135 1871.7 398.573C1871.1 400.011 1870.79 401.552 1870.79 403.11Z" fill="#EBEBEB"/>
<path d="M78.7154 811.653C79.7726 811.653 80.806 811.967 81.685 812.554C82.5639 813.141 83.249 813.976 83.6536 814.953C84.0581 815.929 84.164 817.004 83.9577 818.041C83.7515 819.078 83.2424 820.03 82.4949 820.778C81.7474 821.525 80.795 822.034 79.7582 822.24C78.7213 822.447 77.6466 822.341 76.6699 821.936C75.6933 821.532 74.8585 820.847 74.2712 819.968C73.6838 819.089 73.3704 818.055 73.3704 816.998C73.3704 815.581 73.9335 814.221 74.9359 813.219C75.9383 812.216 77.2978 811.653 78.7154 811.653Z" fill="#EBEBEB"/>
<path d="M101.46 661C102.519 661 103.555 661.314 104.437 661.903C105.318 662.492 106.005 663.329 106.41 664.308C106.816 665.287 106.922 666.365 106.715 667.404C106.509 668.444 105.998 669.399 105.249 670.148C104.499 670.898 103.544 671.408 102.505 671.615C101.465 671.821 100.388 671.715 99.4088 671.31C98.4296 670.904 97.5927 670.217 97.0038 669.336C96.415 668.455 96.1007 667.419 96.1007 666.359C96.1007 664.938 96.6653 663.575 97.6703 662.57C98.6752 661.565 100.038 661 101.46 661Z" fill="#EBEBEB"/>
<path d="M586.577 858.739C587.638 858.736 588.675 859.048 589.558 859.636C590.441 860.223 591.13 861.059 591.538 862.038C591.946 863.017 592.054 864.095 591.848 865.135C591.643 866.175 591.134 867.131 590.385 867.882C589.636 868.633 588.681 869.145 587.641 869.353C586.602 869.561 585.523 869.455 584.543 869.05C583.563 868.645 582.726 867.958 582.136 867.077C581.547 866.195 581.232 865.158 581.232 864.098C581.232 862.679 581.795 861.318 582.797 860.314C583.799 859.309 585.158 858.743 586.577 858.739Z" fill="#EBEBEB"/>
<path d="M597.267 667.447C598.328 667.453 599.363 667.773 600.241 668.367C601.12 668.961 601.802 669.802 602.202 670.784C602.602 671.766 602.702 672.845 602.489 673.884C602.276 674.922 601.759 675.875 601.004 676.62C600.25 677.365 599.291 677.869 598.25 678.069C597.208 678.269 596.131 678.155 595.154 677.742C594.177 677.329 593.345 676.636 592.762 675.75C592.179 674.864 591.873 673.825 591.881 672.765C591.892 671.346 592.465 669.989 593.475 668.992C594.484 667.996 595.848 667.44 597.267 667.447Z" fill="#EBEBEB"/>
<path d="M340.443 1037.62C341.503 1037.62 342.539 1037.93 343.421 1038.52C344.302 1039.11 344.989 1039.95 345.394 1040.93C345.8 1041.91 345.906 1042.98 345.699 1044.02C345.493 1045.06 344.982 1046.02 344.233 1046.77C343.483 1047.52 342.528 1048.03 341.489 1048.23C340.449 1048.44 339.372 1048.33 338.393 1047.93C337.413 1047.52 336.577 1046.84 335.988 1045.96C335.399 1045.07 335.085 1044.04 335.085 1042.98C335.085 1041.56 335.649 1040.19 336.654 1039.19C337.659 1038.18 339.022 1037.62 340.443 1037.62Z" fill="#EBEBEB"/>
<path d="M547.109 730.017C548.17 730.014 549.207 730.326 550.09 730.914C550.973 731.501 551.662 732.337 552.07 733.316C552.478 734.295 552.586 735.373 552.381 736.413C552.175 737.453 551.666 738.41 550.917 739.16C550.168 739.911 549.213 740.423 548.174 740.631C547.134 740.839 546.055 740.733 545.075 740.328C544.095 739.923 543.258 739.236 542.668 738.355C542.079 737.473 541.764 736.436 541.764 735.376C541.764 733.957 542.327 732.596 543.329 731.592C544.331 730.587 545.69 730.021 547.109 730.017Z" fill="#EBEBEB"/>
<path d="M23.9288 945.1C24.9859 945.1 26.0193 945.414 26.8983 946.001C27.7773 946.588 28.4624 947.423 28.867 948.4C29.2715 949.376 29.3774 950.451 29.1711 951.488C28.9649 952.525 28.4558 953.477 27.7083 954.225C26.9608 954.972 26.0084 955.481 24.9716 955.688C23.9347 955.894 22.86 955.788 21.8833 955.383C20.9066 954.979 20.0719 954.294 19.4845 953.415C18.8972 952.536 18.5837 951.502 18.5837 950.445C18.5837 949.028 19.1469 947.668 20.1493 946.666C21.1517 945.663 22.5112 945.1 23.9288 945.1Z" fill="#EBEBEB"/>
<path d="M110.965 980.807C112.022 980.807 113.055 981.121 113.934 981.708C114.813 982.295 115.498 983.13 115.903 984.107C116.307 985.084 116.413 986.158 116.207 987.195C116.001 988.232 115.492 989.184 114.744 989.932C113.997 990.679 113.044 991.188 112.007 991.395C110.971 991.601 109.896 991.495 108.919 991.09C107.943 990.686 107.108 990.001 106.52 989.122C105.933 988.243 105.62 987.209 105.62 986.152C105.62 984.735 106.183 983.375 107.185 982.373C108.188 981.37 109.547 980.807 110.965 980.807Z" fill="#EBEBEB"/>
<path d="M282.902 674.528C283.962 674.525 284.999 674.837 285.883 675.424C286.766 676.011 287.455 676.847 287.862 677.826C288.27 678.805 288.378 679.883 288.173 680.924C287.968 681.964 287.458 682.92 286.709 683.671C285.961 684.422 285.006 684.934 283.966 685.141C282.926 685.349 281.848 685.244 280.868 684.839C279.888 684.434 279.05 683.747 278.461 682.865C277.871 681.984 277.557 680.947 277.557 679.887C277.557 678.468 278.119 677.107 279.121 676.102C280.123 675.098 281.483 674.532 282.902 674.528Z" fill="#EBEBEB"/>
<path d="M60.5587 880.615C60.5587 883.395 59.7343 886.112 58.1897 888.423C56.6451 890.734 54.4498 892.535 51.8814 893.598C49.313 894.661 46.4871 894.939 43.761 894.396C41.0349 893.852 38.5312 892.513 36.5666 890.546C34.6021 888.58 33.2649 886.075 32.7243 883.348C32.1836 880.621 32.4639 877.796 33.5295 875.228C34.5951 872.661 36.3983 870.467 38.7108 868.925C41.0234 867.383 43.7414 866.561 46.5211 866.564C50.2443 866.571 53.8127 868.054 56.444 870.688C59.0754 873.322 60.5551 876.892 60.5587 880.615ZM34.7014 880.615C34.7014 882.953 35.3946 885.238 36.6934 887.182C37.9922 889.126 39.8381 890.641 41.9979 891.535C44.1577 892.43 46.5342 892.664 48.827 892.208C51.1198 891.752 53.2259 890.626 54.8789 888.973C56.5319 887.32 57.6577 885.214 58.1137 882.921C58.5698 880.628 58.3357 878.252 57.4411 876.092C56.5465 873.932 55.0315 872.086 53.0878 870.787C51.1441 869.489 48.8588 868.795 46.5211 868.795C43.3875 868.799 40.3832 870.046 38.1673 872.261C35.9515 874.477 34.7051 877.481 34.7014 880.615Z" fill="#EBEBEB"/>
<path d="M527.892 819.271C527.892 822.051 527.067 824.768 525.523 827.079C523.978 829.39 521.783 831.191 519.214 832.254C516.646 833.317 513.82 833.595 511.094 833.052C508.368 832.508 505.864 831.169 503.9 829.202C501.935 827.236 500.598 824.731 500.057 822.004C499.517 819.277 499.797 816.452 500.863 813.884C501.928 811.317 503.731 809.124 506.044 807.581C508.356 806.039 511.074 805.217 513.854 805.22C517.578 805.223 521.149 806.705 523.781 809.34C526.413 811.975 527.892 815.547 527.892 819.271ZM502.034 819.271C502.037 821.608 502.733 823.892 504.033 825.834C505.334 827.776 507.18 829.289 509.34 830.181C511.501 831.074 513.877 831.306 516.169 830.848C518.46 830.391 520.565 829.264 522.217 827.61C523.868 825.957 524.993 823.851 525.448 821.558C525.903 819.266 525.668 816.89 524.773 814.731C523.878 812.572 522.363 810.727 520.419 809.429C518.476 808.131 516.191 807.438 513.854 807.438C510.718 807.441 507.712 808.69 505.496 810.909C503.279 813.127 502.034 816.135 502.034 819.271Z" fill="#EBEBEB"/>
<path d="M344.149 879.21C344.149 881.989 343.325 884.706 341.781 887.017C340.237 889.327 338.043 891.128 335.475 892.192C332.907 893.255 330.082 893.534 327.356 892.992C324.631 892.449 322.127 891.111 320.162 889.146C318.197 887.181 316.859 884.677 316.316 881.951C315.774 879.226 316.052 876.4 317.116 873.833C318.179 871.265 319.98 869.071 322.291 867.527C324.602 865.983 327.319 865.159 330.098 865.159C333.823 865.162 337.395 866.644 340.03 869.278C342.664 871.913 344.146 875.485 344.149 879.21ZM318.278 879.21C318.275 881.552 318.967 883.842 320.267 885.79C321.566 887.738 323.414 889.257 325.577 890.154C327.74 891.051 330.12 891.287 332.417 890.831C334.714 890.375 336.823 889.247 338.479 887.591C340.135 885.936 341.262 883.826 341.718 881.529C342.174 879.232 341.939 876.852 341.042 874.689C340.144 872.526 338.625 870.678 336.677 869.379C334.729 868.08 332.439 867.388 330.098 867.39C326.964 867.394 323.96 868.641 321.744 870.856C319.528 873.072 318.282 876.076 318.278 879.21Z" fill="#EBEBEB"/>
<path d="M496.083 686.844C496.078 689.622 495.249 692.336 493.702 694.643C492.154 696.95 489.958 698.746 487.39 699.806C484.822 700.865 481.998 701.139 479.274 700.594C476.55 700.049 474.049 698.708 472.086 696.742C470.124 694.776 468.788 692.272 468.248 689.547C467.709 686.822 467.988 683.998 469.053 681.432C470.117 678.867 471.918 676.674 474.228 675.131C476.538 673.588 479.254 672.765 482.032 672.765C485.761 672.772 489.335 674.258 491.969 676.898C494.604 679.538 496.083 683.114 496.083 686.844ZM470.212 686.844C470.212 689.181 470.905 691.467 472.204 693.41C473.503 695.354 475.349 696.869 477.509 697.764C479.668 698.658 482.045 698.892 484.338 698.436C486.631 697.98 488.737 696.854 490.39 695.201C492.043 693.548 493.168 691.442 493.624 689.15C494.081 686.857 493.846 684.48 492.952 682.32C492.057 680.161 490.542 678.315 488.599 677.016C486.655 675.717 484.37 675.024 482.032 675.024C478.898 675.028 475.894 676.274 473.678 678.49C471.462 680.706 470.216 683.71 470.212 686.844Z" fill="#EBEBEB"/>
<path d="M33.6821 729.563C33.6739 732.34 32.8429 735.053 31.2939 737.358C29.745 739.663 27.5476 741.458 24.9794 742.515C22.4111 743.572 19.5871 743.845 16.8642 743.298C14.1412 742.751 11.6413 741.409 9.68033 739.443C7.71934 737.476 6.38517 734.972 5.84634 732.247C5.3075 729.523 5.58817 726.7 6.65289 724.135C7.71761 721.569 9.51863 719.377 11.8285 717.835C14.1383 716.293 16.8533 715.47 19.6307 715.47C23.3623 715.477 26.9383 716.966 29.5731 719.608C32.2078 722.251 33.6858 725.831 33.6821 729.563ZM7.81098 729.563C7.81098 731.9 8.5042 734.186 9.80297 736.129C11.1017 738.073 12.9477 739.588 15.1075 740.483C17.2673 741.377 19.6438 741.611 21.9366 741.155C24.2294 740.699 26.3355 739.573 27.9885 737.92C29.6415 736.267 30.7672 734.161 31.2233 731.869C31.6794 729.576 31.4453 727.199 30.5507 725.039C29.6561 722.88 28.1411 721.034 26.1974 719.735C24.2536 718.436 21.9684 717.743 19.6307 717.743C18.0767 717.741 16.5376 718.045 15.1012 718.638C13.6648 719.231 12.3592 720.102 11.2591 721.199C10.159 722.297 9.28583 723.6 8.68947 725.035C8.09311 726.47 7.78524 728.009 7.78343 729.563L7.81098 729.563Z" fill="#EBEBEB"/>
<path d="M82.4762 1090.96C82.4762 1093.74 81.6528 1096.45 80.11 1098.76C78.5673 1101.07 76.3744 1102.87 73.8084 1103.94C71.2425 1105 68.4186 1105.28 65.6936 1104.74C62.9687 1104.2 60.4649 1102.87 58.4987 1100.9C56.5325 1098.94 55.1921 1096.44 54.6468 1093.72C54.1015 1090.99 54.3758 1088.17 55.4351 1085.6C56.4944 1083.03 58.2911 1080.84 60.5983 1079.29C62.9054 1077.74 65.6193 1076.91 68.3973 1076.91C70.2448 1076.9 72.075 1077.26 73.783 1077.97C75.491 1078.67 77.0432 1079.71 78.3509 1081.01C79.6586 1082.32 80.6961 1083.87 81.404 1085.58C82.1119 1087.28 82.4762 1089.11 82.4762 1090.96ZM56.6189 1090.96C56.6162 1093.3 57.3081 1095.59 58.6071 1097.53C59.906 1099.48 61.7535 1101 63.9154 1101.89C66.0774 1102.79 68.4565 1103.02 70.7513 1102.56C73.0461 1102.11 75.1534 1100.98 76.8061 1099.32C78.4589 1097.66 79.5827 1095.55 80.0352 1093.26C80.4877 1090.96 80.2485 1088.58 79.348 1086.42C78.4475 1084.26 76.9261 1082.42 74.9766 1081.13C73.0271 1079.83 70.7373 1079.15 68.3973 1079.15C65.272 1079.16 62.2783 1080.41 60.071 1082.62C57.8637 1084.84 56.6225 1087.83 56.6189 1090.96Z" fill="#EBEBEB"/>
<path d="M586.577 1064.11C586.58 1066.89 585.756 1069.61 584.211 1071.93C582.666 1074.24 580.468 1076.04 577.897 1077.11C575.325 1078.17 572.496 1078.45 569.768 1077.9C567.039 1077.36 564.534 1076.01 562.571 1074.04C560.607 1072.07 559.273 1069.56 558.737 1066.83C558.202 1064.1 558.489 1061.27 559.563 1058.7C560.636 1056.13 562.448 1053.94 564.768 1052.41C567.088 1050.87 569.812 1050.06 572.595 1050.07C576.307 1050.09 579.861 1051.58 582.481 1054.21C585.101 1056.84 586.574 1060.4 586.577 1064.11ZM560.706 1064.11C560.706 1066.44 561.398 1068.73 562.693 1070.67C563.989 1072.61 565.831 1074.13 567.987 1075.02C570.143 1075.92 572.516 1076.16 574.807 1075.71C577.097 1075.26 579.204 1074.14 580.859 1072.49C582.515 1070.85 583.646 1068.75 584.11 1066.46C584.574 1064.17 584.35 1061.8 583.465 1059.63C582.581 1057.47 581.077 1055.62 579.143 1054.32C577.208 1053.01 574.929 1052.3 572.595 1052.29C571.037 1052.28 569.494 1052.58 568.053 1053.17C566.611 1053.76 565.301 1054.63 564.196 1055.73C563.092 1056.83 562.215 1058.14 561.616 1059.57C561.017 1061.01 560.708 1062.55 560.706 1064.11Z" fill="#EBEBEB"/>
<path d="M715.161 811.653C716.218 811.653 717.252 811.967 718.131 812.554C719.01 813.141 719.695 813.976 720.099 814.953C720.504 815.929 720.61 817.004 720.404 818.041C720.197 819.078 719.688 820.03 718.941 820.778C718.193 821.525 717.241 822.034 716.204 822.24C715.167 822.447 714.092 822.341 713.116 821.936C712.139 821.532 711.304 820.847 710.717 819.968C710.13 819.089 709.816 818.055 709.816 816.998C709.816 815.581 710.379 814.221 711.382 813.219C712.384 812.216 713.744 811.653 715.161 811.653Z" fill="#EBEBEB"/>
<path d="M737.905 661C738.965 661 740.001 661.314 740.882 661.903C741.764 662.492 742.451 663.329 742.856 664.308C743.262 665.287 743.368 666.365 743.161 667.404C742.954 668.444 742.444 669.399 741.695 670.148C740.945 670.898 739.99 671.408 738.951 671.615C737.911 671.821 736.834 671.715 735.855 671.31C734.875 670.904 734.038 670.217 733.45 669.336C732.861 668.455 732.546 667.419 732.546 666.359C732.546 664.938 733.111 663.575 734.116 662.57C735.121 661.565 736.484 661 737.905 661Z" fill="#EBEBEB"/>
<path d="M1223.02 858.739C1224.08 858.736 1225.12 859.048 1226 859.636C1226.89 860.223 1227.58 861.059 1227.98 862.038C1228.39 863.017 1228.5 864.095 1228.29 865.135C1228.09 866.175 1227.58 867.131 1226.83 867.882C1226.08 868.633 1225.13 869.145 1224.09 869.353C1223.05 869.561 1221.97 869.455 1220.99 869.05C1220.01 868.645 1219.17 867.958 1218.58 867.077C1217.99 866.195 1217.68 865.158 1217.68 864.098C1217.68 862.679 1218.24 861.318 1219.24 860.314C1220.24 859.309 1221.6 858.743 1223.02 858.739Z" fill="#EBEBEB"/>
<path d="M1233.71 667.447C1234.77 667.453 1235.81 667.773 1236.69 668.367C1237.57 668.961 1238.25 669.802 1238.65 670.784C1239.05 671.766 1239.15 672.845 1238.93 673.884C1238.72 674.922 1238.2 675.874 1237.45 676.619C1236.7 677.364 1235.74 677.869 1234.7 678.069C1233.65 678.269 1232.58 678.155 1231.6 677.742C1230.62 677.329 1229.79 676.636 1229.21 675.75C1228.63 674.864 1228.32 673.825 1228.33 672.765C1228.34 671.346 1228.91 669.989 1229.92 668.992C1230.93 667.996 1232.29 667.44 1233.71 667.447Z" fill="#EBEBEB"/>
<path d="M976.889 1037.62C977.949 1037.62 978.985 1037.93 979.867 1038.52C980.748 1039.11 981.435 1039.95 981.84 1040.93C982.246 1041.91 982.352 1042.98 982.145 1044.02C981.938 1045.06 981.428 1046.02 980.679 1046.77C979.929 1047.52 978.974 1048.03 977.935 1048.23C976.895 1048.44 975.818 1048.33 974.839 1047.93C973.859 1047.52 973.022 1046.84 972.434 1045.95C971.845 1045.07 971.531 1044.04 971.531 1042.98C971.531 1041.56 972.095 1040.19 973.1 1039.19C974.105 1038.18 975.468 1037.62 976.889 1037.62Z" fill="#EBEBEB"/>
<path d="M1183.56 730.017C1184.62 730.014 1185.65 730.326 1186.54 730.914C1187.42 731.501 1188.11 732.337 1188.52 733.316C1188.92 734.295 1189.03 735.373 1188.83 736.413C1188.62 737.453 1188.11 738.409 1187.36 739.16C1186.61 739.911 1185.66 740.423 1184.62 740.631C1183.58 740.839 1182.5 740.733 1181.52 740.328C1180.54 739.923 1179.7 739.236 1179.11 738.355C1178.52 737.473 1178.21 736.436 1178.21 735.376C1178.21 733.957 1178.77 732.596 1179.77 731.592C1180.78 730.587 1182.14 730.021 1183.56 730.017Z" fill="#EBEBEB"/>
<path d="M660.375 945.1C661.432 945.1 662.465 945.414 663.344 946.001C664.223 946.588 664.908 947.423 665.313 948.4C665.717 949.376 665.823 950.451 665.617 951.488C665.411 952.525 664.902 953.477 664.154 954.225C663.407 954.972 662.454 955.481 661.417 955.688C660.38 955.894 659.306 955.788 658.329 955.383C657.352 954.979 656.518 954.294 655.93 953.415C655.343 952.536 655.03 951.502 655.03 950.445C655.03 949.028 655.593 947.668 656.595 946.666C657.597 945.663 658.957 945.1 660.375 945.1Z" fill="#EBEBEB"/>
<path d="M747.411 980.807C748.468 980.807 749.501 981.121 750.38 981.708C751.259 982.295 751.944 983.13 752.349 984.107C752.753 985.083 752.859 986.158 752.653 987.195C752.447 988.232 751.938 989.184 751.19 989.932C750.443 990.679 749.49 991.188 748.453 991.395C747.417 991.601 746.342 991.495 745.365 991.09C744.388 990.686 743.554 990.001 742.966 989.122C742.379 988.243 742.066 987.209 742.066 986.152C742.066 984.735 742.629 983.375 743.631 982.373C744.633 981.37 745.993 980.807 747.411 980.807Z" fill="#EBEBEB"/>
<path d="M919.347 674.528C920.408 674.525 921.445 674.837 922.328 675.424C923.211 676.011 923.9 676.847 924.308 677.826C924.716 678.805 924.824 679.883 924.619 680.924C924.414 681.964 923.904 682.92 923.155 683.671C922.406 684.422 921.452 684.934 920.412 685.142C919.372 685.349 918.294 685.244 917.314 684.839C916.334 684.434 915.496 683.747 914.906 682.865C914.317 681.984 914.002 680.947 914.002 679.887C914.002 678.468 914.565 677.107 915.567 676.102C916.569 675.098 917.929 674.532 919.347 674.528Z" fill="#EBEBEB"/>
<path d="M697.005 880.615C697.005 883.395 696.18 886.112 694.636 888.423C693.091 890.734 690.896 892.535 688.327 893.598C685.759 894.661 682.933 894.939 680.207 894.396C677.481 893.852 674.977 892.513 673.013 890.546C671.048 888.58 669.711 886.075 669.17 883.348C668.63 880.621 668.91 877.796 669.975 875.228C671.041 872.661 672.844 870.467 675.157 868.925C677.469 867.383 680.187 866.561 682.967 866.564C686.69 866.571 690.259 868.054 692.89 870.688C695.521 873.322 697.001 876.892 697.005 880.615ZM671.147 880.615C671.147 882.953 671.841 885.238 673.139 887.182C674.438 889.126 676.284 890.641 678.444 891.535C680.604 892.43 682.98 892.664 685.273 892.208C687.566 891.752 689.672 890.626 691.325 888.973C692.978 887.32 694.104 885.214 694.56 882.921C695.016 880.628 694.782 878.252 693.887 876.092C692.992 873.932 691.477 872.086 689.534 870.787C687.59 869.489 685.305 868.795 682.967 868.795C679.833 868.799 676.829 870.046 674.613 872.261C672.397 874.477 671.151 877.481 671.147 880.615Z" fill="#EBEBEB"/>
<path d="M1164.34 819.271C1164.34 822.051 1163.51 824.768 1161.97 827.079C1160.42 829.39 1158.23 831.191 1155.66 832.254C1153.09 833.317 1150.27 833.595 1147.54 833.052C1144.81 832.508 1142.31 831.169 1140.35 829.202C1138.38 827.236 1137.04 824.731 1136.5 822.004C1135.96 819.277 1136.24 816.452 1137.31 813.884C1138.37 811.317 1140.18 809.124 1142.49 807.581C1144.8 806.039 1147.52 805.217 1150.3 805.22C1154.02 805.223 1157.59 806.705 1160.23 809.34C1162.86 811.975 1164.34 815.547 1164.34 819.271ZM1138.48 819.271C1138.48 821.608 1139.18 823.892 1140.48 825.834C1141.78 827.776 1143.63 829.289 1145.79 830.181C1147.95 831.074 1150.32 831.306 1152.61 830.848C1154.91 830.391 1157.01 829.264 1158.66 827.61C1160.31 825.957 1161.44 823.851 1161.89 821.558C1162.35 819.266 1162.11 816.89 1161.22 814.731C1160.32 812.572 1158.81 810.727 1156.87 809.429C1154.92 808.131 1152.64 807.438 1150.3 807.438C1147.16 807.441 1144.16 808.69 1141.94 810.909C1139.73 813.127 1138.48 816.135 1138.48 819.271Z" fill="#EBEBEB"/>
<path d="M980.595 879.21C980.595 881.989 979.771 884.706 978.227 887.017C976.683 889.327 974.488 891.128 971.921 892.192C969.353 893.255 966.528 893.534 963.802 892.991C961.077 892.449 958.573 891.111 956.608 889.146C954.643 887.181 953.304 884.677 952.762 881.951C952.22 879.226 952.498 876.4 953.562 873.833C954.625 871.265 956.426 869.071 958.737 867.527C961.048 865.983 963.765 865.159 966.544 865.159C970.269 865.162 973.841 866.644 976.475 869.278C979.11 871.913 980.591 875.485 980.595 879.21ZM954.724 879.21C954.721 881.552 955.413 883.841 956.712 885.79C958.012 887.738 959.86 889.257 962.023 890.154C964.185 891.051 966.566 891.287 968.863 890.831C971.159 890.374 973.269 889.247 974.925 887.591C976.581 885.936 977.708 883.826 978.164 881.529C978.62 879.232 978.385 876.852 977.487 874.689C976.59 872.526 975.071 870.678 973.123 869.379C971.175 868.08 968.885 867.388 966.544 867.39C963.41 867.394 960.406 868.64 958.19 870.856C955.974 873.072 954.728 876.076 954.724 879.21Z" fill="#EBEBEB"/>
<path d="M1132.53 686.844C1132.52 689.622 1131.69 692.336 1130.15 694.643C1128.6 696.95 1126.4 698.746 1123.84 699.806C1121.27 700.865 1118.44 701.139 1115.72 700.594C1113 700.049 1110.49 698.708 1108.53 696.742C1106.57 694.776 1105.23 692.272 1104.69 689.547C1104.15 686.822 1104.43 683.998 1105.5 681.433C1106.56 678.867 1108.36 676.674 1110.67 675.131C1112.98 673.588 1115.7 672.765 1118.48 672.765C1122.21 672.772 1125.78 674.259 1128.42 676.898C1131.05 679.538 1132.53 683.114 1132.53 686.844ZM1106.66 686.844C1106.66 689.181 1107.35 691.467 1108.65 693.41C1109.95 695.354 1111.79 696.869 1113.95 697.764C1116.11 698.658 1118.49 698.892 1120.78 698.436C1123.08 697.98 1125.18 696.854 1126.84 695.201C1128.49 693.548 1129.61 691.442 1130.07 689.15C1130.53 686.857 1130.29 684.48 1129.4 682.32C1128.5 680.161 1126.99 678.315 1125.04 677.016C1123.1 675.717 1120.82 675.024 1118.48 675.024C1115.34 675.028 1112.34 676.274 1110.12 678.49C1107.91 680.706 1106.66 683.71 1106.66 686.844Z" fill="#EBEBEB"/>
<path d="M670.128 729.563C670.12 732.34 669.289 735.053 667.74 737.358C666.191 739.663 663.993 741.458 661.425 742.515C658.857 743.572 656.033 743.844 653.31 743.298C650.587 742.751 648.087 741.409 646.126 739.442C644.165 737.476 642.831 734.972 642.292 732.247C641.753 729.523 642.034 726.7 643.099 724.135C644.163 721.569 645.964 719.377 648.274 717.835C650.584 716.293 653.299 715.47 656.076 715.47C659.808 715.477 663.384 716.966 666.019 719.608C668.654 722.251 670.132 725.831 670.128 729.563ZM644.257 729.563C644.257 731.9 644.95 734.186 646.249 736.129C647.548 738.073 649.394 739.588 651.553 740.483C653.713 741.377 656.09 741.611 658.382 741.155C660.675 740.699 662.781 739.573 664.434 737.92C666.087 736.267 667.213 734.161 667.669 731.868C668.125 729.576 667.891 727.199 666.996 725.039C666.102 722.88 664.587 721.034 662.643 719.735C660.699 718.436 658.414 717.743 656.076 717.743C654.522 717.741 652.983 718.045 651.547 718.638C650.111 719.231 648.805 720.102 647.705 721.199C646.605 722.297 645.732 723.6 645.135 725.035C644.539 726.47 644.231 728.009 644.229 729.563L644.257 729.563Z" fill="#EBEBEB"/>
<path d="M718.922 1090.96C718.922 1093.74 718.099 1096.45 716.556 1098.76C715.013 1101.07 712.82 1102.87 710.254 1103.94C707.688 1105 704.864 1105.28 702.14 1104.74C699.415 1104.2 696.911 1102.87 694.945 1100.9C692.978 1098.94 691.638 1096.44 691.093 1093.72C690.547 1090.99 690.822 1088.17 691.881 1085.6C692.94 1083.03 694.737 1080.84 697.044 1079.29C699.351 1077.74 702.065 1076.91 704.843 1076.91C706.691 1076.9 708.521 1077.26 710.229 1077.97C711.937 1078.67 713.489 1079.71 714.797 1081.01C716.105 1082.32 717.142 1083.87 717.85 1085.58C718.558 1087.28 718.922 1089.11 718.922 1090.96ZM693.065 1090.96C693.062 1093.3 693.754 1095.59 695.053 1097.53C696.352 1099.48 698.199 1101 700.361 1101.89C702.523 1102.79 704.902 1103.02 707.197 1102.56C709.492 1102.11 711.599 1100.98 713.252 1099.32C714.905 1097.66 716.029 1095.55 716.481 1093.26C716.934 1090.96 716.694 1088.58 715.794 1086.42C714.893 1084.26 713.372 1082.42 711.422 1081.13C709.473 1079.83 707.183 1079.15 704.843 1079.15C701.718 1079.16 698.724 1080.41 696.517 1082.62C694.31 1084.84 693.068 1087.83 693.065 1090.96Z" fill="#EBEBEB"/>
<path d="M1223.02 1064.11C1223.03 1066.89 1222.2 1069.61 1220.66 1071.93C1219.11 1074.24 1216.91 1076.04 1214.34 1077.11C1211.77 1078.17 1208.94 1078.45 1206.21 1077.9C1203.48 1077.36 1200.98 1076.01 1199.02 1074.04C1197.05 1072.07 1195.72 1069.56 1195.18 1066.83C1194.65 1064.1 1194.93 1061.27 1196.01 1058.7C1197.08 1056.13 1198.89 1053.94 1201.21 1052.41C1203.53 1050.87 1206.26 1050.06 1209.04 1050.07C1212.75 1050.09 1216.31 1051.58 1218.93 1054.21C1221.55 1056.84 1223.02 1060.4 1223.02 1064.11ZM1197.15 1064.11C1197.15 1066.44 1197.84 1068.73 1199.14 1070.67C1200.43 1072.61 1202.28 1074.13 1204.43 1075.02C1206.59 1075.92 1208.96 1076.16 1211.25 1075.71C1213.54 1075.26 1215.65 1074.14 1217.31 1072.49C1218.96 1070.85 1220.09 1068.75 1220.56 1066.46C1221.02 1064.17 1220.8 1061.8 1219.91 1059.63C1219.03 1057.47 1217.52 1055.62 1215.59 1054.32C1213.65 1053.01 1211.38 1052.3 1209.04 1052.29C1207.48 1052.28 1205.94 1052.58 1204.5 1053.17C1203.06 1053.76 1201.75 1054.63 1200.64 1055.73C1199.54 1056.83 1198.66 1058.14 1198.06 1059.57C1197.46 1061.01 1197.15 1062.55 1197.15 1064.11Z" fill="#EBEBEB"/>
<path d="M1388.8 811.653C1389.86 811.653 1390.89 811.967 1391.77 812.554C1392.65 813.141 1393.34 813.976 1393.74 814.953C1394.14 815.929 1394.25 817.004 1394.04 818.041C1393.84 819.078 1393.33 820.03 1392.58 820.778C1391.83 821.525 1390.88 822.034 1389.84 822.24C1388.81 822.447 1387.73 822.341 1386.76 821.936C1385.78 821.532 1384.95 820.847 1384.36 819.968C1383.77 819.089 1383.46 818.055 1383.46 816.998C1383.46 815.581 1384.02 814.221 1385.02 813.219C1386.02 812.216 1387.38 811.653 1388.8 811.653Z" fill="#EBEBEB"/>
<path d="M1411.55 661C1412.61 661 1413.64 661.314 1414.52 661.903C1415.4 662.492 1416.09 663.329 1416.5 664.308C1416.9 665.287 1417.01 666.365 1416.8 667.404C1416.6 668.444 1416.08 669.399 1415.34 670.148C1414.59 670.897 1413.63 671.408 1412.59 671.615C1411.55 671.821 1410.47 671.715 1409.5 671.31C1408.52 670.904 1407.68 670.217 1407.09 669.336C1406.5 668.455 1406.19 667.419 1406.19 666.359C1406.19 664.938 1406.75 663.574 1407.76 662.57C1408.76 661.565 1410.12 661 1411.55 661Z" fill="#EBEBEB"/>
<path d="M1896.66 858.739C1897.72 858.736 1898.76 859.048 1899.64 859.635C1900.53 860.223 1901.22 861.059 1901.62 862.038C1902.03 863.016 1902.14 864.094 1901.94 865.135C1901.73 866.175 1901.22 867.131 1900.47 867.882C1899.72 868.633 1898.77 869.145 1897.73 869.353C1896.69 869.561 1895.61 869.455 1894.63 869.05C1893.65 868.645 1892.81 867.958 1892.22 867.076C1891.63 866.195 1891.32 865.158 1891.32 864.098C1891.32 862.679 1891.88 861.318 1892.88 860.313C1893.89 859.309 1895.24 858.743 1896.66 858.739Z" fill="#EBEBEB"/>
<path d="M1907.35 667.447C1908.41 667.453 1909.45 667.773 1910.33 668.367C1911.21 668.961 1911.89 669.802 1912.29 670.784C1912.69 671.766 1912.79 672.845 1912.58 673.884C1912.36 674.922 1911.85 675.874 1911.09 676.619C1910.34 677.364 1909.38 677.869 1908.34 678.069C1907.29 678.269 1906.22 678.155 1905.24 677.742C1904.26 677.329 1903.43 676.636 1902.85 675.75C1902.27 674.864 1901.96 673.825 1901.97 672.765C1901.98 671.346 1902.55 669.989 1903.56 668.992C1904.57 667.996 1905.93 667.44 1907.35 667.447Z" fill="#EBEBEB"/>
<path d="M1650.53 1037.62C1651.59 1037.62 1652.63 1037.93 1653.51 1038.52C1654.39 1039.11 1655.08 1039.95 1655.48 1040.93C1655.89 1041.91 1655.99 1042.98 1655.79 1044.02C1655.58 1045.06 1655.07 1046.02 1654.32 1046.77C1653.57 1047.52 1652.61 1048.03 1651.58 1048.23C1650.54 1048.44 1649.46 1048.33 1648.48 1047.93C1647.5 1047.52 1646.66 1046.84 1646.07 1045.95C1645.49 1045.07 1645.17 1044.04 1645.17 1042.98C1645.17 1041.56 1645.74 1040.19 1646.74 1039.19C1647.75 1038.18 1649.11 1037.62 1650.53 1037.62Z" fill="#EBEBEB"/>
<path d="M1857.2 730.017C1858.26 730.014 1859.29 730.326 1860.18 730.914C1861.06 731.501 1861.75 732.337 1862.16 733.316C1862.56 734.295 1862.67 735.372 1862.47 736.413C1862.26 737.453 1861.75 738.409 1861 739.16C1860.25 739.911 1859.3 740.423 1858.26 740.631C1857.22 740.839 1856.14 740.733 1855.16 740.328C1854.18 739.923 1853.34 739.236 1852.75 738.355C1852.17 737.473 1851.85 736.436 1851.85 735.376C1851.85 733.957 1852.41 732.596 1853.42 731.591C1854.42 730.587 1855.78 730.021 1857.2 730.017Z" fill="#EBEBEB"/>
<path d="M1334.02 945.1C1335.07 945.1 1336.11 945.414 1336.98 946.001C1337.86 946.588 1338.55 947.423 1338.95 948.4C1339.36 949.376 1339.46 950.451 1339.26 951.488C1339.05 952.525 1338.54 953.477 1337.79 954.225C1337.05 954.972 1336.09 955.481 1335.06 955.687C1334.02 955.894 1332.95 955.788 1331.97 955.383C1330.99 954.979 1330.16 954.294 1329.57 953.415C1328.98 952.536 1328.67 951.502 1328.67 950.445C1328.67 949.028 1329.23 947.668 1330.24 946.666C1331.24 945.663 1332.6 945.1 1334.02 945.1Z" fill="#EBEBEB"/>
<path d="M1421.05 980.807C1422.11 980.807 1423.14 981.121 1424.02 981.708C1424.9 982.295 1425.58 983.13 1425.99 984.107C1426.39 985.083 1426.5 986.158 1426.29 987.195C1426.09 988.232 1425.58 989.184 1424.83 989.932C1424.08 990.679 1423.13 991.188 1422.09 991.395C1421.06 991.601 1419.98 991.495 1419.01 991.09C1418.03 990.686 1417.19 990.001 1416.61 989.122C1416.02 988.243 1415.71 987.209 1415.71 986.152C1415.71 984.735 1416.27 983.375 1417.27 982.373C1418.27 981.37 1419.63 980.807 1421.05 980.807Z" fill="#EBEBEB"/>
<path d="M1592.99 674.528C1594.05 674.525 1595.09 674.837 1595.97 675.424C1596.85 676.011 1597.54 676.847 1597.95 677.826C1598.36 678.805 1598.46 679.883 1598.26 680.924C1598.05 681.964 1597.54 682.92 1596.8 683.671C1596.05 684.422 1595.09 684.934 1594.05 685.141C1593.01 685.349 1591.93 685.244 1590.95 684.839C1589.97 684.434 1589.14 683.747 1588.55 682.865C1587.96 681.984 1587.64 680.947 1587.64 679.887C1587.64 678.468 1588.21 677.107 1589.21 676.102C1590.21 675.098 1591.57 674.531 1592.99 674.528Z" fill="#EBEBEB"/>
<path d="M1370.65 880.615C1370.65 883.395 1369.82 886.112 1368.28 888.423C1366.73 890.734 1364.54 892.535 1361.97 893.598C1359.4 894.661 1356.57 894.939 1353.85 894.395C1351.12 893.852 1348.62 892.513 1346.65 890.546C1344.69 888.58 1343.35 886.074 1342.81 883.348C1342.27 880.621 1342.55 877.796 1343.62 875.228C1344.68 872.661 1346.48 870.467 1348.8 868.925C1351.11 867.383 1353.83 866.561 1356.61 866.564C1360.33 866.571 1363.9 868.054 1366.53 870.688C1369.16 873.322 1370.64 876.892 1370.65 880.615ZM1344.79 880.615C1344.79 882.953 1345.48 885.238 1346.78 887.182C1348.08 889.125 1349.92 890.64 1352.08 891.535C1354.24 892.43 1356.62 892.664 1358.91 892.208C1361.21 891.752 1363.31 890.626 1364.97 888.973C1366.62 887.32 1367.74 885.214 1368.2 882.921C1368.66 880.628 1368.42 878.252 1367.53 876.092C1366.63 873.932 1365.12 872.086 1363.17 870.787C1361.23 869.489 1358.95 868.795 1356.61 868.795C1353.47 868.799 1350.47 870.045 1348.25 872.261C1346.04 874.477 1344.79 877.481 1344.79 880.615Z" fill="#EBEBEB"/>
<path d="M1837.98 819.271C1837.98 822.051 1837.15 824.768 1835.61 827.079C1834.06 829.39 1831.87 831.191 1829.3 832.254C1826.73 833.317 1823.91 833.595 1821.18 833.052C1818.45 832.508 1815.95 831.169 1813.99 829.202C1812.02 827.236 1810.68 824.731 1810.14 822.004C1809.6 819.277 1809.88 816.452 1810.95 813.884C1812.01 811.317 1813.82 809.123 1816.13 807.581C1818.44 806.039 1821.16 805.217 1823.94 805.22C1827.67 805.223 1831.24 806.705 1833.87 809.34C1836.5 811.975 1837.98 815.547 1837.98 819.271ZM1812.12 819.271C1812.12 821.608 1812.82 823.892 1814.12 825.834C1815.42 827.776 1817.27 829.289 1819.43 830.181C1821.59 831.074 1823.96 831.306 1826.26 830.848C1828.55 830.391 1830.65 829.264 1832.3 827.61C1833.96 825.957 1835.08 823.851 1835.53 821.558C1835.99 819.266 1835.75 816.89 1834.86 814.731C1833.96 812.572 1832.45 810.727 1830.51 809.429C1828.56 808.13 1826.28 807.438 1823.94 807.438C1820.8 807.441 1817.8 808.69 1815.58 810.908C1813.37 813.127 1812.12 816.135 1812.12 819.271Z" fill="#EBEBEB"/>
<path d="M1654.24 879.21C1654.24 881.989 1653.41 884.706 1651.87 887.017C1650.32 889.327 1648.13 891.128 1645.56 892.192C1642.99 893.255 1640.17 893.534 1637.44 892.991C1634.72 892.449 1632.21 891.111 1630.25 889.146C1628.28 887.181 1626.95 884.677 1626.4 881.951C1625.86 879.226 1626.14 876.4 1627.2 873.833C1628.27 871.265 1630.07 869.071 1632.38 867.527C1634.69 865.983 1637.41 865.159 1640.18 865.159C1643.91 865.162 1647.48 866.644 1650.12 869.278C1652.75 871.913 1654.23 875.485 1654.24 879.21ZM1628.36 879.21C1628.36 881.552 1629.05 883.841 1630.35 885.79C1631.65 887.738 1633.5 889.257 1635.66 890.154C1637.83 891.051 1640.21 891.287 1642.5 890.831C1644.8 890.374 1646.91 889.247 1648.57 887.591C1650.22 885.936 1651.35 883.826 1651.8 881.529C1652.26 879.232 1652.03 876.852 1651.13 874.689C1650.23 872.526 1648.71 870.678 1646.76 869.379C1644.82 868.08 1642.53 867.388 1640.18 867.39C1637.05 867.394 1634.05 868.64 1631.83 870.856C1629.61 873.072 1628.37 876.076 1628.36 879.21Z" fill="#EBEBEB"/>
<path d="M1806.17 686.844C1806.16 689.622 1805.34 692.335 1803.79 694.643C1802.24 696.95 1800.04 698.746 1797.48 699.806C1794.91 700.865 1792.08 701.139 1789.36 700.594C1786.64 700.049 1784.14 698.708 1782.17 696.742C1780.21 694.776 1778.88 692.272 1778.34 689.547C1777.8 686.822 1778.08 683.998 1779.14 681.432C1780.2 678.866 1782 676.674 1784.31 675.131C1786.63 673.588 1789.34 672.765 1792.12 672.765C1795.85 672.772 1799.42 674.258 1802.06 676.898C1804.69 679.538 1806.17 683.114 1806.17 686.844ZM1780.3 686.844C1780.3 689.181 1780.99 691.467 1782.29 693.41C1783.59 695.354 1785.44 696.869 1787.6 697.764C1789.76 698.658 1792.13 698.892 1794.42 698.436C1796.72 697.98 1798.82 696.854 1800.48 695.201C1802.13 693.548 1803.26 691.442 1803.71 689.149C1804.17 686.857 1803.93 684.48 1803.04 682.32C1802.14 680.161 1800.63 678.315 1798.69 677.016C1796.74 675.717 1794.46 675.024 1792.12 675.024C1788.98 675.028 1785.98 676.274 1783.76 678.49C1781.55 680.706 1780.3 683.71 1780.3 686.844Z" fill="#EBEBEB"/>
<path d="M1343.77 729.563C1343.76 732.34 1342.93 735.053 1341.38 737.358C1339.83 739.663 1337.63 741.458 1335.07 742.515C1332.5 743.572 1329.67 743.844 1326.95 743.298C1324.23 742.751 1321.73 741.409 1319.77 739.442C1317.81 737.476 1316.47 734.972 1315.93 732.247C1315.39 729.523 1315.67 726.7 1316.74 724.135C1317.8 721.569 1319.61 719.377 1321.91 717.835C1324.22 716.293 1326.94 715.47 1329.72 715.47C1333.45 715.477 1337.02 716.966 1339.66 719.608C1342.29 722.251 1343.77 725.831 1343.77 729.563ZM1317.9 729.563C1317.9 731.9 1318.59 734.186 1319.89 736.129C1321.19 738.073 1323.03 739.588 1325.19 740.483C1327.35 741.377 1329.73 741.611 1332.02 741.155C1334.32 740.699 1336.42 739.573 1338.07 737.92C1339.73 736.267 1340.85 734.161 1341.31 731.868C1341.77 729.576 1341.53 727.199 1340.64 725.039C1339.74 722.88 1338.23 721.034 1336.28 719.735C1334.34 718.436 1332.05 717.743 1329.72 717.743C1328.16 717.741 1326.62 718.045 1325.19 718.638C1323.75 719.231 1322.45 720.102 1321.35 721.199C1320.25 722.297 1319.37 723.6 1318.78 725.035C1318.18 726.47 1317.87 728.009 1317.87 729.563L1317.9 729.563Z" fill="#EBEBEB"/>
<path d="M1392.56 1090.96C1392.56 1093.74 1391.74 1096.45 1390.2 1098.76C1388.65 1101.07 1386.46 1102.87 1383.89 1103.94C1381.33 1105 1378.51 1105.28 1375.78 1104.74C1373.06 1104.2 1370.55 1102.87 1368.59 1100.9C1366.62 1098.94 1365.28 1096.44 1364.73 1093.72C1364.19 1090.99 1364.46 1088.17 1365.52 1085.6C1366.58 1083.03 1368.38 1080.84 1370.68 1079.29C1372.99 1077.74 1375.71 1076.91 1378.48 1076.91C1380.33 1076.9 1382.16 1077.26 1383.87 1077.97C1385.58 1078.67 1387.13 1079.71 1388.44 1081.01C1389.75 1082.32 1390.78 1083.87 1391.49 1085.58C1392.2 1087.28 1392.56 1089.11 1392.56 1090.96ZM1366.71 1090.96C1366.7 1093.3 1367.39 1095.59 1368.69 1097.53C1369.99 1099.48 1371.84 1101 1374 1101.89C1376.16 1102.79 1378.54 1103.02 1380.84 1102.56C1383.13 1102.11 1385.24 1100.98 1386.89 1099.32C1388.55 1097.66 1389.67 1095.55 1390.12 1093.26C1390.57 1090.96 1390.34 1088.58 1389.43 1086.42C1388.53 1084.26 1387.01 1082.42 1385.06 1081.13C1383.11 1079.83 1380.82 1079.15 1378.48 1079.15C1375.36 1079.16 1372.36 1080.41 1370.16 1082.62C1367.95 1084.84 1366.71 1087.83 1366.71 1090.96Z" fill="#EBEBEB"/>
<path d="M1896.66 1064.11C1896.67 1066.89 1895.84 1069.61 1894.3 1071.93C1892.75 1074.24 1890.55 1076.04 1887.98 1077.11C1885.41 1078.17 1882.58 1078.45 1879.85 1077.9C1877.13 1077.36 1874.62 1076.01 1872.66 1074.04C1870.69 1072.07 1869.36 1069.56 1868.82 1066.83C1868.29 1064.1 1868.58 1061.27 1869.65 1058.7C1870.72 1056.13 1872.53 1053.94 1874.85 1052.41C1877.17 1050.87 1879.9 1050.06 1882.68 1050.07C1886.39 1050.09 1889.95 1051.58 1892.57 1054.21C1895.19 1056.84 1896.66 1060.4 1896.66 1064.11ZM1870.79 1064.11C1870.79 1066.44 1871.48 1068.73 1872.78 1070.67C1874.08 1072.61 1875.92 1074.13 1878.07 1075.02C1880.23 1075.92 1882.6 1076.16 1884.89 1075.71C1887.18 1075.26 1889.29 1074.14 1890.95 1072.49C1892.6 1070.85 1893.73 1068.75 1894.2 1066.46C1894.66 1064.17 1894.44 1061.8 1893.55 1059.63C1892.67 1057.47 1891.16 1055.62 1889.23 1054.32C1887.29 1053.01 1885.02 1052.3 1882.68 1052.29C1881.12 1052.28 1879.58 1052.58 1878.14 1053.17C1876.7 1053.76 1875.39 1054.63 1874.28 1055.73C1873.18 1056.83 1872.3 1058.14 1871.7 1059.57C1871.1 1061.01 1870.79 1062.55 1870.79 1064.11Z" fill="#EBEBEB"/>
</svg>
