<svg width="54" height="49" viewBox="0 0 54 49" fill="none" xmlns="http://www.w3.org/2000/svg">
<rect x="0.5" y="0.5" width="53" height="48" rx="24" stroke="#37474F"/>
<path d="M44.0424 12.0638C44.0597 11.8972 44.1007 11.7326 44.131 11.5669C44.2519 11.1749 44.3696 10.7829 44.5964 10.4243C44.6579 10.326 44.7303 10.2337 44.8124 10.1489C45.0695 9.88918 45.3773 9.85488 45.7056 10.0332C45.9442 10.171 46.1457 10.3555 46.2953 10.5732C46.6366 11.0407 46.8709 11.5532 46.8277 12.1177C46.8166 12.3941 46.7333 12.6642 46.5848 12.9058C46.4363 13.1473 46.2268 13.3535 45.9734 13.5073C45.3708 13.8778 44.6613 13.7249 44.2897 13.1565C44.0792 12.8261 43.9924 12.4427 44.0424 12.0638Z" fill="#EBEBEB"/>
<path d="M40.8467 12.4852C40.4924 11.8972 40.4795 11.2857 40.8467 10.6977C41.183 10.1505 41.7268 9.73259 42.377 9.52168C42.4943 9.4834 42.6167 9.45967 42.741 9.45112C42.8892 9.43072 43.0405 9.45981 43.1668 9.53298C43.2931 9.60616 43.3859 9.71845 43.4279 9.849C43.5331 10.1387 43.5645 10.4463 43.5197 10.7486C43.4981 10.977 43.4603 11.2043 43.43 11.4346C43.348 11.8521 43.2022 12.2431 42.89 12.5695C42.6988 12.7813 42.4418 12.936 42.1524 13.0134C41.901 13.0767 41.6332 13.0585 41.395 12.9621C41.1567 12.8658 40.9629 12.6971 40.8467 12.4852Z" fill="#EBEBEB"/>
<path d="M38.9264 14.651C38.354 14.2698 38.1229 13.7406 38.1823 13.1036C38.1938 13.0332 38.2097 12.9636 38.2298 12.8948C38.3178 12.4664 38.5441 12.0715 38.88 11.76C38.9141 11.7306 38.9502 11.7031 38.988 11.6777C39.353 11.4238 39.7018 11.4552 40.0032 11.7757C40.214 12.0124 40.3708 12.285 40.4643 12.5773C40.6015 12.9556 40.7192 13.3378 40.6641 13.7445C40.6375 13.9912 40.5412 14.2275 40.3844 14.4305C40.0269 14.8744 39.42 14.9773 38.9264 14.651Z" fill="#EBEBEB"/>
<path d="M46.0652 17.296C46.0587 17.3568 46.0469 17.4175 46.0339 17.492C45.8719 18.08 45.4302 18.4152 44.7822 18.5426C44.0975 18.6768 43.457 18.5367 42.863 18.225C42.485 18.0194 42.0425 17.9333 41.6048 17.98C40.932 18.0457 40.2959 17.9399 39.7332 17.5831C39.2612 17.2842 38.9772 16.8795 39.0053 16.3395C39.0165 16.1385 39.0727 15.9417 39.1706 15.761C39.2684 15.5804 39.4058 15.4198 39.5744 15.289C39.7624 15.1369 39.9694 15.0053 40.1911 14.897C40.6749 14.6624 41.1127 14.3571 41.4871 13.9934C41.6646 13.8173 41.8798 13.6759 42.1196 13.578C42.3595 13.4801 42.6188 13.4277 42.8818 13.424C43.1447 13.4204 43.4057 13.4655 43.6488 13.5567C43.8918 13.6478 44.1118 13.7831 44.2951 13.9542C44.5338 14.1745 44.7027 14.449 44.7843 14.749C44.8916 15.1459 45.1091 15.5113 45.4161 15.8103C45.8066 16.1684 46.0374 16.6448 46.0641 17.148C46.0684 17.1973 46.0688 17.2467 46.0652 17.296Z" fill="#EBEBEB"/>
<path d="M48.2458 14.7725C48.0719 15.4703 47.6626 15.9132 46.9832 16.1279C46.3039 16.3425 45.6624 16.0044 45.5544 15.3595C45.5173 15.135 45.5407 14.9057 45.6224 14.6912C45.8104 14.1806 46.1959 13.7974 46.6236 13.4466C46.778 13.3227 46.9502 13.2185 47.1355 13.1369C47.5178 12.9674 47.8505 13.0722 48.0578 13.4084C48.2262 13.7024 48.3041 14.0321 48.2836 14.3629C48.276 14.5206 48.2544 14.6775 48.2458 14.7725Z" fill="#EBEBEB"/>
<path d="M18.3481 8.07911C18.2606 7.83509 18.2077 7.58127 18.1386 7.33235C18.0446 6.71397 17.9442 6.09657 18.0241 5.47035C18.0446 5.29856 18.0845 5.12912 18.1429 4.96467C18.3287 4.45899 18.7358 4.23653 19.3179 4.30905C19.7445 4.3705 20.1504 4.51784 20.5059 4.74025C21.2987 5.20869 21.9693 5.78983 22.2912 6.61303C22.613 7.43623 22.5558 8.27903 22.0244 9.03461C21.4293 9.88721 20.3299 10.0646 19.427 9.47267C18.9103 9.12669 18.5316 8.63755 18.3481 8.07911Z" fill="#DBDBDB"/>
<path d="M14.148 10.435C13.2548 9.80293 12.8271 8.95523 12.9405 7.93113C13.0434 6.97535 13.5246 6.0858 14.2948 5.42723C14.4336 5.30898 14.5895 5.20842 14.7582 5.12833C15.215 4.90587 15.6222 4.96761 15.9904 5.30669C16.3587 5.64577 16.5574 6.07599 16.7216 6.51797C16.8458 6.84921 16.9441 7.18927 17.0542 7.52541C17.2206 8.15653 17.2789 8.78471 17.0607 9.41485C16.9354 9.81777 16.6786 10.1768 16.3242 10.4448C15.6945 10.9064 14.8273 10.9162 14.148 10.435Z" fill="#DBDBDB"/>
<path d="M12.9081 14.5353C11.8486 14.3178 11.1693 13.7023 10.8259 12.7713C10.7942 12.6667 10.7696 12.5603 10.7524 12.4528C10.6088 11.7913 10.6272 11.1387 10.909 10.5046C10.9352 10.4453 10.9651 10.3873 10.9987 10.3311C11.341 9.77352 11.8508 9.62456 12.4858 9.90288C12.9417 10.1184 13.3455 10.4143 13.6738 10.7731C14.1199 11.2278 14.5378 11.6992 14.7376 12.299C14.864 12.6586 14.8866 13.0415 14.8035 13.4113C14.6026 14.2404 13.8164 14.7225 12.9081 14.5353Z" fill="#DBDBDB"/>
<path d="M24.6985 14.2982C24.7309 14.3883 24.7547 14.4795 24.7903 14.5981C24.9534 15.5055 24.5624 16.2278 23.7384 16.7648C22.869 17.3313 21.8754 17.4881 20.8321 17.3793C20.1639 17.3006 19.4857 17.4246 18.9032 17.7321C18.0047 18.1956 17.0413 18.3985 16.0121 18.2094C15.1481 18.0506 14.4839 17.638 14.1566 16.8677C14.0367 16.5797 13.983 16.2724 13.999 15.9648C14.0149 15.6572 14.1002 15.3558 14.2495 15.0792C14.4105 14.761 14.612 14.4611 14.85 14.1855C15.3722 13.5884 15.783 12.9177 16.0661 12.2C16.196 11.8542 16.4026 11.5362 16.6732 11.2657C16.9438 10.9951 17.2726 10.7778 17.6393 10.627C18.0061 10.4762 18.403 10.3952 18.8055 10.389C19.2081 10.3828 19.6078 10.4515 19.98 10.5908C20.4636 10.7664 20.8855 11.0581 21.2004 11.4346C21.618 11.9323 22.169 12.3246 22.801 12.5744C23.5894 12.8909 24.2255 13.3691 24.6046 14.0934C24.6408 14.1597 24.6722 14.2281 24.6985 14.2982Z" fill="#DBDBDB"/>
<path d="M26.0626 9.55401C26.2872 10.632 26.0107 11.4758 25.1986 12.153C24.3713 12.8458 23.2621 12.7106 22.6768 11.8658C22.4741 11.5696 22.353 11.2335 22.3236 10.8858C22.2448 10.0656 22.5288 9.31783 22.8938 8.58675C23.0267 8.32754 23.1982 8.08616 23.4036 7.86939C23.8259 7.42055 24.3626 7.37939 24.8789 7.74101C25.3336 8.05559 25.623 8.48385 25.8368 8.95425C25.9427 9.18063 26.0118 9.41583 26.0626 9.55401Z" fill="#DBDBDB"/>
<path d="M10.179 24.0531C10.0882 23.9071 10.018 23.7513 9.93921 23.5994C9.79125 23.2132 9.64005 22.8301 9.60225 22.4234C9.58929 22.311 9.58929 22.1976 9.60225 22.0853C9.64977 21.7393 9.87873 21.5492 10.2621 21.5286C10.5447 21.5178 10.8263 21.5647 11.0862 21.6658C11.6596 21.8736 12.1726 22.1686 12.4902 22.6586C12.6543 22.8916 12.7553 23.1565 12.7852 23.4317C12.815 23.7069 12.7728 23.9846 12.6619 24.2422C12.4005 24.8587 11.7212 25.0997 11.0581 24.8253C10.6805 24.6612 10.372 24.3902 10.179 24.0531Z" fill="#EBEBEB"/>
<path d="M7.81916 26.0533C7.15712 25.7515 6.764 25.2585 6.69164 24.5833C6.62163 23.9582 6.80433 23.3313 7.20572 22.8193C7.27773 22.727 7.36351 22.6442 7.4606 22.5733C7.56928 22.4796 7.71183 22.4249 7.86166 22.4195C8.01149 22.4141 8.15838 22.4583 8.27492 22.5439C8.54254 22.726 8.76145 22.9604 8.91536 23.2299C9.04172 23.4259 9.15296 23.6347 9.27176 23.8375C9.46724 24.2227 9.59576 24.6215 9.54284 25.0488C9.51907 25.3211 9.40625 25.5808 9.21884 25.7946C9.05496 25.9785 8.82564 26.1049 8.57023 26.1521C8.31482 26.1993 8.04927 26.1644 7.81916 26.0533Z" fill="#EBEBEB"/>
<path d="M7.60426 28.8267C6.8947 28.81 6.37198 28.4954 6.02098 27.9447C5.98604 27.881 5.95503 27.8155 5.9281 27.7487C5.73329 27.3509 5.67242 26.9097 5.75314 26.4806C5.7615 26.4395 5.77268 26.3989 5.78662 26.359C5.92702 25.9612 6.23266 25.8073 6.6787 25.9112C6.99985 25.9964 7.29933 26.1383 7.55998 26.3287C7.9099 26.5678 8.24686 26.8187 8.45746 27.1822C8.58934 27.3981 8.65778 27.6411 8.65618 27.8878C8.6497 28.4406 8.21338 28.8404 7.60426 28.8267Z" fill="#EBEBEB"/>
<path d="M15.1308 27.3018C15.1643 27.3547 15.1913 27.4106 15.2312 27.4831C15.4645 28.0456 15.3155 28.5542 14.864 28.9943C14.3867 29.4588 13.7722 29.6754 13.0874 29.7273C12.6477 29.7546 12.2302 29.9127 11.8994 30.1771C11.3897 30.5799 10.8 30.822 10.1131 30.821C9.53748 30.821 9.05256 30.6318 8.73396 30.1761C8.6161 30.0055 8.53812 29.8148 8.50487 29.6157C8.47161 29.4166 8.48379 29.2134 8.54064 29.0188C8.59896 28.7961 8.68558 28.5804 8.79876 28.3759C9.04904 27.9324 9.21759 27.4547 9.29772 26.9617C9.33202 26.7246 9.41955 26.4964 9.55488 26.2912C9.69021 26.0859 9.87049 25.9081 10.0846 25.7686C10.2986 25.6291 10.542 25.5309 10.7995 25.48C11.057 25.4292 11.3233 25.4269 11.5819 25.4731C11.9171 25.5296 12.2291 25.6674 12.4848 25.872C12.823 26.1427 13.232 26.3303 13.6728 26.4169C14.2182 26.5089 14.7068 26.7809 15.0444 27.1803C15.076 27.2191 15.1049 27.2596 15.1308 27.3018Z" fill="#EBEBEB"/>
<path d="M15.336 24.1011C15.6319 24.7636 15.5746 25.3389 15.1524 25.8651C14.7301 26.3914 13.9892 26.4482 13.4956 25.9749C13.3232 25.8086 13.198 25.6068 13.1306 25.3869C12.9643 24.8694 13.0399 24.3549 13.1706 23.8463C13.2189 23.6645 13.2948 23.4897 13.3963 23.3269C13.6036 22.9888 13.9363 22.9026 14.324 23.0721C14.647 23.2262 14.9182 23.4564 15.1092 23.7385C15.2042 23.8757 15.282 24.0178 15.336 24.1011Z" fill="#EBEBEB"/>
<path d="M2.98621 44.0108L8.98885 43.9873L14.9926 43.9785L27 43.9618L39.0074 43.9785L45.0112 43.9873L51.0138 44.0108L45.0112 44.0353L39.0074 44.0441L27 44.0598L14.9926 44.0432L8.98885 44.0353L2.98621 44.0108Z" fill="#263238"/>
<path d="M48.2814 30.0233C48.2814 30.1781 48.9143 40.8905 49.1314 44.0108H39.177C39.7019 41.7843 42.2442 29.7773 42.2896 29.5989C42.3749 29.2697 41.2441 27.9261 41.8684 27.1244C42.5164 26.2865 43.0564 26.5482 43.2508 26.3404C43.4452 26.1327 43.6158 25.1919 44.5997 24.9753C45.4324 24.792 45.4334 25.3595 45.7877 25.3781C45.9972 25.3889 46.0642 25.2242 46.2737 25.1125H46.2791C46.2803 25.112 46.2816 25.1118 46.2829 25.1118C46.2842 25.1118 46.2854 25.112 46.2866 25.1125C46.4292 25.041 46.6355 24.9949 46.9865 25.04C47.9012 25.1576 48.1367 26.7334 48.2933 26.9382C48.4499 27.1431 49.1227 26.9912 49.3441 27.8859C49.667 29.1687 48.276 29.8371 48.2814 30.0233Z" fill="#455A64"/>
<path opacity="0.2" d="M44.4107 35.3241C44.7239 34.8292 44.9874 34.3029 45.077 33.7777C45.0846 33.7355 45.1645 33.7247 45.1915 33.763C45.2639 33.8668 45.468 34.155 45.4972 34.204C45.5058 34.1716 45.5144 34.1393 45.5209 34.106C45.5442 33.9977 45.5611 33.8885 45.5717 33.7786C45.5924 33.5588 45.5899 33.3376 45.5641 33.1181C45.538 32.8985 45.4877 32.6818 45.414 32.4713C45.3384 32.2577 45.2315 32.0529 45.1343 31.8441C45.1343 31.8343 45.1516 31.8275 45.1591 31.8363C45.3222 32.024 45.4543 32.2323 45.5512 32.4547C45.648 32.6614 45.7204 32.8769 45.7672 33.0975C45.8128 33.3188 45.8295 33.5441 45.8168 33.7688C45.8106 33.8854 45.7969 34.0016 45.7758 34.1167C45.7652 34.2333 45.7284 34.3467 45.6678 34.4499C45.6214 34.5185 45.4885 34.4823 45.4658 34.4245C45.4529 34.3892 45.2077 33.9786 45.1688 33.9188C45.1251 34.1486 45.0526 34.3732 44.9528 34.5881C44.8261 34.8562 44.6621 35.1085 44.4647 35.3388C44.4431 35.3623 44.3966 35.3457 44.4107 35.3241Z" fill="black"/>
<path d="M45.9141 27.0842C45.9141 26.9794 45.9238 26.8745 45.9303 26.7706C45.9615 26.5177 46.0283 26.2693 46.129 26.0317C46.158 25.9668 46.1942 25.9048 46.237 25.8465C46.2911 25.7658 46.3776 25.7072 46.4783 25.6831C46.5789 25.659 46.686 25.6712 46.777 25.7171C46.9355 25.7863 47.075 25.8868 47.1852 26.0111C47.4325 26.2787 47.6172 26.5786 47.6367 26.9343C47.6515 27.1065 47.6211 27.2795 47.5479 27.439C47.4746 27.5985 47.3607 27.7399 47.2155 27.8516C47.1405 27.915 47.0514 27.9629 46.9541 27.9921C46.8568 28.0212 46.7537 28.0309 46.6519 28.0205C46.5501 28.0101 46.452 27.9798 46.3644 27.9317C46.2767 27.8835 46.2016 27.8188 46.1441 27.7418C45.991 27.551 45.9103 27.3203 45.9141 27.0842Z" fill="#263238"/>
<path d="M43.9657 27.5517C43.8351 27.3954 43.7529 27.2101 43.7276 27.0153C43.7023 26.8204 43.735 26.6229 43.8221 26.4433C43.9876 26.0816 44.2918 25.7864 44.6785 25.6123C44.747 25.5815 44.8196 25.5591 44.8945 25.5457C44.9847 25.5233 45.0808 25.5315 45.1648 25.5686C45.2488 25.6058 45.3151 25.6694 45.3514 25.7475C45.4396 25.9202 45.4832 26.1089 45.4788 26.2993C45.4842 26.4423 45.4788 26.5854 45.4788 26.7285C45.4744 26.9907 45.3895 27.2466 45.2337 27.4674C45.1326 27.6112 44.9857 27.7237 44.8125 27.7899C44.6627 27.845 44.4966 27.8513 44.3422 27.8079C44.1879 27.7645 44.0549 27.674 43.9657 27.5517Z" fill="#263238"/>
<path d="M42.9451 29.0188C42.7656 28.9296 42.6163 28.7975 42.5135 28.6369C42.4107 28.4762 42.3583 28.2931 42.3619 28.1074C42.3636 28.0631 42.3679 28.0189 42.3749 27.9751C42.3972 27.7043 42.5073 27.4455 42.6913 27.2313C42.7094 27.2109 42.7288 27.1915 42.7497 27.1735C42.9559 26.9922 43.1741 26.9892 43.3858 27.1666C43.5375 27.2998 43.658 27.4595 43.74 27.636C43.8701 27.8551 43.9439 28.0979 43.956 28.3465C43.9583 28.5004 43.917 28.6522 43.8361 28.7875C43.7974 28.8585 43.7428 28.9213 43.6758 28.972C43.6088 29.0227 43.5309 29.0601 43.447 29.0819C43.3631 29.1037 43.2751 29.1093 43.1887 29.0984C43.1023 29.0876 43.0193 29.0604 42.9451 29.0188Z" fill="#263238"/>
<path d="M47.5794 30.1967C47.5794 30.235 47.5794 30.2732 47.5794 30.3241C47.5254 30.6956 47.2781 30.9357 46.886 31.0562C46.4857 31.1742 46.0506 31.1479 45.671 30.9827C45.4203 30.8803 45.1394 30.8558 44.8718 30.9131C44.4724 31.0068 44.0489 30.9621 43.6838 30.7877C43.5297 30.7224 43.3975 30.621 43.301 30.4938C43.2046 30.3666 43.1473 30.2184 43.1352 30.0644C43.1262 29.9394 43.1456 29.8141 43.192 29.6961C43.2384 29.5781 43.311 29.47 43.4052 29.3784C43.5096 29.2716 43.6274 29.1762 43.7562 29.0942C44.0383 28.9177 44.2864 28.7002 44.4906 28.4504C44.5865 28.3301 44.7084 28.2288 44.8489 28.1527C44.9894 28.0766 45.1454 28.0272 45.3076 28.0076C45.4698 27.988 45.6347 27.9985 45.7922 28.0386C45.9498 28.0786 46.0967 28.1474 46.224 28.2407C46.3895 28.3616 46.5157 28.5212 46.589 28.7022C46.6873 28.9415 46.8512 29.154 47.0653 29.3196C47.3342 29.5157 47.5141 29.7948 47.5707 30.1036C47.5751 30.137 47.5783 30.1664 47.5794 30.1967Z" fill="#263238"/>
<path d="M48.7329 28.4915C48.6799 28.9355 48.4607 29.2363 48.0568 29.4137C47.9688 29.4582 47.8706 29.4834 47.77 29.4874C47.6694 29.4914 47.5692 29.474 47.4772 29.4367C47.3853 29.3995 47.3042 29.3432 47.2404 29.2726C47.1766 29.2019 47.1318 29.1187 47.1096 29.0296C47.0692 28.8928 47.0658 28.7493 47.0999 28.6111C47.1766 28.2818 47.385 28.0231 47.6226 27.7742C47.7087 27.6875 47.8076 27.612 47.9164 27.5498C47.9619 27.5182 48.0143 27.4958 48.0701 27.4841C48.126 27.4724 48.1839 27.4717 48.24 27.482C48.2962 27.4923 48.3493 27.5134 48.3957 27.5439C48.4422 27.5743 48.4809 27.6134 48.5093 27.6585C48.6373 27.8294 48.7119 28.0285 48.7253 28.2348C48.735 28.3328 48.7307 28.4318 48.7329 28.4915Z" fill="#263238"/>
<path d="M46.2921 25.1027C46.2861 25.1053 46.2803 25.1082 46.2748 25.1115L46.2921 25.1027Z" fill="black"/>
<path d="M43.7043 36.9842C43.7043 36.9646 43.7043 36.945 43.7097 36.9196C43.7221 36.8344 43.7615 36.7543 43.8233 36.6892C43.8851 36.6241 43.9665 36.5767 44.0575 36.553C44.152 36.5257 44.2517 36.5163 44.3503 36.5254C44.449 36.5345 44.5445 36.5619 44.631 36.6059C44.7459 36.6624 44.8794 36.6791 45.0068 36.653C45.1013 36.6314 45.1997 36.6273 45.296 36.6409C45.3923 36.6546 45.4846 36.6857 45.5673 36.7324C45.6405 36.7707 45.7013 36.8259 45.7436 36.8922C45.7859 36.9586 45.8081 37.034 45.8082 37.1106C45.8109 37.2399 45.7587 37.3652 45.6624 37.4605C45.6133 37.5158 45.5546 37.5635 45.4885 37.6016C45.2261 37.7349 45.05 37.7418 44.6882 37.6996C44.3264 37.6575 44.159 37.6095 43.9257 37.4389C43.8612 37.3874 43.8088 37.3245 43.7717 37.2541C43.7345 37.1837 43.7135 37.1073 43.7097 37.0293C43.7054 37.0156 43.7043 36.9999 43.7043 36.9842Z" fill="#263238"/>
<path d="M15.2766 44.0108H6.04802C5.92166 40.0046 5.75102 34.5577 5.74994 34.4284C5.74994 34.0913 4.29626 33.0289 4.69262 32.1166C5.11274 31.164 5.6981 31.3012 5.83202 31.0572C5.96594 30.8132 5.88602 29.8635 6.78566 29.4412C7.54166 29.0844 7.6961 29.6372 8.04386 29.5774C8.25014 29.5431 8.27282 29.3677 8.4467 29.2148L8.46182 29.202C8.58062 29.104 8.76962 29.0149 9.12062 28.9835C10.0397 28.8992 10.6812 30.38 10.8864 30.5446C11.0916 30.7093 11.7061 30.4182 12.1554 31.2395C12.8034 32.4243 11.6284 33.3739 11.6813 33.5532C11.7234 33.6787 13.9795 40.2408 15.2766 44.0108Z" fill="#92E3A9"/>
<path opacity="0.4" d="M15.2766 44.0108H6.04802C5.92166 40.0046 5.75102 34.5577 5.74994 34.4284C5.74994 34.0913 4.29626 33.0289 4.69262 32.1166C5.11274 31.164 5.6981 31.3012 5.83202 31.0572C5.96594 30.8132 5.88602 29.8635 6.78566 29.4412C7.54166 29.0844 7.6961 29.6372 8.04386 29.5774C8.25014 29.5431 8.27282 29.3677 8.4467 29.2148L8.46182 29.202C8.58062 29.104 8.76962 29.0149 9.12062 28.9835C10.0397 28.8992 10.6812 30.38 10.8864 30.5446C11.0916 30.7093 11.7061 30.4182 12.1554 31.2395C12.8034 32.4243 11.6284 33.3739 11.6813 33.5532C11.7234 33.6787 13.9795 40.2408 15.2766 44.0108Z" fill="black"/>
<path opacity="0.2" d="M10.6812 39.247C10.26 38.8227 9.88095 38.3592 9.67143 37.8613C9.65415 37.8221 9.57315 37.827 9.55587 37.8692C9.50943 37.9848 9.37767 38.3092 9.35931 38.3592C9.34311 38.3298 9.32691 38.3004 9.31287 38.271C9.26525 38.1692 9.22379 38.0652 9.18867 37.9593C9.11715 37.7488 9.06832 37.5326 9.04287 37.3135C9.01802 37.0936 9.01802 36.8719 9.04287 36.652C9.06663 36.4286 9.12387 36.2081 9.17031 35.9846C9.17031 35.9758 9.14979 35.9729 9.14439 35.9846C9.02852 36.1992 8.94775 36.428 8.90463 36.6638C8.8588 36.8843 8.83961 37.1088 8.84739 37.3331C8.85468 37.5577 8.89092 37.7807 8.95539 37.9975C8.98756 38.1095 9.0265 38.2197 9.07203 38.3278C9.10963 38.4395 9.17171 38.5432 9.25455 38.6326C9.31611 38.6914 9.43815 38.6326 9.44571 38.5689C9.45111 38.5326 9.59583 38.0838 9.61959 38.0181C9.71557 38.2342 9.83764 38.4399 9.98355 38.6316C10.1689 38.8692 10.3866 39.0845 10.6315 39.2725C10.6585 39.2902 10.6996 39.2657 10.6812 39.247Z" fill="black"/>
<path d="M8.61629 31.2061C8.58713 31.1081 8.57201 31.0003 8.55041 30.8974C8.51477 30.645 8.51477 30.3894 8.55041 30.137C8.56306 30.0674 8.58332 29.9991 8.61089 29.9331C8.64323 29.8427 8.713 29.7672 8.80548 29.7226C8.89797 29.678 9.00594 29.6678 9.10661 29.694C9.27868 29.7267 9.44062 29.7936 9.58073 29.89C9.89177 30.0968 10.1499 30.3477 10.2611 30.6897C10.32 30.8536 10.3353 31.0278 10.3058 31.1981C10.2764 31.3684 10.203 31.53 10.0916 31.6697C10.0355 31.7475 9.9615 31.8133 9.87471 31.8627C9.78792 31.9121 9.69038 31.9438 9.58879 31.9557C9.4872 31.9676 9.38396 31.9594 9.28619 31.9317C9.18841 31.904 9.09841 31.8574 9.02237 31.7951C8.82042 31.6438 8.67794 31.4371 8.61629 31.2061Z" fill="#FF9BBC"/>
<path d="M6.8472 32.0803C6.67885 31.9569 6.54999 31.7948 6.47402 31.611C6.39805 31.4271 6.37774 31.2281 6.4152 31.0347C6.48097 30.6475 6.69932 30.2951 7.02972 30.0429C7.08908 29.9971 7.15525 29.9592 7.22628 29.9302C7.3081 29.8891 7.40361 29.8763 7.495 29.8944C7.5864 29.9124 7.66746 29.96 7.72308 30.0282C7.85471 30.1767 7.94674 30.3507 7.992 30.5368C8.03412 30.674 8.06652 30.8151 8.1 30.9543C8.16436 31.2098 8.14903 31.4765 8.05572 31.7246C7.99534 31.8859 7.88235 32.0267 7.73172 32.1283C7.6009 32.2144 7.44127 32.2566 7.28 32.2478C7.11873 32.2391 6.96579 32.1799 6.8472 32.0803Z" fill="#FF9BBC"/>
<path d="M6.23916 33.7247C6.01597 33.6721 5.81642 33.5577 5.66832 33.3973C5.52022 33.2369 5.43095 33.0386 5.41296 32.83C5.36193 32.5625 5.39952 32.2873 5.52096 32.0391C5.53314 32.0152 5.54685 31.992 5.562 31.9696C5.71536 31.75 5.92704 31.7001 6.17868 31.8265C6.35861 31.9239 6.51537 32.0528 6.63984 32.2057C6.82278 32.3906 6.95784 32.6103 7.03512 32.8486C7.07779 32.9977 7.07779 33.1542 7.03512 33.3033C7.01655 33.3801 6.98064 33.4525 6.92967 33.516C6.87869 33.5796 6.81376 33.6328 6.73896 33.6724C6.66416 33.712 6.58113 33.7371 6.49511 33.7461C6.40908 33.7551 6.32193 33.7478 6.23916 33.7247Z" fill="#FF9BBC"/>
<path d="M11.0484 33.8708C11.0592 33.908 11.0668 33.9462 11.0787 33.9952C11.1219 34.3686 10.9447 34.6548 10.5959 34.8567C10.2374 35.0569 9.80806 35.125 9.39602 35.0468C9.12568 35.0011 8.84629 35.0376 8.60114 35.1507C8.23744 35.3282 7.8139 35.3764 7.41314 35.2859C7.24578 35.2555 7.09047 35.1848 6.9634 35.0814C6.83632 34.978 6.74213 34.8456 6.69062 34.6979C6.64877 34.578 6.63447 34.4517 6.64858 34.3266C6.6627 34.2015 6.70494 34.0804 6.7727 33.9707C6.84627 33.8445 6.93579 33.7264 7.03946 33.6189C7.26551 33.3861 7.44793 33.1213 7.57946 32.8349C7.64116 32.6967 7.73343 32.5713 7.85058 32.4667C7.96773 32.362 8.10727 32.2803 8.2606 32.2265C8.41392 32.1727 8.57776 32.1479 8.74203 32.1538C8.90629 32.1597 9.06749 32.196 9.21566 32.2606C9.41053 32.3428 9.57678 32.472 9.69626 32.634C9.85383 32.8454 10.0683 33.0168 10.3194 33.1319C10.6335 33.2644 10.8821 33.498 11.0171 33.7875C11.0295 33.8146 11.04 33.8424 11.0484 33.8708Z" fill="#FF9BBC"/>
<path d="M11.7234 31.9666C11.7882 32.4086 11.6543 32.7506 11.3076 33.0074C11.2338 33.0693 11.1451 33.1148 11.0486 33.1403C10.9521 33.1658 10.8503 33.1705 10.7514 33.1542C10.6525 33.1378 10.5592 33.1008 10.4788 33.0461C10.3984 32.9914 10.3331 32.9204 10.2881 32.8388C10.2135 32.7158 10.1724 32.5784 10.1682 32.438C10.1563 32.1028 10.2913 31.803 10.4576 31.5139C10.5185 31.4109 10.5944 31.316 10.6834 31.2316C10.7195 31.1913 10.7646 31.1583 10.8158 31.1351C10.8671 31.1118 10.9232 31.0987 10.9804 31.0967C11.0376 31.0946 11.0947 31.1037 11.1478 31.1232C11.2008 31.1428 11.2487 31.1724 11.2882 31.2101C11.4567 31.3488 11.5809 31.5262 11.6478 31.7236C11.6834 31.8118 11.7061 31.9088 11.7234 31.9666Z" fill="#FF9BBC"/>
<path d="M9.14763 41.0522C9.14007 41.0336 9.13467 41.015 9.12603 40.9905C9.10385 40.9069 9.109 40.8193 9.14084 40.7384C9.17268 40.6574 9.22984 40.5867 9.30531 40.5348C9.38243 40.4784 9.47152 40.437 9.56702 40.4133C9.66253 40.3895 9.7624 40.3838 9.86043 40.3966C9.99043 40.4118 10.1221 40.3836 10.2309 40.3172C10.3105 40.2663 10.4005 40.2304 10.4957 40.2117C10.5909 40.193 10.6892 40.1919 10.7849 40.2084C10.8684 40.2203 10.947 40.2519 11.0128 40.3001C11.0786 40.3482 11.1292 40.4113 11.1597 40.4828C11.2126 40.603 11.2126 40.737 11.1597 40.8572C11.1352 40.9248 11.0987 40.9884 11.0517 41.0453C10.8583 41.2551 10.6974 41.3188 10.3443 41.4001C9.99111 41.4814 9.81399 41.4883 9.52887 41.407C9.44769 41.3801 9.37332 41.3387 9.31022 41.2851C9.24712 41.2316 9.1966 41.167 9.16167 41.0953C9.15592 41.0813 9.15123 41.0669 9.14763 41.0522Z" fill="#FF9BBC"/>
<path d="M17.5403 44.0304L18.9767 39.6831C18.9767 39.6831 15.1459 38.4669 14.188 36.7069C13.23 34.9468 14.0206 25.8877 14.9785 23.2583C15.9365 20.629 19.8634 17.2617 25.1543 16.0886C30.4452 14.9156 35.9046 17.2156 37.9393 19.5402C39.9741 21.8647 43.4581 29.5626 43.6741 31.7569C43.8901 33.9511 40.0108 36.554 40.0108 36.554L42.5131 44.0314L17.5403 44.0304Z" fill="#92E3A9"/>
<g opacity="0.1">
<path d="M18.9767 39.6831C19.5642 39.7449 20.129 39.8909 20.7047 40.0046C21.047 40.0673 21.3959 40.1026 21.7436 40.1722C20.7922 40.3211 19.8277 40.0634 18.9778 39.6822L18.9767 39.6831Z" fill="black"/>
<path d="M37.6207 37.8858C38.0992 37.5732 38.623 37.336 39.1327 37.0695C39.4351 36.9068 39.7127 36.7245 40.014 36.553C39.4448 37.2586 38.5268 37.6447 37.624 37.8858H37.6207Z" fill="black"/>
</g>
<path opacity="0.45" d="M37.3173 44.0304C37.3173 44.0304 35.4143 40.4113 34.0135 39.6831C32.6128 38.955 26.0064 39.3313 24.6391 41.0414C23.5332 42.4242 22.9111 44.0304 22.9111 44.0304H37.3173Z" fill="white"/>
<path opacity="0.45" d="M29.2875 39.051C23.9274 39.6586 21.0989 35.5848 21.4391 33.2063C21.8506 30.331 26.3715 29.1354 25.9276 25.9053C25.6598 23.9629 24.0074 23.57 23.8616 22.5116C23.6369 20.8818 25.3271 18.0212 26.3769 17.9056C27.4266 17.7899 29.8394 20.1831 30.064 21.8128C30.2098 22.8712 28.714 23.6209 28.984 25.5633C29.429 28.7924 34.1356 28.9433 35.3139 31.6393C36.288 33.8639 34.6486 38.4434 29.2875 39.051Z" fill="white"/>
<path d="M21.6864 27.5243C19.4616 27.7761 19.8904 30.9131 22.1184 30.6603C24.3465 30.4074 23.9134 27.2714 21.6864 27.5243Z" fill="#263238"/>
<path d="M19.804 26.166C19.8666 25.3634 21.046 24.8518 21.7415 25.382C21.4175 25.4369 21.1172 25.4643 20.8224 25.578C20.4433 25.7162 20.1463 25.9298 19.804 26.1601V26.166Z" fill="#263238"/>
<path d="M34.992 24.4402C34.5978 24.2942 34.2511 24.1531 33.8472 24.1031C33.5297 24.057 33.2273 24.0972 32.9022 24.1158C33.4368 23.4426 34.7091 23.6758 34.992 24.4402Z" fill="#263238"/>
<path d="M33.4984 26.1856C31.2746 26.4374 31.7023 29.5744 33.9304 29.3216C36.1584 29.0687 35.7253 25.9327 33.4984 26.1856Z" fill="#263238"/>
<path d="M29.9646 32.8172C29.8674 33.4258 29.7043 34.3039 28.6341 34.4254C27.5638 34.5469 27.1674 33.7316 26.9061 33.1642C26.9061 33.1642 27.4612 33.3425 27.7938 33.0858C28.1265 32.829 28.1675 31.0483 28.1675 31.0483C28.1675 31.0483 28.6891 32.7653 29.0812 32.9407C29.4732 33.1161 29.9646 32.8172 29.9646 32.8172Z" fill="#FF9BBC"/>
<path d="M28.5509 33.8159C28.28 32.9359 28.1544 32.0244 28.1783 31.1111C28.4487 31.9911 28.5743 32.9025 28.5509 33.8159Z" fill="#263238"/>
<path d="M30.4484 29.5519C30.4808 29.789 30.2443 30.0654 30.1439 30.1879C29.9333 30.4388 29.4808 30.5691 29.3296 30.4398C29.1535 30.2908 29.6244 30.1536 29.5628 29.9978C29.5175 29.8812 29.3468 29.7038 29.1136 29.7704C28.8803 29.8371 29.052 30.4241 28.971 30.6211C28.9092 30.7644 28.8068 30.8903 28.674 30.986C28.5412 31.0817 28.3828 31.1438 28.215 31.1659H28.1912C28.0224 31.1822 27.8517 31.1576 27.6967 31.0946C27.5417 31.0316 27.4079 30.9324 27.3089 30.8073C27.1771 30.6348 27.1868 30.0233 26.9406 30.0144C26.6944 30.0056 26.5788 30.2104 26.5658 30.3349C26.5486 30.4995 27.0421 30.5309 26.9125 30.7112C26.8045 30.87 26.3261 30.8445 26.055 30.6485C25.9243 30.5505 25.623 30.3369 25.5874 30.1007C25.5431 29.7841 26.1986 29.0423 27.8726 28.8531H27.8964C29.5693 28.663 30.4052 29.2353 30.4484 29.5519Z" fill="#263238"/>
<path d="M25.3282 31.7667C25.4584 31.9372 25.606 32.0963 25.7688 32.242C26.0777 32.5262 26.4049 32.8064 26.811 32.9613C27.0832 33.0593 27.3921 33.1573 27.648 33.026C27.837 32.8682 27.8781 32.5154 27.9439 32.2753C28.0282 31.8745 28.0908 31.4638 28.1686 31.0513C28.2442 31.5942 28.3187 32.8329 27.8705 33.2396C27.5195 33.4836 27.0259 33.3621 26.6825 33.2033C26.2505 33.0073 25.9265 32.6741 25.6554 32.3213C25.5182 32.1522 25.409 31.9656 25.3314 31.7676L25.3282 31.7667Z" fill="#263238"/>
<path d="M31.117 31.1111C31.0943 31.321 31.0375 31.5267 30.9485 31.7216C30.7822 32.1195 30.5543 32.5183 30.1925 32.7996C29.9052 33.0299 29.4592 33.2582 29.0542 33.0995C28.5142 32.8055 28.2452 31.5883 28.1707 31.0415C28.3586 31.4247 28.5304 31.8078 28.7204 32.1773C28.849 32.3958 28.985 32.729 29.2118 32.8388C29.4937 32.9054 29.768 32.7457 30.0046 32.5899C30.3577 32.3488 30.5975 32.0019 30.82 31.6599C30.9389 31.484 31.0391 31.2983 31.1191 31.1052L31.117 31.1111Z" fill="#263238"/>
<path d="M30.996 35.5622C30.456 35.8082 29.8771 36.0081 29.3123 36.0522C29.2669 36.0522 29.2507 36.1267 29.2896 36.1502C29.3976 36.2198 29.6946 36.4148 29.741 36.4442C29.7065 36.4501 29.6719 36.456 29.633 36.4599C29.5166 36.4743 29.3995 36.4828 29.282 36.4854C29.047 36.4905 28.8119 36.4754 28.58 36.4403C28.3478 36.4051 28.1201 36.3483 27.9007 36.2708C27.6772 36.1934 27.4687 36.0875 27.2527 35.9895C27.243 35.9895 27.2344 36.0042 27.243 36.0111C27.4335 36.165 27.6478 36.2928 27.8791 36.3903C28.0937 36.4859 28.3189 36.5605 28.5509 36.6128C28.7834 36.6651 29.0219 36.6927 29.2615 36.6951C29.3863 36.6957 29.511 36.6905 29.6352 36.6794C29.7598 36.6767 29.8826 36.6511 29.9959 36.604C30.0715 36.5667 30.0402 36.4482 29.9797 36.4256C29.943 36.4119 29.5207 36.1728 29.4592 36.1365C29.706 36.1114 29.9491 36.0614 30.1838 35.9876C30.4763 35.8918 30.7539 35.7623 31.01 35.6024C31.0316 35.5926 31.0165 35.5515 30.996 35.5622Z" fill="#263238"/>
<path opacity="0.1" d="M17.5403 44.0304L18.9767 39.6831C18.9767 39.6831 15.1459 38.467 14.188 36.7069C13.4255 35.3055 13.7711 29.2804 14.4267 25.5545C14.404 27.0245 14.3327 34.3813 15.6967 36.1306C17.0608 37.8799 19.7554 38.9726 23.2751 39.6831C23.2751 39.6831 21.7415 41.1061 21.7415 42.2468C21.7415 43.0161 22.9543 44.0304 28.0174 44.0304H17.5403Z" fill="black"/>
<path opacity="0.1" d="M40.1253 36.894C40.1253 36.894 40.621 41.2472 40.4298 42.2899C40.2387 43.3326 36.1682 44.0304 36.1682 44.0304H42.5132L40.1253 36.894Z" fill="black"/>
<path d="M22.2145 17.0089C21.7663 17.1314 21.0719 16.8383 20.749 16.5238C20.426 16.2092 19.8385 15.0998 19.8385 15.0998C19.8385 15.0998 19.6592 16.121 19.7554 16.5992C19.8042 16.8719 19.9185 17.1315 20.0902 17.3597C19.6394 17.1433 19.247 16.8391 18.941 16.4689C18.509 15.9044 18.2466 15.5349 17.645 15.4369C17.0435 15.3389 15.2982 17.6096 13.9223 18.3701C12.5464 19.1306 11.1143 19.5216 10.5937 20.2605C10.0732 20.9994 10.1153 24.4745 10.9534 26.5609C11.7914 28.6473 14.0411 30.7749 15.0466 30.4496C16.052 30.1242 15.4472 27.7369 16.9798 24.7391C18.157 22.4361 19.7878 21.412 19.7878 21.412L22.2145 17.0089Z" fill="#92E3A9"/>
<path opacity="0.1" d="M19.4778 21.6384C18.9475 22.0539 17.8427 23.0535 16.9819 24.7391C15.4505 27.7369 16.0553 30.1242 15.0498 30.4496C14.0443 30.7749 11.7936 28.6464 10.9555 26.558C11.4469 27.538 13.7538 29.4686 14.4515 28.9913C14.9915 28.6229 15.3867 26.0798 16.2356 24.646C17.064 23.2603 19.332 21.7325 19.4778 21.6384Z" fill="black"/>
<path d="M22.2145 17.0089C21.6745 17.1333 21.0211 16.8452 20.6604 16.4748C20.4877 16.2648 20.3314 16.0441 20.1928 15.8142C20.0513 15.5869 19.9163 15.3566 19.7856 15.1233L19.8936 15.1086C19.7997 15.8407 19.6549 16.6766 20.1593 17.3097L20.3872 17.5959L20.0459 17.4342C19.7219 17.2804 19.4243 17.0846 19.1625 16.853C18.6549 16.413 18.3881 15.6427 17.6137 15.5447C17.3481 15.5859 17.1407 15.8025 16.9366 15.9612C16.1806 16.6267 15.4861 17.3822 14.6826 18.0192C13.621 18.8895 12.1489 19.2099 11.0517 20.0077C10.7967 20.1907 10.6255 20.4529 10.5711 20.7436C10.4447 21.3653 10.3922 21.9974 10.4145 22.6292C10.4458 23.8963 10.6045 25.186 11.0398 26.3924C11.2692 26.991 11.5798 27.5615 11.9643 28.0907C12.4729 28.8218 13.9709 30.5711 15.0088 30.3692C15.1341 30.332 15.2334 30.2046 15.3069 30.0703C15.5229 29.6411 15.6157 29.1628 15.7248 28.6983C16.1493 26.8363 16.4949 24.8097 17.8773 23.2995C16.9949 24.3177 16.5813 25.5839 16.2756 26.8275C16.1266 27.4557 16.0143 28.0897 15.8868 28.7238C15.7788 29.201 15.6989 29.691 15.4753 30.1418C15.1945 30.7671 14.4893 30.5995 13.9795 30.3212C13.0518 29.8028 12.3401 29.0305 11.7342 28.224C10.503 26.5923 10.1617 24.5686 10.1013 22.6311C10.0937 22.3067 10.1013 21.9814 10.1185 21.6511C10.165 21.1503 10.1844 20.6378 10.462 20.1743C10.7741 19.7431 11.2882 19.4785 11.758 19.2423C12.5453 18.8611 13.3542 18.5563 14.0811 18.1065C14.4993 17.8195 14.8918 17.503 15.255 17.1598C15.7551 16.708 16.227 16.2258 16.7541 15.7829C16.9636 15.6163 17.1709 15.436 17.4463 15.3429C17.5299 15.3154 17.6208 15.3119 17.7066 15.3331L17.7768 15.3478C18.5328 15.5193 18.8082 16.2543 19.3007 16.7198C19.5432 16.9424 19.8201 17.1319 20.1226 17.2823L20.0092 17.4067C19.8836 17.2368 19.7885 17.0499 19.7273 16.853C19.5329 16.219 19.7057 15.5516 19.8029 14.9175C20.0729 15.434 20.3429 15.9671 20.7036 16.4346C21.0449 16.8011 21.6637 17.1088 22.2059 17.0049L22.2145 17.0089Z" fill="#263238"/>
<path d="M29.9462 15.8966C30.4128 15.9299 31.0262 15.5046 31.2638 15.138C31.5014 14.7715 31.8168 13.57 31.8168 13.57C31.8168 13.57 32.2326 14.5334 32.2488 15.0185C32.2651 15.2942 32.2146 15.5699 32.1008 15.826C32.4898 15.527 32.8013 15.1539 33.0134 14.7333C33.3018 14.0983 33.4713 13.6857 34.0329 13.474C34.5945 13.2623 36.8409 15.14 38.3616 15.6173C39.8822 16.0945 41.3856 16.1964 42.0584 16.8178C42.7313 17.4391 43.524 20.8436 43.2 23.0437C42.876 25.2438 41.1707 27.7595 40.1123 27.636C39.0539 27.5125 39.0819 25.0635 36.8787 22.4322C35.1864 20.4104 33.3515 19.7264 33.3515 19.7264L29.9462 15.8966Z" fill="#92E3A9"/>
<path opacity="0.1" d="M43.2 23.0427C42.876 25.2428 41.1761 27.7595 40.1166 27.637C39.1565 27.5252 39.0917 25.4976 37.4404 23.1564C37.4401 23.1541 37.4401 23.1518 37.4404 23.1495C38.3498 23.8885 39.4989 26.5168 40.3132 26.604C41.1275 26.6913 42.3846 24.6529 42.7432 23.272C42.9592 22.44 43.0618 19.7019 43.0672 19.6402C43.2605 20.776 43.3448 22.0333 43.2 23.0427Z" fill="black"/>
<path d="M29.9462 15.8966C30.4981 15.8966 31.0338 15.4722 31.28 15.0479C31.5241 14.5206 31.6591 13.9483 31.8017 13.3917C32.0457 13.9914 32.3719 14.6108 32.3309 15.2674C32.3187 15.4715 32.2698 15.6725 32.1861 15.8623L32.0468 15.7643C32.3064 15.5582 32.5322 15.3197 32.7175 15.0557C33.089 14.5069 33.1797 13.7347 33.8817 13.4201C33.9785 13.3656 34.0924 13.3414 34.2057 13.3515C34.4963 13.3887 34.7457 13.525 34.9866 13.6455C35.6087 13.9758 36.18 14.356 36.7751 14.7C37.2105 14.9653 37.6689 15.1983 38.1456 15.3968C38.961 15.6908 39.8228 15.8358 40.6814 16.0563C41.202 16.1945 41.7614 16.3503 42.1729 16.7149C42.5531 17.1127 42.6924 17.6096 42.8565 18.0869C42.9537 18.4014 43.0337 18.719 43.1028 19.0375C43.5002 20.9416 43.6428 22.9849 42.8252 24.8195C42.4245 25.725 41.9105 26.6178 41.1275 27.3038C40.6955 27.6693 40.0475 27.98 39.623 27.4194C39.299 27.0215 39.1025 26.5599 38.8875 26.114C38.6132 25.5192 38.3551 24.9214 38.0603 24.3373C37.4727 23.178 36.7643 22.0216 35.6637 21.2013C37.3712 22.4087 38.1845 24.3167 39.0387 26.0582C39.2547 26.4629 39.65 27.4606 40.1328 27.5507C41.1912 27.5507 42.2507 25.5349 42.5693 24.7342C42.8203 24.1427 42.9893 23.5251 43.0725 22.8957C43.2129 21.6325 43.065 20.3418 42.7961 19.0982C42.6691 18.4765 42.4689 17.869 42.1988 17.2862C42.0771 17.0129 41.8482 16.7902 41.5562 16.661C40.2959 16.0945 38.7828 16.0671 37.5408 15.4232C36.6055 14.9587 35.7501 14.355 34.8537 13.8552C34.6172 13.7386 34.3645 13.5681 34.0977 13.5798C33.3644 13.8258 33.2856 14.6294 32.8925 15.1576C32.6915 15.4347 32.447 15.6837 32.1667 15.8966L31.8719 16.122L32.0263 15.7966C32.3697 15.0792 32.0317 14.2933 31.7682 13.5955L31.8762 13.5887C31.8049 13.8415 31.7261 14.0924 31.6418 14.3423C31.5605 14.5937 31.4598 14.8397 31.3405 15.0783C31.0759 15.5085 30.5078 15.9191 29.9484 15.9015L29.9462 15.8966Z" fill="#263238"/>
<path d="M12.312 43.5639C12.1965 44.2568 13.0119 45.079 13.5508 45.1613C14.0897 45.2437 14.5023 44.884 14.5023 44.884C14.5023 44.884 14.9872 45.57 15.9063 45.6494C16.1635 45.6777 16.4245 45.6478 16.6659 45.5623C16.9073 45.4768 17.1217 45.3384 17.2897 45.1594C17.2897 45.1594 17.8298 45.5337 18.7801 45.5337C19.7305 45.5337 20.196 44.688 20.196 44.688C20.196 44.688 20.844 44.8517 21.3095 44.5096C21.775 44.1676 21.8841 43.3199 21.5611 42.6682C21.2382 42.0165 19.332 39.984 17.0252 39.9575C14.7183 39.9311 12.4881 42.4889 12.312 43.5639Z" fill="#92E3A9"/>
<path d="M14.688 43.0308C14.5152 43.6521 14.4126 44.2685 14.5325 44.9055C14.1113 44.3509 14.2301 43.5335 14.688 43.0308Z" fill="#263238"/>
<path d="M19.7726 42.7172C20.3299 43.1896 20.5988 44.0471 20.1766 44.6615C20.2846 43.9755 20.0621 43.3395 19.7726 42.7172Z" fill="#263238"/>
<path d="M17.2422 43.12C17.3804 43.7962 17.3567 44.4714 17.2994 45.1564C17.0586 44.5047 17.0834 43.7844 17.2422 43.12Z" fill="#263238"/>
<path opacity="0.1" d="M20.101 44.8252C19.9239 45.0643 19.4832 45.5357 18.7726 45.5357C17.8211 45.5357 17.2822 45.1613 17.2822 45.1613C17.1143 45.3402 16.9002 45.4786 16.6589 45.5641C16.4177 45.6496 16.1569 45.6796 15.8998 45.6513C14.984 45.57 14.4958 44.885 14.4958 44.885C14.4958 44.885 14.0832 45.2437 13.5443 45.1623C13.0054 45.081 12.1889 44.2588 12.3056 43.5659C12.4136 42.9005 13.311 41.6686 14.5228 40.8317C13.3478 41.8568 13.0022 42.779 13.1339 43.3532C13.2657 43.9275 13.8046 44.4508 14.4299 44.2225C14.4299 44.2225 15.1967 45.0251 15.9624 45.1613C16.1937 45.1973 16.431 45.1842 16.6559 45.1232C16.8807 45.0622 17.0869 44.9548 17.2584 44.8095C17.2584 44.8095 18.1505 45.3397 18.8709 45.3201C19.5912 45.3005 20.101 44.8252 20.101 44.8252Z" fill="black"/>
<path d="M35.8355 44.0304H45.4237C45.4237 44.0304 44.9842 37.6888 45.0026 37.5036C45.0209 37.3184 46.4865 36.798 46.3309 35.4829C46.2229 34.5705 45.5361 34.6508 45.4065 34.4323C45.2769 34.2138 45.2412 32.6222 44.347 32.4115C43.4527 32.2008 43.456 32.6869 43.1082 32.632C42.7605 32.5772 42.8296 32.0127 41.9796 32.1087C40.9752 32.2214 40.6912 33.1387 40.4676 33.3239C40.2441 33.5091 39.7494 33.1946 38.9945 33.9599C38.2742 34.691 39.2278 36.1434 39.1025 36.4609C39.0269 36.652 35.8355 44.0304 35.8355 44.0304Z" fill="#92E3A9"/>
<path opacity="0.2" d="M41.8846 42.532C41.6513 42.0018 41.4731 41.4481 41.4666 40.915C41.4666 40.8728 41.3878 40.8523 41.3586 40.8866C41.2711 40.9797 41.0227 41.2423 40.9871 41.2835C40.9871 41.2501 40.9795 41.2178 40.9785 41.1855C40.972 41.0751 40.972 40.9646 40.9785 40.8542C40.9916 40.6344 41.0278 40.4162 41.0865 40.2025C41.1463 39.9883 41.2299 39.7802 41.3359 39.5812C41.4439 39.3793 41.5822 39.1892 41.7107 38.9932C41.7172 38.9844 41.6967 38.9746 41.688 38.9824C41.497 39.1471 41.3337 39.3363 41.2031 39.544C41.0763 39.7366 40.9724 39.9409 40.8931 40.1535C40.8138 40.3665 40.7619 40.5872 40.7387 40.8111C40.7268 40.9274 40.7225 41.0442 40.7257 41.161C40.7181 41.2777 40.7365 41.3947 40.7797 41.5049C40.8154 41.5784 40.9525 41.5598 40.9839 41.5049C41.0022 41.4726 41.3079 41.0973 41.3575 41.0434C41.3648 41.275 41.4011 41.5051 41.4655 41.7294C41.5491 42.011 41.6721 42.2817 41.8317 42.5349C41.8468 42.5643 41.8943 42.5535 41.8846 42.532Z" fill="black"/>
<path d="M43.0207 34.3392C43.0315 34.2353 43.0575 34.1324 43.0758 34.0285C43.1393 33.7806 43.2369 33.5409 43.3663 33.3151C43.405 33.254 43.4502 33.1966 43.5013 33.1436C43.5654 33.0678 43.6596 33.0179 43.7637 33.0043C43.8678 32.9908 43.9737 33.0147 44.0586 33.071C44.2075 33.1572 44.3333 33.2724 44.4269 33.4082C44.6429 33.7022 44.7865 34.0167 44.7595 34.3725C44.7524 34.545 44.7003 34.7135 44.6075 34.8643C44.5148 35.015 44.3841 35.1437 44.226 35.2398C44.1436 35.2951 44.049 35.3335 43.9487 35.3525C43.8484 35.3714 43.7448 35.3704 43.6449 35.3496C43.545 35.3287 43.4514 35.2885 43.3703 35.2316C43.2892 35.1748 43.2226 35.1027 43.1752 35.0203C43.0431 34.8146 42.9889 34.5754 43.0207 34.3392Z" fill="#FF9BBC"/>
<path d="M41.0259 34.6018C40.9165 34.4326 40.8588 34.2399 40.8588 34.0437C40.8588 33.8475 40.9165 33.6548 41.0259 33.4856C41.2362 33.1434 41.5757 32.8817 41.9817 32.7486C42.0548 32.7249 42.1311 32.7104 42.2085 32.7055C42.3015 32.6921 42.3966 32.7098 42.4761 32.7555C42.5557 32.8011 42.6141 32.8715 42.6405 32.9535C42.706 33.1343 42.7252 33.3264 42.6967 33.515C42.6837 33.6571 42.66 33.7992 42.6405 33.9413C42.6029 34.2008 42.4866 34.4458 42.3047 34.6489C42.1857 34.7813 42.0253 34.878 41.8446 34.9262C41.6879 34.9672 41.5203 34.9572 41.3708 34.8979C41.2213 34.8387 41.0994 34.734 41.0259 34.6018Z" fill="#FF9BBC"/>
<path d="M39.8272 35.9532C39.6603 35.846 39.5289 35.6994 39.4472 35.5292C39.3655 35.3591 39.3367 35.1719 39.3639 34.9879C39.3709 34.944 39.3806 34.9005 39.393 34.8576C39.4492 34.5908 39.5908 34.345 39.8002 34.151C39.8209 34.1324 39.8429 34.115 39.8661 34.0991C40.094 33.9413 40.311 33.9609 40.499 34.1588C40.6305 34.3069 40.7285 34.4771 40.7873 34.6596C40.8881 34.8909 40.9305 35.1397 40.9115 35.3878C40.8946 35.5409 40.8344 35.6874 40.7366 35.8131C40.6894 35.8791 40.6276 35.9355 40.5552 35.9788C40.4828 36.022 40.4013 36.0512 40.3158 36.0643C40.2303 36.0775 40.1427 36.0744 40.0586 36.0553C39.9745 36.0362 39.8957 36.0014 39.8272 35.9532Z" fill="#FF9BBC"/>
<path d="M44.28 37.6036C44.28 37.6418 44.2681 37.68 44.2606 37.73C44.1591 38.0936 43.8837 38.3062 43.4787 38.3856C43.0665 38.4616 42.6379 38.3915 42.2809 38.1896C42.0449 38.0616 41.7689 38.0079 41.4958 38.0367C41.0863 38.0891 40.67 38.0011 40.3283 37.7898C40.1833 37.7087 40.0648 37.5941 39.9849 37.4577C39.905 37.3213 39.8666 37.168 39.8736 37.0136C39.8804 36.8881 39.9154 36.7652 39.9765 36.6524C40.0376 36.5397 40.1235 36.4395 40.2289 36.358C40.3463 36.2625 40.4757 36.1799 40.6145 36.112C40.9167 35.9653 41.1904 35.7746 41.4245 35.5475C41.5353 35.4372 41.6697 35.3487 41.8196 35.2873C41.9696 35.226 42.1317 35.1931 42.2962 35.1908C42.4606 35.1885 42.6238 35.2168 42.7757 35.274C42.9277 35.3311 43.0651 35.4159 43.1795 35.523C43.3291 35.6601 43.4347 35.8315 43.4851 36.0189C43.5523 36.2666 43.688 36.4946 43.8793 36.6814C44.1229 36.905 44.2668 37.2023 44.2833 37.5163C44.2842 37.5455 44.2831 37.5746 44.28 37.6036Z" fill="#FF9BBC"/>
<path d="M45.6441 36.0297C45.5361 36.4648 45.2801 36.7412 44.8568 36.8754C44.7638 36.9103 44.6631 36.9251 44.5626 36.9186C44.4622 36.9121 44.3649 36.8844 44.2783 36.8378C44.1918 36.7912 44.1183 36.727 44.0639 36.6501C44.0094 36.5733 43.9755 36.486 43.9647 36.3952C43.9413 36.2553 43.9557 36.1124 44.0068 35.9787C44.1245 35.6592 44.3654 35.4201 44.6321 35.2016C44.7297 35.1231 44.8387 35.0571 44.9561 35.0056C45.0053 34.9792 45.0601 34.9626 45.1169 34.957C45.1737 34.9513 45.2312 34.9567 45.2856 34.9727C45.3399 34.9887 45.3899 35.0151 45.4321 35.05C45.4744 35.0849 45.508 35.1275 45.5307 35.1751C45.6363 35.3585 45.6852 35.5644 45.6722 35.771C45.6657 35.868 45.6495 35.966 45.6441 36.0297Z" fill="#FF9BBC"/>
<path opacity="0.1" d="M43.6245 32.4184C43.5229 32.4674 43.3069 32.68 43.1212 32.6722C42.9354 32.6644 42.6449 32.2978 42.5283 32.241C42.4116 32.1842 41.9796 32.1087 41.5098 32.3713C41.04 32.634 40.824 33.1857 40.5519 33.418C40.2797 33.6502 40.1328 33.5483 39.8758 33.614C39.6188 33.6796 39.1867 33.9619 39.0917 34.5381C38.9967 35.1144 39.6058 36.4276 39.582 36.5579C39.5583 36.6882 37.7212 41.7774 38.0625 42.7064C38.4415 43.7403 42.7011 44.0157 42.7011 44.0157L42.6708 44.0353H35.8355C35.8355 44.0353 39.0269 36.6588 39.1036 36.4658C39.2289 36.1483 38.2752 34.6959 38.9956 33.9648C39.7516 33.1994 40.2452 33.514 40.4676 33.3288C40.6901 33.1436 40.9742 32.2263 41.9796 32.1136C42.8296 32.0156 42.7605 32.582 43.1082 32.6369C43.3145 32.6644 43.402 32.5076 43.6245 32.4184Z" fill="black"/>
</svg>
