<svg width="396" height="396" viewBox="0 0 396 396" fill="none" xmlns="http://www.w3.org/2000/svg">
<path d="M175.439 336.545C175.439 336.545 229.014 345.151 271.03 307.501C313.046 269.851 324.605 208.642 335.266 159.347C345.927 110.051 323.272 66.1867 281.397 52.13C239.521 38.0733 221.413 73.8211 169.76 85.112C118.107 96.4028 102.396 91.474 66.0929 129.499C29.7893 167.523 38.1536 239.622 84.1543 285.482C130.155 331.342 175.439 336.545 175.439 336.545Z" fill="#92E3A9"/>
<path opacity="0.7" d="M175.439 336.545C175.439 336.545 229.014 345.151 271.03 307.501C313.046 269.851 324.605 208.642 335.266 159.347C345.927 110.051 323.272 66.1867 281.397 52.13C239.521 38.0733 221.413 73.8211 169.76 85.112C118.107 96.4028 102.396 91.474 66.0929 129.499C29.7893 167.523 38.1536 239.622 84.1543 285.482C130.155 331.342 175.439 336.545 175.439 336.545Z" fill="white"/>
<path d="M193.303 340.56C278.161 340.56 346.951 335.418 346.951 329.076C346.951 322.734 278.161 317.592 193.303 317.592C108.446 317.592 39.6554 322.734 39.6554 329.076C39.6554 335.418 108.446 340.56 193.303 340.56Z" fill="#263238"/>
<path d="M370.743 301.752C370.743 301.752 375.368 302.837 377.538 306.369C379.709 309.902 381.617 314.289 385.15 314.289C388.682 314.289 379.17 316.459 372.375 314.012C365.579 311.565 354.436 309.941 354.436 309.941C354.436 309.941 361.77 302.283 370.743 301.752Z" fill="#242424" stroke="#263238" stroke-linecap="round" stroke-linejoin="round"/>
<path d="M334.588 317.774C334.588 317.774 344.092 322.669 351.711 319.675C359.33 316.681 359.631 308.531 363.678 305.268C367.726 302.005 370.743 301.736 370.743 301.736C370.743 301.736 351.442 304.183 341.93 301.736C335.585 300.21 329.642 297.336 324.506 293.309C322.059 291.408 319.881 290.046 319.881 290.046C319.881 290.046 319.089 298.758 323.144 306.631C325.714 311.44 329.712 315.333 334.588 317.774Z" fill="#919191" stroke="#263238" stroke-linecap="round" stroke-linejoin="round"/>
<path d="M351.711 319.675C359.323 316.689 359.631 308.532 363.679 305.269C367.425 302.267 370.252 301.8 370.68 301.744C370.015 301.823 364.035 302.536 357.271 302.758C354.048 306.718 351.403 311.961 346.508 315.303C338.588 320.72 328.87 313.497 328.87 313.497L328.688 313.719C330.451 315.346 332.438 316.712 334.588 317.774C334.588 317.774 344.1 322.669 351.711 319.675Z" fill="#92E3A9" stroke="#263238" stroke-linecap="round" stroke-linejoin="round"/>
<path d="M299.788 181.305C299.788 181.305 308.5 200.875 308.5 229.419C308.5 257.962 324.807 293.848 326.985 301.491C329.163 309.133 336.228 317.798 336.228 317.798C336.228 317.798 318.012 315.897 307.138 310.187C296.263 304.476 281.215 300.366 281.215 284.328C281.215 268.29 280.217 222.085 276.954 200.875C273.691 179.665 281.849 173.424 288.375 174.509C294.901 175.594 299.788 181.305 299.788 181.305Z" fill="#242424" stroke="#263238" stroke-linecap="round" stroke-linejoin="round"/>
<path d="M193.771 273.192C193.771 273.192 194.563 279.719 202.198 279.719C209.833 279.719 213.048 268.567 213.888 266.666C214.727 264.766 194.832 271.284 193.771 273.192Z" fill="#242424" stroke="#263238" stroke-linecap="round" stroke-linejoin="round"/>
<path d="M246.779 86.431C246.779 86.431 232.911 83.9837 223.669 97.3051C214.426 110.627 211.71 124.233 215.749 132.644C219.788 141.055 217.111 145.419 210.854 147.32C204.597 149.221 191.284 142.703 183.134 155.747C174.984 168.791 180.14 177.495 184.766 184.021C189.391 190.547 179.055 191.632 172.529 200.606C166.003 209.579 170.898 241.924 204.882 235.675C238.867 229.427 240.522 214.474 242.669 200.606C244.815 186.738 255.444 175.594 267.134 176.141C278.824 176.687 288.613 171.793 287.797 159.01C286.981 146.227 277.192 144.873 277.739 137.262C278.285 129.65 285.08 122.855 279.917 108.179C274.753 93.5035 258.469 84.7994 246.779 86.431Z" fill="#263238" stroke="#263238" stroke-linecap="round" stroke-linejoin="round"/>
<path d="M263.34 146.053C263.34 146.053 264.425 160.428 265.779 162.32C267.134 164.213 273.105 167.207 281.509 169.916C289.912 172.624 294.252 186.183 291.274 201.374C288.296 216.564 281.77 235.264 282.562 239.065C283.354 242.867 294.489 254.517 291.274 270.745C288.058 286.973 286.704 284.613 286.704 284.613C286.704 284.613 291.313 281.904 294.561 284.344C297.808 286.783 301.071 288.145 305.411 287.599C309.751 287.052 314.915 288.145 319.509 294.109C324.102 300.073 326.288 306.852 332.252 310.108C338.216 313.363 360.455 316.071 360.455 317.426C360.455 318.78 349.613 325.56 337.139 328.815C324.665 332.07 297.792 332.64 280.97 333.155C264.148 333.67 248.973 335.594 232.159 336.679C215.345 337.764 213.151 337.471 199.346 331.254C185.542 325.037 180.338 323.389 178.469 313.363C176.6 303.336 184.013 295.939 191.213 288.953C197.842 282.546 222.101 255.333 225.11 248.561C228.12 241.79 230.527 236.357 231.89 232.563C233.252 228.769 226.734 211.686 223.479 200.02C220.224 188.353 222.394 180.774 222.394 180.774C222.394 180.774 207.75 175.349 202.332 167.754C196.915 160.158 200.701 157.719 209.65 155.549C218.6 153.379 225.649 153.965 230.527 153.965C235.406 153.965 242.732 156.404 244.087 156.404C245.441 156.404 243.295 148.27 243.295 148.27C246.488 149.562 249.879 150.296 253.321 150.44C258.192 150.393 263.34 146.053 263.34 146.053Z" fill="#92E3A9" stroke="#263238" stroke-linecap="round" stroke-linejoin="round"/>
<path d="M265.779 162.36C264.425 160.467 263.34 146.092 263.34 146.092C263.34 146.092 258.192 150.432 253.305 150.432C249.864 150.288 246.472 149.554 243.279 148.262C243.279 148.262 245.441 156.396 244.071 156.396C243.16 156.396 239.525 155.287 235.763 154.567C235.493 158.915 234.511 183.435 246.177 186.247C255.753 188.528 264.647 176.481 270.563 165.655C268.108 164.364 266.421 163.223 265.779 162.36Z" fill="#B2B2B2" stroke="#263238" stroke-linecap="round" stroke-linejoin="round"/>
<path d="M332.212 310.108C326.249 306.853 324.079 300.073 319.469 294.109C314.86 288.146 309.712 287.06 305.371 287.599C301.031 288.138 297.776 286.807 294.521 284.344C292.145 282.546 288.977 283.552 287.52 284.193C287.769 283.786 287.981 283.356 288.153 282.91L281.025 291.409C281.025 291.409 284.288 293.309 289.452 292.494C294.616 291.678 301.958 293.286 305.76 301.467C309.561 309.648 308.484 309.617 311.747 313.157C315.01 316.697 327.785 323.453 334.034 325.385C339.578 327.072 342.35 327.049 342.896 327.025C352.749 323.532 360.408 318.566 360.408 317.426C360.415 316.071 338.184 313.363 332.212 310.108Z" fill="white" stroke="#263238" stroke-linecap="round" stroke-linejoin="round"/>
<path d="M199.045 311.486C200.383 308.186 202.195 305.099 204.423 302.322C212.43 292.303 243.334 272.567 255.349 263.696" stroke="#263238" stroke-linecap="round" stroke-linejoin="round"/>
<path d="M196.701 322.344C196.721 320.457 196.955 318.579 197.398 316.745" stroke="#263238" stroke-linecap="round" stroke-linejoin="round"/>
<path d="M262.73 257.218C264.085 257.036 265.447 256.901 266.793 256.83" stroke="#263238" stroke-linecap="round" stroke-linejoin="round"/>
<path d="M232.745 267.696C240.157 263.69 248.026 260.594 256.18 258.477" stroke="#263238" stroke-linecap="round" stroke-linejoin="round"/>
<path d="M286.704 284.613C286.704 284.613 265.851 313.125 242.471 321.306" stroke="#263238" stroke-linecap="round" stroke-linejoin="round"/>
<path d="M261.091 310.464C261.091 310.464 256.022 318.566 249.496 323.192" stroke="#263238" stroke-linecap="round" stroke-linejoin="round"/>
<path d="M273.066 321.948C284.597 319.817 304.286 315.343 318.273 307.692" stroke="#263238" stroke-linecap="round" stroke-linejoin="round"/>
<path d="M263.633 323.485C263.633 323.485 265.257 323.271 268.013 322.827" stroke="#263238" stroke-linecap="round" stroke-linejoin="round"/>
<path d="M285.912 171.246C285.912 171.246 278.839 176.141 269.874 187.015C260.909 197.889 247.896 240.023 239.437 254.161C230.979 268.298 210.347 272.646 203.797 272.915C197.248 273.185 193.739 273.192 193.739 273.192C193.739 273.192 213.539 260.14 220.92 248.728C228.302 237.315 232.341 211.749 243.215 195.173C254.089 178.596 267.134 162.819 267.134 162.819C267.134 162.819 279.402 166.32 285.912 171.246Z" fill="#919191" stroke="#263238" stroke-linecap="round" stroke-linejoin="round"/>
<path d="M269.66 163.604C268.132 163.097 267.165 162.812 267.165 162.812C267.165 162.812 254.121 178.58 243.247 195.165C232.373 211.749 228.294 237.299 220.952 248.72C219.253 251.259 217.311 253.628 215.155 255.792C222.497 252.244 225.95 246.597 229.411 238.566C233.735 228.587 246.146 198.317 253.836 186.104C259.531 177.091 266.437 167.833 269.66 163.604Z" fill="#92E3A9" stroke="#263238" stroke-linecap="round" stroke-linejoin="round"/>
<path d="M239.437 254.161C247.864 240.024 260.916 197.889 269.89 187.015C278.863 176.141 285.912 171.246 285.912 171.246C284.834 170.453 283.707 169.729 282.538 169.076C274.234 173.85 267.431 180.851 262.897 189.288C252.498 208.296 242.091 247.183 225.815 258.984C214.585 267.094 205.073 268.536 200.257 268.646C196.471 271.466 193.771 273.248 193.771 273.248C193.771 273.248 197.303 273.248 203.829 272.971C210.355 272.694 231.011 268.298 239.437 254.161Z" fill="#92E3A9" stroke="#263238" stroke-linecap="round" stroke-linejoin="round"/>
<path d="M265.779 124.906C265.779 124.906 266.864 118.396 269.85 119.481C272.836 120.566 271.743 125.991 270.935 128.7C270.639 129.54 270.173 130.31 269.566 130.962C268.96 131.615 268.227 132.136 267.411 132.494L265.779 124.906Z" fill="#B2B2B2" stroke="#263238" stroke-linecap="round" stroke-linejoin="round"/>
<path d="M231.874 133.096C231.874 133.096 227.193 128.447 225.403 131.068C223.613 133.69 227.66 137.459 229.91 139.186C230.642 139.692 231.471 140.041 232.344 140.213C233.218 140.385 234.117 140.375 234.986 140.184L231.874 133.096Z" fill="#B2B2B2" stroke="#263238" stroke-linecap="round" stroke-linejoin="round"/>
<path d="M244.633 103.483C244.633 103.483 236.768 120.02 228.357 127.884C228.357 127.884 233.783 141.443 236.768 147.138C239.754 152.832 250.327 157.172 255.776 157.172C261.225 157.172 266.627 148.223 267.981 143.613C269.335 139.004 265.272 114.309 265.272 114.309C265.272 114.309 248.427 108.908 244.633 103.483Z" fill="#B2B2B2" stroke="#263238" stroke-linecap="round" stroke-linejoin="round"/>
<path d="M255.547 128.114C255.27 127.639 255.1 127.109 255.051 126.562C255.002 126.014 255.074 125.463 255.262 124.946C255.61 123.882 256.3 122.963 257.226 122.332C258.123 121.719 259.188 121.398 260.275 121.414C260.793 121.424 261.308 121.506 261.803 121.659C262.31 121.847 262.783 122.114 263.205 122.451V122.673C262.366 122.731 261.533 122.867 260.718 123.077C259.913 123.293 259.15 123.644 258.461 124.114C257.074 125.065 256.106 126.515 255.761 128.161L255.547 128.114Z" fill="#263238"/>
<path d="M235.224 129.524C235.315 128.977 235.525 128.457 235.84 128.001C236.155 127.545 236.566 127.165 237.046 126.886C237.984 126.278 239.099 125.999 240.214 126.094C241.298 126.197 242.324 126.631 243.152 127.338C243.543 127.676 243.885 128.068 244.166 128.502C244.434 128.973 244.623 129.484 244.728 130.015L244.593 130.189C243.907 129.696 243.178 129.264 242.415 128.898C241.663 128.558 240.861 128.342 240.039 128.257C238.364 128.102 236.693 128.598 235.374 129.643L235.224 129.524Z" fill="#263238"/>
<path d="M234.329 124.09C234.329 124.09 234.868 118.935 241.108 118.665" stroke="#263238" stroke-width="2" stroke-linecap="round" stroke-linejoin="round"/>
<path d="M251.412 115.957C252.866 115.508 254.402 115.396 255.905 115.631C257.408 115.866 258.838 116.44 260.085 117.311" stroke="#263238" stroke-width="2" stroke-linecap="round" stroke-linejoin="round"/>
<path d="M248.973 137.38C250.217 137.685 251.488 137.866 252.767 137.919C254.39 137.919 255.475 135.21 255.475 135.21" stroke="#263238" stroke-linecap="round" stroke-linejoin="round"/>
<path d="M248.973 141.713C248.973 141.713 254.937 143.883 258.192 138.458" stroke="#263238" stroke-linecap="round" stroke-linejoin="round"/>
<path d="M247.104 114.191C247.104 114.432 247.032 114.668 246.898 114.868C246.764 115.069 246.574 115.225 246.351 115.317C246.128 115.41 245.883 115.434 245.646 115.387C245.41 115.34 245.192 115.224 245.022 115.053C244.851 114.883 244.735 114.665 244.688 114.429C244.641 114.192 244.665 113.947 244.758 113.724C244.85 113.501 245.006 113.311 245.207 113.177C245.407 113.042 245.643 112.971 245.884 112.971C246.045 112.971 246.203 113.003 246.351 113.064C246.499 113.125 246.634 113.215 246.747 113.328C246.86 113.441 246.95 113.576 247.011 113.724C247.072 113.872 247.104 114.03 247.104 114.191Z" fill="#263238"/>
<path d="M266.769 198.602C266.769 198.602 267.458 188.765 272.028 190.365C276.598 191.965 273.398 202.483 272.028 205.001C270.658 207.52 266.54 202.752 266.769 198.602Z" fill="white" stroke="#263238" stroke-linecap="round" stroke-linejoin="round"/>
<path d="M243.445 164.53C247.427 167.815 250.63 171.943 252.822 176.616C254.987 181.774 256.82 187.065 258.311 192.456C258.311 192.456 263.799 191.767 270.428 199.544C277.057 207.322 277.628 219.836 274.317 226.987C268.599 239.335 250.082 236.816 240.934 236.127C231.787 235.438 226.987 228.587 222.869 218.98C218.75 209.373 221.039 189.256 222.409 183.768C223.78 178.279 223.993 173.939 222.409 168.451C220.825 162.962 232.246 156.982 243.445 164.53Z" fill="white" stroke="#263238" stroke-linecap="round" stroke-linejoin="round"/>
<path d="M266.31 202.031C266.31 202.031 270.428 196.543 272.488 197.683C274.547 198.824 276.147 205.001 276.147 205.001C276.147 205.001 277.287 196.289 280.946 196.543C284.605 196.796 284.114 204.312 281.635 213.69C279.156 223.067 275.006 221.237 274.317 218.719C273.944 217.322 273.487 215.949 272.947 214.608" fill="white"/>
<path d="M266.31 202.031C266.31 202.031 270.428 196.543 272.488 197.683C274.547 198.824 276.147 205.001 276.147 205.001C276.147 205.001 277.287 196.289 280.946 196.543C284.605 196.796 284.114 204.312 281.635 213.69C279.156 223.067 275.006 221.237 274.317 218.719C273.944 217.322 273.487 215.949 272.947 214.608" stroke="#263238" stroke-linecap="round" stroke-linejoin="round"/>
<path d="M223.13 191.664C223.13 191.664 225.506 193.446 235.01 194.111C244.514 194.777 251.27 189.035 250.89 192.052C249.306 204.724 228.381 205.088 221.91 196.551C220.683 194.951 220.596 191.719 223.13 191.664Z" fill="#263238" stroke="#263238" stroke-linecap="round" stroke-linejoin="round"/>
<path d="M223.59 203.885C223.59 203.885 225.966 205.667 235.47 206.332C244.974 206.997 251.729 201.255 251.357 204.273C249.773 216.945 228.84 217.309 222.378 208.771C221.142 207.187 221.055 203.956 223.59 203.885Z" fill="#263238" stroke="#263238" stroke-linecap="round" stroke-linejoin="round"/>
<path d="M226.591 218.14C226.591 218.14 229.07 219.724 238.582 219.724C248.094 219.724 254.422 213.484 254.272 216.509C253.614 229.252 232.769 231.161 225.696 223.114C224.389 221.609 224.065 218.394 226.591 218.14Z" fill="#263238" stroke="#263238" stroke-linecap="round" stroke-linejoin="round"/>
<path d="M237.6 229.743C237.6 229.743 240.332 230.86 249.678 229.078C259.024 227.296 264.108 220.026 264.512 223.035C266.207 235.707 246.066 241.394 237.64 234.788C236.071 233.561 235.161 230.472 237.6 229.743Z" fill="#263238" stroke="#263238" stroke-linecap="round" stroke-linejoin="round"/>
<path d="M284.494 195.679L285.286 232.824C285.286 232.824 262.508 234.994 255.19 233.909C247.872 232.824 244.894 231.47 244.894 231.47C243.391 229.208 242.032 226.854 240.823 224.421C239.469 221.435 238.384 221.435 236.214 218.727C234.044 216.018 232.69 214.117 232.69 217.095C232.69 220.073 234.321 220.897 234.86 221.982C235.23 223.024 235.415 224.123 235.406 225.229C235.406 225.229 228.896 223.605 226.995 222.79C225.094 221.974 223.471 220.897 223.201 222.251C222.932 223.605 223.201 224.421 224.286 226.86C225.371 229.3 224.286 233.64 225.371 235.81C226.457 237.98 230.519 240.958 232.42 241.774C234.321 242.59 243.271 242.043 246.249 242.312C249.227 242.582 264.964 245.568 274.721 247.468C284.478 249.369 295.06 250.723 298.045 249.092C301.031 247.46 302.655 246.383 303.193 243.675C303.732 240.966 304.548 213.301 304.548 205.706C304.548 198.111 304.278 187.815 302.108 182.928C300.86 180.389 299.073 178.153 296.873 176.374C294.672 174.596 292.11 173.319 289.365 172.632C284.209 171.547 285.92 171.254 285.92 171.254" fill="#B2B2B2"/>
<path d="M284.494 195.679L285.286 232.824C285.286 232.824 262.508 234.994 255.19 233.909C247.872 232.824 244.894 231.47 244.894 231.47C243.391 229.208 242.032 226.854 240.823 224.421C239.469 221.435 238.384 221.435 236.214 218.727C234.044 216.018 232.69 214.117 232.69 217.095C232.69 220.073 234.321 220.897 234.86 221.982C235.23 223.024 235.415 224.123 235.406 225.229C235.406 225.229 228.896 223.605 226.995 222.79C225.094 221.974 223.471 220.897 223.201 222.251C222.932 223.605 223.201 224.421 224.286 226.86C225.371 229.3 224.286 233.64 225.371 235.81C226.457 237.98 230.519 240.958 232.42 241.774C234.321 242.59 243.271 242.043 246.249 242.312C249.227 242.582 264.964 245.568 274.721 247.468C284.478 249.369 295.06 250.723 298.045 249.092C301.031 247.46 302.655 246.383 303.193 243.675C303.732 240.966 304.548 213.301 304.548 205.706C304.548 198.111 304.278 187.815 302.108 182.928C300.86 180.389 299.073 178.153 296.873 176.374C294.672 174.596 292.11 173.319 289.365 172.632C284.209 171.547 285.92 171.254 285.92 171.254" stroke="#263238" stroke-linecap="round" stroke-linejoin="round"/>
<path d="M282.744 191.458L284.859 212.106C288.217 210.68 295.788 207.948 303.51 208.526L304.54 208.621C304.54 207.472 304.54 206.482 304.54 205.706C304.54 198.119 304.271 187.815 302.101 182.928C300.852 180.389 299.065 178.153 296.865 176.375C294.664 174.596 292.102 173.319 289.357 172.632C288.565 172.474 286.189 172.418 285.69 172.292" fill="#92E3A9"/>
<path d="M282.744 191.458L284.859 212.106C288.217 210.68 295.788 207.948 303.51 208.526L304.54 208.621C304.54 207.472 304.54 206.482 304.54 205.706C304.54 198.119 304.271 187.815 302.101 182.928C300.852 180.389 299.065 178.153 296.865 176.375C294.664 174.596 292.102 173.319 289.357 172.632C288.565 172.474 286.189 172.418 285.69 172.292" stroke="#263238" stroke-linecap="round" stroke-linejoin="round"/>
<path d="M250.327 248.395C249.729 248.395 249.153 248.16 248.726 247.741C248.298 247.322 248.051 246.752 248.039 246.154L247.769 231.787C247.746 231.476 247.786 231.164 247.888 230.87C247.989 230.576 248.15 230.305 248.359 230.075C248.569 229.845 248.823 229.66 249.107 229.531C249.39 229.403 249.697 229.333 250.008 229.327C250.319 229.321 250.629 229.379 250.917 229.497C251.205 229.614 251.466 229.789 251.684 230.012C251.903 230.234 252.073 230.498 252.186 230.788C252.298 231.078 252.351 231.388 252.339 231.7L252.608 246.066C252.615 246.367 252.562 246.665 252.452 246.945C252.343 247.224 252.18 247.48 251.971 247.696C251.763 247.912 251.514 248.086 251.239 248.205C250.964 248.325 250.667 248.39 250.367 248.395H250.327Z" fill="white" stroke="#263238" stroke-linecap="round" stroke-linejoin="round"/>
<path d="M206.395 156.626C206.395 156.626 186.057 159.073 184.702 164.491C183.348 169.908 190.666 180.22 206.395 185.083C222.124 189.945 246.526 193.795 249.512 194.587C252.498 195.379 251.951 200.281 251.951 200.281L251.159 211.67C251.159 211.67 247.365 222.758 248.181 223.059C248.997 223.36 250.074 222.267 251.436 218.988C252.67 216.342 254.119 213.801 255.768 211.393C255.768 211.393 257.4 210.854 257.4 213.294C257.4 215.733 255.23 225.768 255.23 225.768C255.23 225.768 256.584 227.668 257.4 225.498C258.216 223.328 262.009 214.41 262.009 214.41V226.069C262.009 226.069 263.094 226.861 263.91 226.615C264.726 226.369 266.049 212.256 266.049 212.256C266.453 212.837 266.909 213.38 267.411 213.88C268.203 214.672 269.304 225.546 269.304 225.546C269.304 225.546 270.666 226.338 271.205 224.999C271.743 223.661 270.413 213.072 270.12 210.086C269.826 207.1 263.609 194.634 261.986 191.648C260.362 188.662 256.022 185.954 251.412 184.599C248.545 183.76 220.524 170.225 208.296 162.091" fill="#B2B2B2"/>
<path d="M206.395 156.626C206.395 156.626 186.057 159.073 184.702 164.491C183.348 169.908 190.666 180.22 206.395 185.083C222.124 189.945 246.526 193.795 249.512 194.587C252.498 195.379 251.951 200.281 251.951 200.281L251.159 211.67C251.159 211.67 247.365 222.758 248.181 223.059C248.997 223.36 250.074 222.267 251.436 218.988C252.67 216.342 254.119 213.801 255.768 211.393C255.768 211.393 257.4 210.854 257.4 213.294C257.4 215.733 255.23 225.768 255.23 225.768C255.23 225.768 256.584 227.668 257.4 225.498C258.216 223.328 262.009 214.41 262.009 214.41V226.069C262.009 226.069 263.094 226.861 263.91 226.615C264.726 226.369 266.049 212.256 266.049 212.256C266.453 212.837 266.909 213.38 267.411 213.88C268.203 214.672 269.304 225.546 269.304 225.546C269.304 225.546 270.666 226.338 271.205 224.999C271.743 223.661 270.413 213.072 270.12 210.086C269.826 207.1 263.609 194.634 261.986 191.648C260.362 188.662 256.022 185.954 251.412 184.599C248.545 183.76 220.524 170.225 208.296 162.091" stroke="#263238" stroke-linecap="round" stroke-linejoin="round"/>
<path d="M248.973 199.045H248.743C248.14 198.983 247.586 198.685 247.202 198.217C246.818 197.748 246.635 197.146 246.692 196.543C247.714 186.057 253.979 183.498 257.194 183.641C257.779 183.689 258.324 183.959 258.715 184.397C259.107 184.835 259.315 185.407 259.296 185.994C259.278 186.581 259.035 187.138 258.617 187.551C258.199 187.964 257.639 188.2 257.051 188.211C256.513 188.211 252.07 188.496 251.246 196.994C251.189 197.557 250.925 198.079 250.505 198.458C250.085 198.837 249.539 199.046 248.973 199.045Z" fill="white" stroke="#263238" stroke-linecap="round" stroke-linejoin="round"/>
<path d="M228.635 173.987C223.748 173.987 213.175 173.195 211.005 169.916C208.835 166.637 211.797 162.32 211.797 162.32C211.797 162.32 208.811 156.903 209.896 153.917C210.981 150.931 220.477 153.125 220.477 153.125L231.565 149.601C231.565 149.601 236.808 144.936 239.746 144.936C242.685 144.936 241.378 152.262 241.378 152.262C241.378 152.262 246.526 153.347 247.888 158.226C249.25 163.105 245.172 166.629 243.279 168.522C241.386 170.415 240.024 170.692 240.024 170.692" fill="white"/>
<path d="M228.635 173.987C223.748 173.987 213.175 173.195 211.005 169.916C208.835 166.637 211.797 162.32 211.797 162.32C211.797 162.32 208.811 156.903 209.896 153.917C210.981 150.931 220.477 153.125 220.477 153.125L231.565 149.601C231.565 149.601 236.808 144.936 239.746 144.936C242.685 144.936 241.378 152.262 241.378 152.262C241.378 152.262 246.526 153.347 247.888 158.226C249.25 163.105 245.172 166.629 243.279 168.522C241.386 170.415 240.024 170.692 240.024 170.692" stroke="#263238" stroke-linecap="round" stroke-linejoin="round"/>
<path d="M232.848 165.029C232.848 165.029 229.3 165.623 229.593 166.51C229.886 167.397 231.367 167.991 232.848 167.397C234.329 166.803 234.511 164.736 232.848 165.029Z" fill="white" stroke="#263238" stroke-linecap="round" stroke-linejoin="round"/>
<path d="M227.676 163.2C227.89 164.158 227.637 165.021 227.122 165.14C226.607 165.259 226.013 164.57 225.799 163.611C225.585 162.653 225.799 161.782 226.354 161.671C226.908 161.56 227.47 162.241 227.676 163.2Z" fill="#263238"/>
<path d="M235.454 161.275C235.66 162.233 235.414 163.097 234.891 163.215C234.369 163.334 233.783 162.645 233.569 161.687C233.355 160.729 233.569 159.857 234.131 159.746C234.693 159.636 235.224 160.317 235.454 161.275Z" fill="#263238"/>
<path d="M232.452 168.11C232.604 168.46 232.653 168.847 232.593 169.225C232.533 169.602 232.366 169.955 232.111 170.24C231.217 171.135 229.308 170.803 228.943 169.567" stroke="#263238" stroke-linecap="round" stroke-linejoin="round"/>
<path d="M232.785 169.567C232.785 169.567 233.68 170.581 235.256 169.567C235.464 169.459 235.643 169.302 235.779 169.11C235.914 168.919 236.002 168.697 236.034 168.465C236.067 168.232 236.043 167.996 235.966 167.774C235.888 167.552 235.759 167.353 235.588 167.191" stroke="#263238" stroke-linecap="round" stroke-linejoin="round"/>
<path d="M231.779 151.399C231.779 151.399 223.067 153.418 222.132 155.438C221.198 157.458 231.779 154.313 233.125 153.062C234.472 151.811 233.236 150.955 231.779 151.399Z" fill="#263238" stroke="#263238" stroke-linecap="round" stroke-linejoin="round"/>
<path d="M230.321 156.111C230.321 156.111 224.595 158.131 225.269 158.693C225.942 159.255 231.216 157.901 232.333 157.006C233.45 156.111 232.333 155.438 230.321 156.111Z" fill="#263238" stroke="#263238" stroke-linecap="round" stroke-linejoin="round"/>
<path d="M210.244 166.764C210.244 166.764 219.107 161.156 218.544 163.849C217.982 166.542 212.042 170.803 212.042 170.803C211.32 170.443 210.746 169.843 210.418 169.106C210.091 168.369 210.029 167.541 210.244 166.764Z" fill="#263238" stroke="#263238" stroke-linecap="round" stroke-linejoin="round"/>
<path d="M216.525 172.711C216.525 172.711 221.91 166.201 221.57 169.235C221.229 172.268 219.986 173.155 219.986 173.155C219.986 173.155 216.858 172.711 216.525 172.711Z" fill="#263238" stroke="#263238" stroke-linecap="round" stroke-linejoin="round"/>
<path d="M246.241 155.549C246.241 155.549 240.301 156.784 240.744 157.925C241.188 159.065 247.928 160.301 247.928 160.301C247.928 160.301 248.26 157.117 246.241 155.549Z" fill="#263238" stroke="#263238" stroke-linecap="round" stroke-linejoin="round"/>
<path d="M246.13 165.528C246.13 165.528 240.071 163.398 240.522 164.974C240.974 166.55 243.888 167.999 243.888 167.999C243.888 167.999 245.346 166.431 246.13 165.528Z" fill="#263238" stroke="#263238" stroke-linecap="round" stroke-linejoin="round"/>
<path d="M209.92 153.917C209.92 153.917 213.444 154.709 215.076 156.357C216.707 158.004 217.246 158.527 215.076 160.697C212.905 162.867 211.82 162.281 211.82 162.281C211.82 162.281 209.65 157.988 209.92 153.917Z" fill="white" stroke="#263238" stroke-linecap="round" stroke-linejoin="round"/>
<path d="M239.746 144.936C239.746 144.936 236.768 151.177 238.162 152.8C239.556 154.424 241.418 152.262 241.418 152.262C241.418 152.262 243.279 144.698 239.746 144.936Z" fill="white" stroke="#263238" stroke-linecap="round" stroke-linejoin="round"/>
<path d="M228.817 171.809C228.817 171.809 224.366 171.215 222.877 172.997C221.388 174.779 222.877 175.967 227.035 176.26C231.193 176.553 233.798 173.717 228.817 171.809Z" fill="white" stroke="#263238" stroke-linecap="round" stroke-linejoin="round"/>
<path d="M247.231 170.621C247.231 170.621 240.103 168.538 236.246 170.914C232.389 173.29 228.524 179.824 232.682 182.493C236.84 185.162 238.028 177.155 238.028 177.155C238.028 177.155 245.156 186.057 251.682 181.012" fill="white"/>
<path d="M247.231 170.621C247.231 170.621 240.103 168.538 236.246 170.914C232.389 173.29 228.524 179.824 232.682 182.493C236.84 185.162 238.028 177.155 238.028 177.155C238.028 177.155 245.156 186.057 251.682 181.012" stroke="#263238" stroke-linecap="round" stroke-linejoin="round"/>
<path d="M309.529 192.456C301.53 190.397 292.612 199.544 290.323 207.322C288.035 215.099 286.664 226.068 280.946 229.498C279.567 230.334 278.037 230.89 276.442 231.133C274.848 231.376 273.222 231.302 271.656 230.916C270.652 231.947 269.508 232.832 268.258 233.545C273.105 234.891 282.245 236.301 288.058 230.155C296.295 221.443 294.466 209.563 301.095 203.861C307.724 198.158 311.842 208.89 315.953 205.231C320.063 201.572 317.537 194.484 309.529 192.456Z" fill="white" stroke="#263238" stroke-linecap="round" stroke-linejoin="round"/>
<path d="M290.791 226.599L285.73 223.194C285.166 224.554 284.44 225.841 283.568 227.027C284.589 228.484 285.872 230.195 286.736 231.32C287.18 230.959 287.601 230.57 287.995 230.155C289.04 229.064 289.977 227.873 290.791 226.599Z" fill="#263238" stroke="#263238" stroke-linecap="round" stroke-linejoin="round"/>
<path d="M309.529 192.456C309.039 192.329 308.538 192.245 308.033 192.203C305.039 195.371 304.294 199.608 304.144 202.277C309.054 201.319 312.491 208.32 315.929 205.263C320.047 201.572 317.537 194.484 309.529 192.456Z" fill="#263238" stroke="#263238" stroke-linecap="round" stroke-linejoin="round"/>
<path d="M278.507 230.607C277.657 230.899 276.778 231.095 275.885 231.193C276.144 232.354 276.472 233.5 276.867 234.622V234.693C278.365 234.661 279.854 234.451 281.303 234.068C280.487 232.825 279.55 231.666 278.507 230.607Z" fill="#263238" stroke="#263238" stroke-linecap="round" stroke-linejoin="round"/>
<path d="M289.183 211.583C288.795 213.167 288.391 214.751 287.995 216.335L294.07 219.424C294.782 217.285 295.353 215.163 295.97 213.159L289.183 211.583Z" fill="#263238" stroke="#263238" stroke-linecap="round" stroke-linejoin="round"/>
<path d="M292.913 201.778L298.164 207.559C298.765 206.427 299.525 205.387 300.421 204.471L295.978 197.881C294.838 199.082 293.812 200.386 292.913 201.778Z" fill="#263238" stroke="#263238" stroke-linecap="round" stroke-linejoin="round"/>
<path d="M285.912 171.65V171.246C285.912 171.246 285.35 171.349 285.912 171.65Z" fill="white" stroke="#263238" stroke-linecap="round" stroke-linejoin="round"/>
</svg>
